<svg width="88" height="92" viewBox="0 0 88 92" fill="none" xmlns="http://www.w3.org/2000/svg">
<path d="M26.2222 91.037C22.3704 91.037 18.926 90.704 15.8889 90.037C12.8519 89.37 9.5185 88.481 5.8889 87.37C3.66669 86.556 2.00003 86.111 0.888916 86.037L1.7778 65.9259H8.8889L10.7778 80.37C12.0371 81.556 14.0741 82.63 16.8889 83.593C19.7778 84.481 22.926 84.926 26.3334 84.926C31.963 84.926 36.2223 83.667 39.1111 81.148C42.0741 78.63 43.5556 75.148 43.5556 70.7037C43.5556 67.8148 42.7408 65.3333 41.1111 63.2592C39.5556 61.1852 37.4445 59.4074 34.7778 57.9259C32.1852 56.4444 28.5926 54.7037 24 52.7037C19.8519 50.8518 16.2222 48.963 13.1111 47.037C10.0741 45.1111 7.4074 42.5555 5.1111 39.3704C2.88892 36.1111 1.7778 32.2222 1.7778 27.7037C1.7778 23.6296 2.85188 20 5 16.8148C7.2222 13.5555 10.3704 11 14.4445 9.14806C18.5926 7.29626 23.4074 6.37036 28.8889 6.37036C32.2963 6.37036 35.2963 6.62956 37.8889 7.14806C40.5556 7.66666 43.5556 8.37036 46.8889 9.25916C48.3704 9.77776 49.6297 10.1111 50.6667 10.2593L50 28.9259H43.2223L41 15.2592C40.2593 14.5185 38.7037 13.8148 36.3334 13.1481C34.0371 12.4815 31.5185 12.1481 28.7778 12.1481C23.6667 12.1481 19.7778 13.2222 17.1111 15.3704C14.5185 17.5185 13.2222 20.6296 13.2222 24.7037C13.2222 27.6667 14 30.1481 15.5556 32.1481C17.1852 34.1481 19.1852 35.8518 21.5556 37.2592C23.926 38.6667 27.7037 40.5926 32.8889 43.037C37.7037 45.3333 41.6297 47.4074 44.6667 49.2592C47.7037 51.1111 50.2963 53.5555 52.4445 56.5926C54.6667 59.5555 55.7778 63.1111 55.7778 67.2592C55.7778 71.1852 54.6667 74.9629 52.4445 78.593C50.2963 82.222 46.963 85.222 42.4445 87.593C38 89.889 32.5926 91.037 26.2222 91.037Z" fill="white"/>
<path d="M73.3518 11L73.1851 6.27773V0.166626H77.4629V6.27773L77.1851 11L81.4074 10.7222H87.8518V14.9444H81.4074L77.1851 14.7777L77.4629 19.3888V25.8888H73.1851V19.3888L73.3518 14.7777L68.5185 14.9444H62.7963V10.7222H68.5185L73.3518 11Z" fill="white"/>
</svg>
