<svg width="54" height="78" viewBox="0 0 54 78" fill="none" xmlns="http://www.w3.org/2000/svg">
<path d="M17.4 62.66C15.32 62.66 13.46 62.48 11.82 62.12C10.18 61.76 8.38 61.28 6.42 60.68C5.22 60.24 4.32 60 3.72 59.96L4.2 49.1H8.04L9.06 56.9C9.74 57.54 10.84 58.12 12.36 58.64C13.92 59.12 15.62 59.36 17.46 59.36C20.5 59.36 22.8 58.68 24.36 57.32C25.96 55.96 26.76 54.08 26.76 51.68C26.76 50.12 26.32 48.78 25.44 47.66C24.6 46.54 23.46 45.58 22.02 44.78C20.62 43.98 18.68 43.04 16.2 41.96C13.96 40.96 12 39.94 10.32 38.9C8.68 37.86 7.24 36.48 6 34.76C4.8 33 4.2 30.9 4.2 28.46C4.2 26.26 4.78 24.3 5.94 22.58C7.14 20.82 8.84 19.44 11.04 18.44C13.28 17.44 15.88 16.94 18.84 16.94C20.68 16.94 22.3 17.08 23.7 17.36C25.14 17.64 26.76 18.02 28.56 18.5C29.36 18.78 30.04 18.96 30.6 19.04L30.24 29.12H26.58L25.38 21.74C24.98 21.34 24.14 20.96 22.86 20.6C21.62 20.24 20.26 20.06 18.78 20.06C16.02 20.06 13.92 20.64 12.48 21.8C11.08 22.96 10.38 24.64 10.38 26.84C10.38 28.44 10.8 29.78 11.64 30.86C12.52 31.94 13.6 32.86 14.88 33.62C16.16 34.38 18.2 35.42 21 36.74C23.6 37.98 25.72 39.1 27.36 40.1C29 41.1 30.4 42.42 31.56 44.06C32.76 45.66 33.36 47.58 33.36 49.82C33.36 51.94 32.76 53.98 31.56 55.94C30.4 57.9 28.6 59.52 26.16 60.8C23.76 62.04 20.84 62.66 17.4 62.66Z" fill="white"/>
<path d="M42.85 19.44L42.76 16.89V13.59H45.07V16.89L44.92 19.44L47.2 19.29H50.68V21.57H47.2L44.92 21.48L45.07 23.97V27.48H42.76V23.97L42.85 21.48L40.24 21.57H37.15V19.29H40.24L42.85 19.44Z" fill="white"/>
</svg>
