<svg width="60" height="63" viewBox="0 0 60 63" fill="none" xmlns="http://www.w3.org/2000/svg">
<g clip-path="url(#clip0_20_54)">
<path d="M17.8788 62.0708C15.2525 62.0708 12.9041 61.8437 10.8333 61.3889C8.76266 60.9342 6.48989 60.328 4.01516 59.5705C2.50002 59.0155 1.36366 58.7121 0.606079 58.6617L1.21214 44.9496H6.06061L7.3485 54.7978C8.20711 55.6064 9.59598 56.3387 11.5152 56.9953C13.4849 57.6008 15.6314 57.9042 17.9546 57.9042C21.793 57.9042 24.697 57.0458 26.6667 55.3283C28.6869 53.6114 29.697 51.2373 29.697 48.2071C29.697 46.2374 29.1415 44.5455 28.0303 43.1313C26.9697 41.7173 25.5303 40.5051 23.7121 39.495C21.9445 38.4849 19.495 37.2981 16.3636 35.9344C13.5354 34.6718 11.0606 33.3839 8.93939 32.0708C6.8687 30.7576 5.0505 29.0152 3.48484 26.8435C1.96972 24.6213 1.21214 21.9698 1.21214 18.889C1.21214 16.1112 1.94446 13.6364 3.40909 11.4647C4.92423 9.24247 7.07073 7.50008 9.84852 6.23739C12.6768 4.9748 15.9596 4.34351 19.697 4.34351C22.0202 4.34351 24.0657 4.52023 25.8333 4.87376C27.6515 5.22735 29.697 5.70714 31.9697 6.31314C32.9798 6.66673 33.8384 6.89401 34.5455 6.99506L34.0909 19.7223H29.4698L27.9545 10.4041C27.4495 9.89906 26.3889 9.41926 24.7728 8.96469C23.2071 8.51019 21.4899 8.28287 19.6212 8.28287C16.1364 8.28287 13.4849 9.01521 11.6667 10.4799C9.89898 11.9445 9.01514 14.0657 9.01514 16.8435C9.01514 18.8637 9.54545 20.5556 10.6061 21.9192C11.7172 23.2829 13.0808 24.4445 14.697 25.4041C16.3132 26.3637 18.8889 27.6768 22.4243 29.3435C25.7071 30.9091 28.3839 32.3233 30.4546 33.5859C32.5252 34.8486 34.2929 36.5152 35.7576 38.5859C37.2728 40.6061 38.0303 43.0304 38.0303 45.8586C38.0303 48.5354 37.2728 51.1111 35.7576 53.5862C34.2929 56.0605 32.0202 58.106 28.9394 59.7226C25.9091 61.288 22.2222 62.0708 17.8788 62.0708Z" fill="white"/>
<path d="M50.0126 7.49992L49.8989 4.28019V0.113525H52.8156V4.28019L52.6262 7.49992L55.5051 7.31051H59.899V10.1893H55.5051L52.6262 10.0756L52.8156 13.2196V17.6514H49.8989V13.2196L50.0126 10.0756L46.7172 10.1893H42.8157V7.31051H46.7172L50.0126 7.49992Z" fill="white"/>
</g>
<defs>
<clipPath id="clip0_20_54">
<rect width="60" height="62.7273" fill="white"/>
</clipPath>
</defs>
</svg>
