<svg width="40" height="42" viewBox="0 0 40 42" fill="none" xmlns="http://www.w3.org/2000/svg">
<g clip-path="url(#clip0_20_54)">
<path d="M11.9192 41.3803C10.1684 41.3803 8.60273 41.229 7.22223 40.9258C5.84177 40.6226 4.32659 40.2185 2.67677 39.7135C1.66668 39.3435 0.909105 39.1413 0.404053 39.1076L0.808091 29.9662H4.04041L4.899 36.5317C5.47141 37.0708 6.39732 37.559 7.67677 37.9967C8.98991 38.4003 10.4209 38.6026 11.9697 38.6026C14.5286 38.6026 16.4647 38.0303 17.7778 36.8853C19.1246 35.7408 19.798 34.1581 19.798 32.1379C19.798 30.8248 19.4276 29.6968 18.6869 28.7541C17.9798 27.8113 17.0202 27.0033 15.8081 26.3298C14.6296 25.6564 12.9966 24.8652 10.9091 23.9561C9.02359 23.1143 7.37373 22.2558 5.95959 21.3803C4.57914 20.5049 3.367 19.3433 2.32323 17.8955C1.31315 16.414 0.808091 14.6463 0.808091 12.5925C0.808091 10.7406 1.29631 9.0908 2.27273 7.64298C3.28282 6.16148 4.71382 4.99989 6.56568 4.1581C8.45118 3.31637 10.6397 2.89551 13.1313 2.89551C14.6801 2.89551 16.0438 3.01333 17.2222 3.24901C18.4344 3.48473 19.798 3.8046 21.3131 4.2086C21.9865 4.44433 22.559 4.59584 23.0303 4.66321L22.7273 13.148H19.6465L18.6364 6.93589C18.2997 6.59921 17.5926 6.27934 16.5152 5.9763C15.4714 5.6733 14.3266 5.52175 13.0808 5.52175C10.7576 5.52175 8.98991 6.00998 7.77777 6.98643C6.59932 7.96284 6.01009 9.37698 6.01009 11.2288C6.01009 12.5757 6.36364 13.7036 7.07073 14.6127C7.81145 15.5218 8.72055 16.2962 9.798 16.9359C10.8755 17.5757 12.5926 18.4511 14.9495 19.5622C17.138 20.6059 18.9226 21.5487 20.303 22.3904C21.6835 23.2322 22.862 24.3433 23.8384 25.7238C24.8485 27.0706 25.3535 28.6868 25.3535 30.5723C25.3535 32.3568 24.8485 34.0739 23.8384 35.724C22.862 37.3735 21.3468 38.7372 19.293 39.8149C17.2727 40.8585 14.8148 41.3803 11.9192 41.3803Z" fill="white"/>
<path d="M33.3418 4.99994L33.266 2.85346V0.0756836H35.2105V2.85346L35.0842 4.99994L37.0034 4.87367H39.9327V6.79285H37.0034L35.0842 6.71708L35.2105 8.81303V11.7676H33.266V8.81303L33.3418 6.71708L31.1448 6.79285H28.5438V4.87367H31.1448L33.3418 4.99994Z" fill="white"/>
</g>
<defs>
<clipPath id="clip0_20_54">
<rect width="40" height="41.8182" fill="white"/>
</clipPath>
</defs>
</svg>
