<svg width="208" height="49" viewBox="0 0 208 49" fill="none" xmlns="http://www.w3.org/2000/svg">
<path d="M1.684 1.512H2.604V3.328L2.572 4.112L2.604 4.136V7.344L1.684 7.752V1.512ZM3.3 8.072C3.13733 8.072 2.96933 8.06 2.796 8.036C2.62533 8.01467 2.46267 7.98667 2.308 7.952C2.15333 7.91733 2.02 7.88267 1.908 7.848C1.79867 7.81067 1.724 7.77867 1.684 7.752L2.604 7.248C2.676 7.29867 2.77733 7.33867 2.908 7.368C3.04133 7.39467 3.204 7.408 3.396 7.408C3.62533 7.408 3.83067 7.344 4.012 7.216C4.196 7.08533 4.34133 6.89467 4.448 6.644C4.55733 6.39333 4.61467 6.08533 4.62 5.72C4.62533 5.192 4.53333 4.80667 4.344 4.564C4.15467 4.32133 3.88933 4.2 3.548 4.2C3.34 4.2 3.15467 4.24 2.992 4.32C2.82933 4.39733 2.7 4.472 2.604 4.544L2.46 4.088C2.52133 4.024 2.60533 3.94533 2.712 3.852C2.81867 3.756 2.96 3.672 3.136 3.6C3.312 3.52533 3.53467 3.488 3.804 3.488C4.11867 3.488 4.40933 3.56533 4.676 3.72C4.94267 3.872 5.15733 4.10533 5.32 4.42C5.48267 4.732 5.564 5.128 5.564 5.608C5.564 6.09067 5.46933 6.51733 5.28 6.888C5.09333 7.25867 4.82933 7.54933 4.488 7.76C4.14933 7.968 3.75333 8.072 3.3 8.072ZM7.86569 8.064C7.57502 8.064 7.34035 8.01867 7.16169 7.928C6.98302 7.83733 6.84702 7.708 6.75369 7.54C6.66035 7.36933 6.59635 7.16667 6.56169 6.932C6.52969 6.69733 6.51369 6.43733 6.51369 6.152V3.544H7.43369V6.144C7.43369 6.496 7.46035 6.75467 7.51369 6.92C7.56969 7.08533 7.65502 7.192 7.76969 7.24C7.88702 7.288 8.03902 7.312 8.22569 7.312C8.33502 7.312 8.45102 7.296 8.57369 7.264C8.69902 7.22933 8.81635 7.18933 8.92569 7.144C9.03502 7.096 9.12169 7.05067 9.18569 7.008V3.544H10.1057V8.064H9.68169C9.55902 8.064 9.46169 8.04533 9.38969 8.008C9.31769 7.97333 9.28169 7.88267 9.28169 7.736V7.424L9.29769 7.6C9.17769 7.68 9.03635 7.756 8.87369 7.828C8.71369 7.89733 8.54569 7.95467 8.36969 8C8.19369 8.04267 8.02569 8.064 7.86569 8.064ZM11.5169 8V3.552H12.4369V8H11.5169ZM11.9249 2.764C11.7702 2.764 11.6342 2.71467 11.5169 2.616C11.4022 2.51733 11.3449 2.38267 11.3449 2.212C11.3449 2.09467 11.3769 1.98933 11.4409 1.896C11.5075 1.8 11.5915 1.724 11.6929 1.668C11.7942 1.60933 11.8995 1.58 12.0089 1.58C12.1982 1.58 12.3409 1.63333 12.4369 1.74C12.5329 1.84667 12.5809 1.97733 12.5809 2.132C12.5809 2.316 12.5142 2.468 12.3809 2.588C12.2502 2.70533 12.0982 2.764 11.9249 2.764ZM13.8763 8V1.496H14.8043V8H13.8763ZM17.4514 8.064C17.2408 8.064 17.0554 8.03067 16.8954 7.964C16.7354 7.89733 16.6101 7.78 16.5194 7.612C16.4314 7.44133 16.3874 7.2 16.3874 6.888V4.224H15.8114V3.728C16.0088 3.672 16.1594 3.62533 16.2634 3.588C16.3674 3.548 16.4434 3.464 16.4914 3.336C16.5128 3.27733 16.5368 3.208 16.5634 3.128C16.5901 3.04533 16.6194 2.95467 16.6514 2.856C16.6834 2.75467 16.7181 2.64533 16.7554 2.528H17.3074V3.544H18.5554V4.224H17.3074V6.4C17.3074 6.688 17.3194 6.89867 17.3434 7.032C17.3701 7.16267 17.4181 7.24667 17.4874 7.284C17.5594 7.31867 17.6648 7.336 17.8034 7.336C17.8781 7.336 17.9634 7.328 18.0594 7.312C18.1581 7.29333 18.2514 7.27067 18.3394 7.244C18.4301 7.21733 18.4994 7.18933 18.5474 7.16L18.6994 7.688C18.6194 7.74933 18.5114 7.80933 18.3754 7.868C18.2421 7.924 18.0941 7.97067 17.9314 8.008C17.7714 8.04533 17.6114 8.064 17.4514 8.064ZM21.0278 1.512H21.9478V3.328L21.9158 4.112L21.9478 4.136V7.344L21.0278 7.752V1.512ZM22.6438 8.072C22.4811 8.072 22.3131 8.06 22.1398 8.036C21.9691 8.01467 21.8064 7.98667 21.6518 7.952C21.4971 7.91733 21.3638 7.88267 21.2518 7.848C21.1424 7.81067 21.0678 7.77867 21.0278 7.752L21.9478 7.248C22.0198 7.29867 22.1211 7.33867 22.2518 7.368C22.3851 7.39467 22.5478 7.408 22.7398 7.408C22.9691 7.408 23.1744 7.344 23.3558 7.216C23.5398 7.08533 23.6851 6.89467 23.7918 6.644C23.9011 6.39333 23.9584 6.08533 23.9638 5.72C23.9691 5.192 23.8771 4.80667 23.6878 4.564C23.4984 4.32133 23.2331 4.2 22.8918 4.2C22.6838 4.2 22.4984 4.24 22.3358 4.32C22.1731 4.39733 22.0438 4.472 21.9478 4.544L21.8038 4.088C21.8651 4.024 21.9491 3.94533 22.0558 3.852C22.1624 3.756 22.3038 3.672 22.4798 3.6C22.6558 3.52533 22.8784 3.488 23.1478 3.488C23.4624 3.488 23.7531 3.56533 24.0198 3.72C24.2864 3.872 24.5011 4.10533 24.6638 4.42C24.8264 4.732 24.9078 5.128 24.9078 5.608C24.9078 6.09067 24.8131 6.51733 24.6238 6.888C24.4371 7.25867 24.1731 7.54933 23.8318 7.76C23.4931 7.968 23.0971 8.072 22.6438 8.072ZM25.8254 9.92V9.168C25.8708 9.184 25.9361 9.19733 26.0214 9.208C26.1094 9.21867 26.1748 9.224 26.2174 9.224C26.3294 9.224 26.4628 9.192 26.6174 9.128C26.7721 9.06667 26.9201 8.94 27.0614 8.748C27.2054 8.55867 27.3161 8.272 27.3934 7.888L27.4494 8H27.0654L25.4734 3.544H26.4654L27.3934 6.432L27.7694 7.68H27.5294L27.8574 6.432L28.6494 3.544H29.6414L28.1614 8.136C27.9854 8.672 27.7761 9.08133 27.5334 9.364C27.2908 9.64933 27.0254 9.832 26.7374 9.912C26.6814 9.93067 26.6081 9.94667 26.5174 9.96C26.4268 9.976 26.3508 9.984 26.2894 9.984C26.2494 9.984 26.1961 9.98 26.1294 9.972C26.0628 9.96667 25.9988 9.95867 25.9374 9.948C25.8788 9.94 25.8414 9.93067 25.8254 9.92Z" fill="#EDEDF5"/>
<path d="M186.376 46V45.408L186.328 45.384V42.232L186.36 42.208L186.328 41.328V39.496H187.248V46H186.376ZM185.132 46.064C184.82 46.064 184.529 45.9867 184.26 45.832C183.993 45.6773 183.777 45.4427 183.612 45.128C183.449 44.8133 183.368 44.4147 183.368 43.932C183.368 43.4493 183.461 43.0253 183.648 42.66C183.835 42.292 184.095 42.0053 184.428 41.8C184.764 41.592 185.157 41.488 185.608 41.488C185.883 41.488 186.113 41.5213 186.3 41.588C186.487 41.652 186.605 41.7067 186.656 41.752L186.328 42.34C186.248 42.2707 186.141 42.2227 186.008 42.196C185.877 42.1693 185.721 42.156 185.54 42.156C185.313 42.156 185.108 42.2187 184.924 42.344C184.743 42.4693 184.597 42.656 184.488 42.904C184.379 43.152 184.323 43.4587 184.32 43.824C184.312 44.3467 184.403 44.7293 184.592 44.972C184.781 45.2147 185.047 45.336 185.388 45.336C185.596 45.336 185.781 45.2973 185.944 45.22C186.109 45.1427 186.237 45.068 186.328 44.996L186.48 45.452C186.416 45.5187 186.331 45.6 186.224 45.696C186.117 45.792 185.976 45.8773 185.8 45.952C185.624 46.0267 185.401 46.064 185.132 46.064ZM188.618 46V41.552H189.538V46H188.618ZM189.026 40.764C188.872 40.764 188.736 40.7147 188.618 40.616C188.504 40.5173 188.446 40.3827 188.446 40.212C188.446 40.0947 188.478 39.9893 188.542 39.896C188.609 39.8 188.693 39.724 188.794 39.668C188.896 39.6093 189.001 39.58 189.11 39.58C189.3 39.58 189.442 39.6333 189.538 39.74C189.634 39.8467 189.682 39.9773 189.682 40.132C189.682 40.316 189.616 40.468 189.482 40.588C189.352 40.7053 189.2 40.764 189.026 40.764ZM192.538 48.016C191.951 48.016 191.487 47.908 191.146 47.692C190.804 47.476 190.634 47.1467 190.634 46.704C190.634 46.5387 190.674 46.3907 190.754 46.26C190.834 46.132 190.932 46.024 191.05 45.936C191.167 45.848 191.282 45.7813 191.394 45.736L191.986 45.824C191.93 45.8747 191.867 45.928 191.798 45.984C191.728 46.04 191.667 46.1133 191.614 46.204C191.563 46.2973 191.538 46.4213 191.538 46.576C191.538 46.752 191.572 46.9013 191.642 47.024C191.711 47.1493 191.82 47.244 191.97 47.308C192.122 47.3747 192.322 47.408 192.57 47.408C192.799 47.408 193.011 47.3827 193.206 47.332C193.4 47.284 193.556 47.2093 193.674 47.108C193.791 47.0093 193.85 46.8853 193.85 46.736C193.85 46.5787 193.82 46.4453 193.762 46.336C193.706 46.2267 193.599 46.1427 193.442 46.084C193.287 46.028 193.06 46 192.762 46H192.322C192.17 46 192.035 45.9973 191.918 45.992C191.8 45.984 191.695 45.968 191.602 45.944C191.57 45.936 191.539 45.9227 191.51 45.904C191.48 45.8827 191.45 45.8667 191.418 45.856C191.218 45.7787 191.083 45.672 191.014 45.536C190.947 45.4 190.914 45.264 190.914 45.128C190.914 45.024 190.94 44.9187 190.994 44.812C191.05 44.7027 191.127 44.5987 191.226 44.5C191.327 44.3987 191.444 44.3093 191.578 44.232L192.15 44.376C192.054 44.4133 191.966 44.4787 191.886 44.572C191.808 44.6627 191.77 44.76 191.77 44.864C191.77 45.0267 191.808 45.1373 191.886 45.196C191.966 45.252 192.098 45.28 192.282 45.28H193.082C193.426 45.28 193.706 45.316 193.922 45.388C194.138 45.46 194.304 45.5573 194.422 45.68C194.539 45.8 194.619 45.9333 194.662 46.08C194.707 46.2293 194.73 46.3813 194.73 46.536C194.73 46.768 194.672 46.9747 194.558 47.156C194.443 47.34 194.284 47.496 194.082 47.624C193.879 47.752 193.646 47.8493 193.382 47.916C193.118 47.9827 192.836 48.016 192.538 48.016ZM192.51 44.48C192.176 44.48 191.876 44.4187 191.61 44.296C191.343 44.1707 191.132 43.9987 190.978 43.78C190.823 43.5587 190.746 43.304 190.746 43.016C190.746 42.6693 190.823 42.384 190.978 42.16C191.132 41.936 191.344 41.7693 191.614 41.66C191.883 41.5507 192.187 41.4933 192.526 41.488C192.856 41.48 193.159 41.528 193.434 41.632C193.708 41.736 193.927 41.8987 194.09 42.12C194.255 42.3387 194.338 42.6213 194.338 42.968C194.338 43.2933 194.259 43.5693 194.102 43.796C193.944 44.02 193.728 44.1907 193.454 44.308C193.179 44.4227 192.864 44.48 192.51 44.48ZM192.534 43.88C192.808 43.88 193.027 43.8187 193.19 43.696C193.352 43.5707 193.434 43.3373 193.434 42.996C193.434 42.7027 193.363 42.48 193.222 42.328C193.08 42.1733 192.866 42.096 192.578 42.096C192.412 42.096 192.259 42.12 192.118 42.168C191.976 42.216 191.863 42.304 191.778 42.432C191.692 42.56 191.65 42.7427 191.65 42.98C191.65 43.2227 191.719 43.4333 191.858 43.612C191.999 43.7907 192.224 43.88 192.534 43.88ZM193.846 42.24L193.594 41.868C193.652 41.7933 193.768 41.716 193.942 41.636C194.118 41.556 194.31 41.516 194.518 41.516H194.966V42.24H193.846ZM195.79 46V41.552H196.71V46H195.79ZM196.198 40.764C196.044 40.764 195.908 40.7147 195.79 40.616C195.676 40.5173 195.618 40.3827 195.618 40.212C195.618 40.0947 195.65 39.9893 195.714 39.896C195.781 39.8 195.865 39.724 195.966 39.668C196.068 39.6093 196.173 39.58 196.282 39.58C196.472 39.58 196.614 39.6333 196.71 39.74C196.806 39.8467 196.854 39.9773 196.854 40.132C196.854 40.316 196.788 40.468 196.654 40.588C196.524 40.7053 196.372 40.764 196.198 40.764ZM199.358 46.064C199.147 46.064 198.962 46.0307 198.802 45.964C198.642 45.8973 198.516 45.78 198.426 45.612C198.338 45.4413 198.294 45.2 198.294 44.888V42.224H197.718V41.728C197.915 41.672 198.066 41.6253 198.17 41.588C198.274 41.548 198.35 41.464 198.398 41.336C198.419 41.2773 198.443 41.208 198.47 41.128C198.496 41.0453 198.526 40.9547 198.558 40.856C198.59 40.7547 198.624 40.6453 198.662 40.528H199.214V41.544H200.462V42.224H199.214V44.4C199.214 44.688 199.226 44.8987 199.25 45.032C199.276 45.1627 199.324 45.2467 199.394 45.284C199.466 45.3187 199.571 45.336 199.71 45.336C199.784 45.336 199.87 45.328 199.966 45.312C200.064 45.2933 200.158 45.2707 200.246 45.244C200.336 45.2173 200.406 45.1893 200.454 45.16L200.606 45.688C200.526 45.7493 200.418 45.8093 200.282 45.868C200.148 45.924 200 45.9707 199.838 46.008C199.678 46.0453 199.518 46.064 199.358 46.064ZM202.557 46.064C202.29 46.064 202.053 46.012 201.845 45.908C201.639 45.8013 201.477 45.652 201.357 45.46C201.239 45.2653 201.181 45.036 201.181 44.772C201.181 44.4867 201.257 44.2453 201.409 44.048C201.563 43.848 201.77 43.692 202.029 43.58C202.199 43.5107 202.385 43.456 202.585 43.416C202.785 43.3733 202.985 43.344 203.185 43.328C203.385 43.3093 203.57 43.3 203.741 43.3L203.933 43.544L203.741 43.868C203.637 43.868 203.511 43.876 203.365 43.892C203.221 43.9053 203.078 43.928 202.937 43.96C202.795 43.9893 202.675 44.028 202.577 44.076C202.441 44.1373 202.327 44.216 202.237 44.312C202.146 44.408 202.101 44.5413 202.101 44.712C202.101 44.936 202.162 45.1053 202.285 45.22C202.41 45.3347 202.595 45.392 202.841 45.392C202.966 45.392 203.093 45.3733 203.221 45.336C203.349 45.2987 203.459 45.256 203.553 45.208C203.649 45.16 203.711 45.1187 203.741 45.084L203.925 45.28L203.793 45.624C203.675 45.7307 203.506 45.8307 203.285 45.924C203.063 46.0173 202.821 46.064 202.557 46.064ZM204.665 46H203.793V45.336H203.741V42.88C203.741 42.6187 203.671 42.4467 203.533 42.364C203.397 42.2787 203.202 42.236 202.949 42.236C202.781 42.236 202.607 42.2533 202.429 42.288C202.25 42.32 202.086 42.3613 201.937 42.412C201.787 42.46 201.673 42.5093 201.593 42.56L201.377 41.896C201.438 41.8587 201.555 41.8067 201.729 41.74C201.905 41.6733 202.109 41.6133 202.341 41.56C202.575 41.504 202.807 41.476 203.037 41.476C203.37 41.476 203.658 41.5147 203.901 41.592C204.146 41.6693 204.334 41.8133 204.465 42.024C204.598 42.232 204.665 42.5347 204.665 42.932V46ZM206.001 46V39.496H206.929V46H206.001Z" fill="#EDEDF5"/>
<path d="M8.7 35.33C7.66 35.33 6.73 35.24 5.91 35.06C5.09 34.88 4.19 34.64 3.21 34.34C2.61 34.12 2.16 34 1.86 33.98L2.1 28.55H4.02L4.53 32.45C4.87 32.77 5.42 33.06 6.18 33.32C6.96 33.56 7.81 33.68 8.73 33.68C10.25 33.68 11.4 33.34 12.18 32.66C12.98 31.98 13.38 31.04 13.38 29.84C13.38 29.06 13.16 28.39 12.72 27.83C12.3 27.27 11.73 26.79 11.01 26.39C10.31 25.99 9.34 25.52 8.1 24.98C6.98 24.48 6 23.97 5.16 23.45C4.34 22.93 3.62 22.24 3 21.38C2.4 20.5 2.1 19.45 2.1 18.23C2.1 17.13 2.39 16.15 2.97 15.29C3.57 14.41 4.42 13.72 5.52 13.22C6.64 12.72 7.94 12.47 9.42 12.47C10.34 12.47 11.15 12.54 11.85 12.68C12.57 12.82 13.38 13.01 14.28 13.25C14.68 13.39 15.02 13.48 15.3 13.52L15.12 18.56H13.29L12.69 14.87C12.49 14.67 12.07 14.48 11.43 14.3C10.81 14.12 10.13 14.03 9.39 14.03C8.01 14.03 6.96 14.32 6.24 14.9C5.54 15.48 5.19 16.32 5.19 17.42C5.19 18.22 5.4 18.89 5.82 19.43C6.26 19.97 6.8 20.43 7.44 20.81C8.08 21.19 9.1 21.71 10.5 22.37C11.8 22.99 12.86 23.55 13.68 24.05C14.5 24.55 15.2 25.21 15.78 26.03C16.38 26.83 16.68 27.79 16.68 28.91C16.68 29.97 16.38 30.99 15.78 31.97C15.2 32.95 14.3 33.76 13.08 34.4C11.88 35.02 10.42 35.33 8.7 35.33ZM22.7025 15.35C22.0625 15.35 21.5825 15.17 21.2625 14.81C20.9425 14.45 20.7825 13.99 20.7825 13.43C20.7825 12.79 20.9725 12.26 21.3525 11.84C21.7525 11.42 22.2925 11.21 22.9725 11.21C23.6525 11.21 24.1525 11.39 24.4725 11.75C24.7925 12.11 24.9525 12.57 24.9525 13.13C24.9525 13.81 24.7525 14.35 24.3525 14.75C23.9725 15.15 23.4325 15.35 22.7325 15.35H22.7025ZM21.5025 20.66L19.2225 20.12V18.53L23.8725 17.96H23.9325L24.6225 18.5V33.29L27.0225 33.53V35H19.0725V33.53L21.5025 33.26V20.66ZM29.1227 33.53L30.9527 33.26V20.66L28.7927 20.12V18.5L33.0827 17.96L33.6227 18.35L33.8027 19.55L33.7727 20.51C34.4727 19.87 35.4227 19.29 36.6227 18.77C37.8427 18.23 38.9327 17.96 39.8927 17.96C40.9727 17.96 41.8427 18.14 42.5027 18.5C43.1627 18.86 43.6627 19.42 44.0027 20.18C44.6427 19.64 45.5327 19.14 46.6727 18.68C47.8327 18.2 48.9127 17.96 49.9127 17.96C51.1527 17.96 52.1227 18.2 52.8227 18.68C53.5227 19.14 54.0127 19.87 54.2927 20.87C54.5927 21.85 54.7427 23.17 54.7427 24.83V33.26L56.9027 33.53V35H49.7627V33.53L51.6227 33.26V24.92C51.6227 23.76 51.5327 22.84 51.3527 22.16C51.1927 21.46 50.8727 20.94 50.3927 20.6C49.9327 20.26 49.2627 20.09 48.3827 20.09C47.7227 20.09 47.0227 20.24 46.2827 20.54C45.5427 20.82 44.9127 21.16 44.3927 21.56C44.5727 22.34 44.6627 23.45 44.6627 24.89V33.26L46.7927 33.53V35H39.5327V33.53L41.5127 33.26V24.86C41.5127 23.66 41.4327 22.73 41.2727 22.07C41.1327 21.41 40.8527 20.92 40.4327 20.6C40.0127 20.26 39.3727 20.09 38.5127 20.09C37.7927 20.09 37.0227 20.27 36.2027 20.63C35.4027 20.99 34.7027 21.41 34.1027 21.89V33.26L36.1127 33.53V35H29.1227V33.53ZM75.2363 26.09C75.2363 27.79 74.8863 29.35 74.1862 30.77C73.4863 32.17 72.4863 33.28 71.1863 34.1C69.8863 34.92 68.3663 35.33 66.6263 35.33C66.1463 35.33 65.6263 35.29 65.0663 35.21C64.5063 35.13 64.0563 35.03 63.7163 34.91L63.8063 37.43V40.46L66.9263 40.79V42.26H58.5563V40.79L60.7163 40.46V20.66L58.5263 20.12V18.5L62.7863 17.96H62.8463L63.4763 18.5V20.27C64.0763 19.61 64.8163 19.05 65.6963 18.59C66.5963 18.13 67.5963 17.9 68.6963 17.9C69.8763 17.9 70.9563 18.19 71.9363 18.77C72.9363 19.35 73.7363 20.25 74.3363 21.47C74.9363 22.69 75.2363 24.23 75.2363 26.09ZM67.4663 20C66.7063 20 65.9963 20.16 65.3363 20.48C64.6763 20.8 64.1663 21.15 63.8063 21.53V32.84C63.9463 33.08 64.2963 33.3 64.8563 33.5C65.4363 33.68 66.0663 33.77 66.7463 33.77C68.2863 33.77 69.5263 33.16 70.4663 31.94C71.4263 30.72 71.9063 28.88 71.9063 26.42C71.9063 24.26 71.4863 22.65 70.6463 21.59C69.8263 20.53 68.7663 20 67.4663 20ZM80.0341 12.62L77.6041 12.29V11L82.4341 10.43H82.4941L83.1541 10.88V33.29L85.7041 33.53V35H77.6041V33.53L80.0341 33.26V12.62ZM90.2644 42.47C89.9244 42.47 89.5844 42.45 89.2444 42.41C88.9244 42.37 88.6944 42.31 88.5544 42.23V39.62C88.6744 39.7 88.9044 39.76 89.2444 39.8C89.6044 39.84 89.9444 39.86 90.2644 39.86C91.2244 39.86 92.0644 39.52 92.7844 38.84C93.5244 38.18 94.2344 36.9 94.9144 35H93.4744L87.7744 20.15L86.3944 19.76V18.35H93.6244V19.76L91.3144 20.12L94.2544 28.97L95.6344 33.35L96.9244 28.94L99.5944 20.12L97.5844 19.76V18.35H103.614V19.76L102.114 20.12C99.1744 29.12 97.4444 34.23 96.9244 35.45C96.2444 37.17 95.6244 38.51 95.0644 39.47C94.5044 40.45 93.8444 41.19 93.0844 41.69C92.3244 42.21 91.3844 42.47 90.2644 42.47ZM119.471 35.33C118.431 35.33 117.501 35.24 116.681 35.06C115.861 34.88 114.961 34.64 113.981 34.34C113.381 34.12 112.931 34 112.631 33.98L112.871 28.55H114.791L115.301 32.45C115.641 32.77 116.191 33.06 116.951 33.32C117.731 33.56 118.581 33.68 119.501 33.68C121.021 33.68 122.171 33.34 122.951 32.66C123.751 31.98 124.151 31.04 124.151 29.84C124.151 29.06 123.931 28.39 123.491 27.83C123.071 27.27 122.501 26.79 121.781 26.39C121.081 25.99 120.111 25.52 118.871 24.98C117.751 24.48 116.771 23.97 115.931 23.45C115.111 22.93 114.391 22.24 113.771 21.38C113.171 20.5 112.871 19.45 112.871 18.23C112.871 17.13 113.161 16.15 113.741 15.29C114.341 14.41 115.191 13.72 116.291 13.22C117.411 12.72 118.711 12.47 120.191 12.47C121.111 12.47 121.921 12.54 122.621 12.68C123.341 12.82 124.151 13.01 125.051 13.25C125.451 13.39 125.791 13.48 126.071 13.52L125.891 18.56H124.061L123.461 14.87C123.261 14.67 122.841 14.48 122.201 14.3C121.581 14.12 120.901 14.03 120.161 14.03C118.781 14.03 117.731 14.32 117.011 14.9C116.311 15.48 115.961 16.32 115.961 17.42C115.961 18.22 116.171 18.89 116.591 19.43C117.031 19.97 117.571 20.43 118.211 20.81C118.851 21.19 119.871 21.71 121.271 22.37C122.571 22.99 123.631 23.55 124.451 24.05C125.271 24.55 125.971 25.21 126.551 26.03C127.151 26.83 127.451 27.79 127.451 28.91C127.451 29.97 127.151 30.99 126.551 31.97C125.971 32.95 125.071 33.76 123.851 34.4C122.651 35.02 121.191 35.33 119.471 35.33ZM135.064 35.3C133.924 35.3 133.074 35.04 132.514 34.52C131.954 34 131.674 33.11 131.674 31.85V20.33H129.514V18.98C129.614 18.96 129.894 18.89 130.354 18.77C130.814 18.65 131.124 18.54 131.284 18.44C131.604 18.26 131.854 17.9 132.034 17.36C132.194 16.98 132.384 16.37 132.604 15.53C132.824 14.69 132.954 14.19 132.994 14.03H134.764L134.824 18.35H139.834V20.33H134.824V29.54C134.824 30.68 134.854 31.48 134.914 31.94C134.994 32.4 135.144 32.7 135.364 32.84C135.604 32.98 136.004 33.05 136.564 33.05C137.104 33.05 137.694 32.98 138.334 32.84C138.994 32.7 139.504 32.55 139.864 32.39L140.314 33.74C139.834 34.1 139.054 34.45 137.974 34.79C136.914 35.13 135.944 35.3 135.064 35.3ZM149.531 35.33C147.111 35.33 145.261 34.54 143.981 32.96C142.721 31.38 142.091 29.27 142.091 26.63C142.091 24.89 142.421 23.36 143.081 22.04C143.741 20.72 144.661 19.7 145.841 18.98C147.041 18.26 148.401 17.9 149.921 17.9C151.781 17.9 153.221 18.42 154.241 19.46C155.281 20.48 155.831 21.95 155.891 23.87C155.891 25.09 155.821 26.02 155.681 26.66H145.361C145.401 28.64 145.861 30.24 146.741 31.46C147.621 32.66 148.871 33.26 150.491 33.26C151.291 33.26 152.121 33.12 152.981 32.84C153.861 32.54 154.541 32.19 155.021 31.79L155.591 33.11C155.011 33.71 154.151 34.23 153.011 34.67C151.871 35.11 150.711 35.33 149.531 35.33ZM152.591 25.07C152.651 24.65 152.681 24.22 152.681 23.78C152.661 22.48 152.381 21.46 151.841 20.72C151.321 19.96 150.491 19.58 149.351 19.58C148.191 19.58 147.261 20 146.561 20.84C145.881 21.68 145.491 23.09 145.391 25.07H152.591ZM160.659 12.62L158.229 12.29V11L163.059 10.43H163.119L163.779 10.88V33.29L166.329 33.53V35H158.229V33.53L160.659 33.26V12.62ZM170.649 12.62L168.219 12.29V11L173.049 10.43H173.109L173.769 10.88V33.29L176.319 33.53V35H168.219V33.53L170.649 33.26V12.62ZM178.45 30.5C178.45 28.62 179.39 27.24 181.27 26.36C183.15 25.46 185.53 24.98 188.41 24.92V24.08C188.41 23.14 188.31 22.4 188.11 21.86C187.91 21.32 187.56 20.93 187.06 20.69C186.58 20.43 185.89 20.3 184.99 20.3C183.97 20.3 183.05 20.45 182.23 20.75C181.43 21.03 180.63 21.38 179.83 21.8L179.08 20.24C179.34 20.02 179.82 19.73 180.52 19.37C181.22 19.01 182.03 18.69 182.95 18.41C183.87 18.13 184.79 17.99 185.71 17.99C187.13 17.99 188.25 18.19 189.07 18.59C189.91 18.97 190.51 19.59 190.87 20.45C191.23 21.31 191.41 22.46 191.41 23.9V33.53H193.18V34.85C192.78 34.95 192.27 35.05 191.65 35.15C191.05 35.25 190.52 35.3 190.06 35.3C189.5 35.3 189.12 35.21 188.92 35.03C188.72 34.87 188.62 34.5 188.62 33.92V32.93C188.02 33.53 187.28 34.08 186.4 34.58C185.54 35.08 184.56 35.33 183.46 35.33C182.02 35.33 180.82 34.92 179.86 34.1C178.92 33.26 178.45 32.06 178.45 30.5ZM184.75 33.29C185.27 33.29 185.87 33.13 186.55 32.81C187.23 32.49 187.85 32.11 188.41 31.67V26.51C186.23 26.51 184.58 26.85 183.46 27.53C182.36 28.19 181.81 29.06 181.81 30.14C181.81 31.22 182.07 32.02 182.59 32.54C183.13 33.04 183.85 33.29 184.75 33.29ZM195.326 33.53L197.576 33.35V20.66L195.416 20.12V18.5L199.556 17.96H199.616L200.276 18.5V19.04L200.186 21.38H200.276C200.476 21.04 200.836 20.6 201.356 20.06C201.876 19.52 202.546 19.03 203.366 18.59C204.186 18.13 205.076 17.9 206.036 17.9C206.436 17.9 206.766 17.95 207.026 18.05V21.41C206.886 21.31 206.656 21.22 206.336 21.14C206.036 21.04 205.696 20.99 205.316 20.99C203.656 20.99 202.116 21.5 200.696 22.52V33.32L204.506 33.56V35H195.326V33.53Z" fill="#EDEDF5"/>
</svg>
