<svg width="176" height="38" viewBox="0 0 176 38" fill="none" xmlns="http://www.w3.org/2000/svg">
<path d="M11.1 18.86L4.6 21.98L11.1 25.16V27.46L1.64 22.6V21.38L11.1 16.5V18.86Z" fill="#FFE6C0"/>
<path d="M15.39 35.31H13.14L21.54 6.57H23.79L15.39 35.31Z" fill="#BA5252"/>
<path d="M29.8 27.22C29.1067 27.22 28.4867 27.16 27.94 27.04C27.3933 26.92 26.7933 26.76 26.14 26.56C25.74 26.4133 25.44 26.3333 25.24 26.32L25.4 22.7H26.68L27.02 25.3C27.2467 25.5133 27.6133 25.7067 28.12 25.88C28.64 26.04 29.2067 26.12 29.82 26.12C30.8333 26.12 31.6 25.8933 32.12 25.44C32.6533 24.9867 32.92 24.36 32.92 23.56C32.92 23.04 32.7733 22.5933 32.48 22.22C32.2 21.8467 31.82 21.5267 31.34 21.26C30.8733 20.9933 30.2267 20.68 29.4 20.32C28.6533 19.9867 28 19.6467 27.44 19.3C26.8933 18.9533 26.4133 18.4933 26 17.92C25.6 17.3333 25.4 16.6333 25.4 15.82C25.4 15.0867 25.5933 14.4333 25.98 13.86C26.38 13.2733 26.9467 12.8133 27.68 12.48C28.4267 12.1467 29.2933 11.98 30.28 11.98C30.8933 11.98 31.4333 12.0267 31.9 12.12C32.38 12.2133 32.92 12.34 33.52 12.5C33.7867 12.5933 34.0133 12.6533 34.2 12.68L34.08 16.04H32.86L32.46 13.58C32.3267 13.4467 32.0467 13.32 31.62 13.2C31.2067 13.08 30.7533 13.02 30.26 13.02C29.34 13.02 28.64 13.2133 28.16 13.6C27.6933 13.9867 27.46 14.5467 27.46 15.28C27.46 15.8133 27.6 16.26 27.88 16.62C28.1733 16.98 28.5333 17.2867 28.96 17.54C29.3867 17.7933 30.0667 18.14 31 18.58C31.8667 18.9933 32.5733 19.3667 33.12 19.7C33.6667 20.0333 34.1333 20.4733 34.52 21.02C34.92 21.5533 35.12 22.1933 35.12 22.94C35.12 23.6467 34.92 24.3267 34.52 24.98C34.1333 25.6333 33.5333 26.1733 32.72 26.6C31.92 27.0133 30.9467 27.22 29.8 27.22ZM39.135 13.9C38.7083 13.9 38.3883 13.78 38.175 13.54C37.9617 13.3 37.855 12.9933 37.855 12.62C37.855 12.1933 37.9817 11.84 38.235 11.56C38.5017 11.28 38.8617 11.14 39.315 11.14C39.7683 11.14 40.1017 11.26 40.315 11.5C40.5283 11.74 40.635 12.0467 40.635 12.42C40.635 12.8733 40.5017 13.2333 40.235 13.5C39.9817 13.7667 39.6217 13.9 39.155 13.9H39.135ZM38.335 17.44L36.815 17.08V16.02L39.915 15.64H39.955L40.415 16V25.86L42.015 26.02V27H36.715V26.02L38.335 25.84V17.44ZM43.4152 26.02L44.6352 25.84V17.44L43.1952 17.08V16L46.0552 15.64L46.4152 15.9L46.5352 16.7L46.5152 17.34C46.9818 16.9133 47.6152 16.5267 48.4152 16.18C49.2285 15.82 49.9552 15.64 50.5952 15.64C51.3152 15.64 51.8952 15.76 52.3352 16C52.7752 16.24 53.1085 16.6133 53.3352 17.12C53.7618 16.76 54.3552 16.4267 55.1152 16.12C55.8885 15.8 56.6085 15.64 57.2752 15.64C58.1018 15.64 58.7485 15.8 59.2152 16.12C59.6818 16.4267 60.0085 16.9133 60.1952 17.58C60.3952 18.2333 60.4952 19.1133 60.4952 20.22V25.84L61.9352 26.02V27H57.1752V26.02L58.4152 25.84V20.28C58.4152 19.5067 58.3552 18.8933 58.2352 18.44C58.1285 17.9733 57.9152 17.6267 57.5952 17.4C57.2885 17.1733 56.8418 17.06 56.2552 17.06C55.8152 17.06 55.3485 17.16 54.8552 17.36C54.3618 17.5467 53.9418 17.7733 53.5952 18.04C53.7152 18.56 53.7752 19.3 53.7752 20.26V25.84L55.1952 26.02V27H50.3552V26.02L51.6752 25.84V20.24C51.6752 19.44 51.6218 18.82 51.5152 18.38C51.4218 17.94 51.2352 17.6133 50.9552 17.4C50.6752 17.1733 50.2485 17.06 49.6752 17.06C49.1952 17.06 48.6818 17.18 48.1352 17.42C47.6018 17.66 47.1352 17.94 46.7352 18.26V25.84L48.0752 26.02V27H43.4152V26.02ZM74.1575 21.06C74.1575 22.1933 73.9242 23.2333 73.4575 24.18C72.9908 25.1133 72.3242 25.8533 71.4575 26.4C70.5908 26.9467 69.5775 27.22 68.4175 27.22C68.0975 27.22 67.7508 27.1933 67.3775 27.14C67.0042 27.0867 66.7042 27.02 66.4775 26.94L66.5375 28.62V30.64L68.6175 30.86V31.84H63.0375V30.86L64.4775 30.64V17.44L63.0175 17.08V16L65.8575 15.64H65.8975L66.3175 16V17.18C66.7175 16.74 67.2108 16.3667 67.7975 16.06C68.3975 15.7533 69.0642 15.6 69.7975 15.6C70.5842 15.6 71.3042 15.7933 71.9575 16.18C72.6242 16.5667 73.1575 17.1667 73.5575 17.98C73.9575 18.7933 74.1575 19.82 74.1575 21.06ZM68.9775 17C68.4708 17 67.9975 17.1067 67.5575 17.32C67.1175 17.5333 66.7775 17.7667 66.5375 18.02V25.56C66.6308 25.72 66.8642 25.8667 67.2375 26C67.6242 26.12 68.0442 26.18 68.4975 26.18C69.5242 26.18 70.3508 25.7733 70.9775 24.96C71.6175 24.1467 71.9375 22.92 71.9375 21.28C71.9375 19.84 71.6575 18.7667 71.0975 18.06C70.5508 17.3533 69.8442 17 68.9775 17ZM77.3561 12.08L75.7361 11.86V11L78.9561 10.62H78.9961L79.4361 10.92V25.86L81.1361 26.02V27H75.7361V26.02L77.3561 25.84V12.08ZM84.1763 31.98C83.9496 31.98 83.7229 31.9667 83.4963 31.94C83.2829 31.9133 83.1296 31.8733 83.0363 31.82V30.08C83.1163 30.1333 83.2696 30.1733 83.4963 30.2C83.7363 30.2267 83.9629 30.24 84.1763 30.24C84.8163 30.24 85.3763 30.0133 85.8563 29.56C86.3496 29.12 86.8229 28.2667 87.2763 27H86.3163L82.5163 17.1L81.5962 16.84V15.9H86.4163V16.84L84.8763 17.08L86.8363 22.98L87.7563 25.9L88.6163 22.96L90.3963 17.08L89.0563 16.84V15.9H93.0763V16.84L92.0763 17.08C90.1163 23.08 88.9629 26.4867 88.6163 27.3C88.1629 28.4467 87.7496 29.34 87.3763 29.98C87.0029 30.6333 86.5629 31.1267 86.0563 31.46C85.5496 31.8067 84.9229 31.98 84.1763 31.98ZM98.9016 27.22C98.2082 27.22 97.5882 27.16 97.0416 27.04C96.4949 26.92 95.8949 26.76 95.2416 26.56C94.8416 26.4133 94.5416 26.3333 94.3416 26.32L94.5016 22.7H95.7816L96.1216 25.3C96.3482 25.5133 96.7149 25.7067 97.2216 25.88C97.7416 26.04 98.3082 26.12 98.9216 26.12C99.9349 26.12 100.702 25.8933 101.222 25.44C101.755 24.9867 102.022 24.36 102.022 23.56C102.022 23.04 101.875 22.5933 101.582 22.22C101.302 21.8467 100.922 21.5267 100.442 21.26C99.9749 20.9933 99.3282 20.68 98.5016 20.32C97.7549 19.9867 97.1016 19.6467 96.5416 19.3C95.9949 18.9533 95.5149 18.4933 95.1016 17.92C94.7016 17.3333 94.5016 16.6333 94.5016 15.82C94.5016 15.0867 94.6949 14.4333 95.0816 13.86C95.4816 13.2733 96.0482 12.8133 96.7816 12.48C97.5282 12.1467 98.3949 11.98 99.3816 11.98C99.9949 11.98 100.535 12.0267 101.002 12.12C101.482 12.2133 102.022 12.34 102.622 12.5C102.888 12.5933 103.115 12.6533 103.302 12.68L103.182 16.04H101.962L101.562 13.58C101.428 13.4467 101.148 13.32 100.722 13.2C100.308 13.08 99.8549 13.02 99.3616 13.02C98.4416 13.02 97.7416 13.2133 97.2616 13.6C96.7949 13.9867 96.5616 14.5467 96.5616 15.28C96.5616 15.8133 96.7016 16.26 96.9816 16.62C97.2749 16.98 97.6349 17.2867 98.0616 17.54C98.4882 17.7933 99.1682 18.14 100.102 18.58C100.968 18.9933 101.675 19.3667 102.222 19.7C102.768 20.0333 103.235 20.4733 103.622 21.02C104.022 21.5533 104.222 22.1933 104.222 22.94C104.222 23.6467 104.022 24.3267 103.622 24.98C103.235 25.6333 102.635 26.1733 101.822 26.6C101.022 27.0133 100.048 27.22 98.9016 27.22ZM109.297 27.2C108.537 27.2 107.97 27.0267 107.597 26.68C107.223 26.3333 107.037 25.74 107.037 24.9V17.22H105.597V16.32C105.663 16.3067 105.85 16.26 106.157 16.18C106.463 16.1 106.67 16.0267 106.777 15.96C106.99 15.84 107.157 15.6 107.277 15.24C107.383 14.9867 107.51 14.58 107.657 14.02C107.803 13.46 107.89 13.1267 107.917 13.02H109.097L109.137 15.9H112.477V17.22H109.137V23.36C109.137 24.12 109.157 24.6533 109.197 24.96C109.25 25.2667 109.35 25.4667 109.497 25.56C109.657 25.6533 109.923 25.7 110.297 25.7C110.657 25.7 111.05 25.6533 111.477 25.56C111.917 25.4667 112.257 25.3667 112.497 25.26L112.797 26.16C112.477 26.4 111.957 26.6333 111.237 26.86C110.53 27.0867 109.883 27.2 109.297 27.2ZM118.941 27.22C117.328 27.22 116.094 26.6933 115.241 25.64C114.401 24.5867 113.981 23.18 113.981 21.42C113.981 20.26 114.201 19.24 114.641 18.36C115.081 17.48 115.694 16.8 116.481 16.32C117.281 15.84 118.188 15.6 119.201 15.6C120.441 15.6 121.401 15.9467 122.081 16.64C122.774 17.32 123.141 18.3 123.181 19.58C123.181 20.3933 123.134 21.0133 123.041 21.44H116.161C116.188 22.76 116.494 23.8267 117.081 24.64C117.668 25.44 118.501 25.84 119.581 25.84C120.114 25.84 120.668 25.7467 121.241 25.56C121.828 25.36 122.281 25.1267 122.601 24.86L122.981 25.74C122.594 26.14 122.021 26.4867 121.261 26.78C120.501 27.0733 119.728 27.22 118.941 27.22ZM120.981 20.38C121.021 20.1 121.041 19.8133 121.041 19.52C121.028 18.6533 120.841 17.9733 120.481 17.48C120.134 16.9733 119.581 16.72 118.821 16.72C118.048 16.72 117.428 17 116.961 17.56C116.508 18.12 116.248 19.06 116.181 20.38H120.981ZM126.36 12.08L124.74 11.86V11L127.96 10.62H128L128.44 10.92V25.86L130.14 26.02V27H124.74V26.02L126.36 25.84V12.08ZM133.02 12.08L131.4 11.86V11L134.62 10.62H134.66L135.1 10.92V25.86L136.8 26.02V27H131.4V26.02L133.02 25.84V12.08ZM138.22 24C138.22 22.7467 138.847 21.8267 140.1 21.24C141.354 20.64 142.94 20.32 144.86 20.28V19.72C144.86 19.0933 144.794 18.6 144.66 18.24C144.527 17.88 144.294 17.62 143.96 17.46C143.64 17.2867 143.18 17.2 142.58 17.2C141.9 17.2 141.287 17.3 140.74 17.5C140.207 17.6867 139.674 17.92 139.14 18.2L138.64 17.16C138.814 17.0133 139.134 16.82 139.6 16.58C140.067 16.34 140.607 16.1267 141.22 15.94C141.834 15.7533 142.447 15.66 143.06 15.66C144.007 15.66 144.754 15.7933 145.3 16.06C145.86 16.3133 146.26 16.7267 146.5 17.3C146.74 17.8733 146.86 18.64 146.86 19.6V26.02H148.04V26.9C147.774 26.9667 147.434 27.0333 147.02 27.1C146.62 27.1667 146.267 27.2 145.96 27.2C145.587 27.2 145.334 27.14 145.2 27.02C145.067 26.9133 145 26.6667 145 26.28V25.62C144.6 26.02 144.107 26.3867 143.52 26.72C142.947 27.0533 142.294 27.22 141.56 27.22C140.6 27.22 139.8 26.9467 139.16 26.4C138.534 25.84 138.22 25.04 138.22 24ZM142.42 25.86C142.767 25.86 143.167 25.7533 143.62 25.54C144.074 25.3267 144.487 25.0733 144.86 24.78V21.34C143.407 21.34 142.307 21.5667 141.56 22.02C140.827 22.46 140.46 23.04 140.46 23.76C140.46 24.48 140.634 25.0133 140.98 25.36C141.34 25.6933 141.82 25.86 142.42 25.86ZM149.471 26.02L150.971 25.9V17.44L149.531 17.08V16L152.291 15.64H152.331L152.771 16V16.36L152.711 17.92H152.771C152.905 17.6933 153.145 17.4 153.491 17.04C153.838 16.68 154.285 16.3533 154.831 16.06C155.378 15.7533 155.971 15.6 156.611 15.6C156.878 15.6 157.098 15.6333 157.271 15.7V17.94C157.178 17.8733 157.025 17.8133 156.811 17.76C156.611 17.6933 156.385 17.66 156.131 17.66C155.025 17.66 153.998 18 153.051 18.68V25.88L155.591 26.04V27H149.471V26.02Z" fill="white"/>
<path d="M164.28 27.46V25.16L170.78 21.98L164.28 18.86V16.5L173.74 21.38V22.6L164.28 27.46Z" fill="#FFE6C0"/>
</svg>
