<svg width="208" height="49" viewBox="0 0 208 49" fill="none" xmlns="http://www.w3.org/2000/svg">
<path d="M1.68396 1.51197H2.60396V3.32797L2.57196 4.11197L2.60396 4.13597V7.34397L1.68396 7.75197V1.51197ZM3.29996 8.07197C3.13729 8.07197 2.96929 8.05997 2.79596 8.03597C2.62529 8.01464 2.46263 7.98664 2.30796 7.95197C2.15329 7.9173 2.01996 7.88264 1.90796 7.84797C1.79863 7.81064 1.72396 7.77864 1.68396 7.75197L2.60396 7.24797C2.67596 7.29864 2.77729 7.33864 2.90796 7.36797C3.04129 7.39464 3.20396 7.40797 3.39596 7.40797C3.62529 7.40797 3.83063 7.34397 4.01196 7.21597C4.19596 7.0853 4.34129 6.89464 4.44796 6.64397C4.55729 6.3933 4.61463 6.0853 4.61996 5.71997C4.62529 5.19197 4.53329 4.80664 4.34396 4.56397C4.15463 4.3213 3.88929 4.19997 3.54796 4.19997C3.33996 4.19997 3.15463 4.23997 2.99196 4.31997C2.82929 4.3973 2.69996 4.47197 2.60396 4.54397L2.45996 4.08797C2.52129 4.02397 2.60529 3.9453 2.71196 3.85197C2.81863 3.75597 2.95996 3.67197 3.13596 3.59997C3.31196 3.5253 3.53463 3.48797 3.80396 3.48797C4.11863 3.48797 4.40929 3.5653 4.67596 3.71997C4.94263 3.87197 5.15729 4.1053 5.31996 4.41997C5.48263 4.73197 5.56396 5.12797 5.56396 5.60797C5.56396 6.09064 5.46929 6.5173 5.27996 6.88797C5.09329 7.25864 4.82929 7.5493 4.48796 7.75997C4.14929 7.96797 3.75329 8.07197 3.29996 8.07197ZM7.86565 8.06397C7.57498 8.06397 7.34031 8.01864 7.16165 7.92797C6.98298 7.8373 6.84698 7.70797 6.75365 7.53997C6.66031 7.3693 6.59631 7.16664 6.56165 6.93197C6.52965 6.6973 6.51365 6.4373 6.51365 6.15197V3.54397H7.43365V6.14397C7.43365 6.49597 7.46031 6.75464 7.51365 6.91997C7.56965 7.0853 7.65498 7.19197 7.76965 7.23997C7.88698 7.28797 8.03898 7.31197 8.22565 7.31197C8.33498 7.31197 8.45098 7.29597 8.57365 7.26397C8.69898 7.2293 8.81631 7.1893 8.92565 7.14397C9.03498 7.09597 9.12165 7.05064 9.18565 7.00797V3.54397H10.1057V8.06397H9.68165C9.55898 8.06397 9.46165 8.0453 9.38965 8.00797C9.31765 7.9733 9.28165 7.88264 9.28165 7.73597V7.42397L9.29765 7.59997C9.17765 7.67997 9.03631 7.75597 8.87365 7.82797C8.71365 7.8973 8.54565 7.95464 8.36965 7.99997C8.19365 8.04264 8.02565 8.06397 7.86565 8.06397ZM11.5169 7.99997V3.55197H12.4369V7.99997H11.5169ZM11.9249 2.76397C11.7702 2.76397 11.6342 2.71464 11.5169 2.61597C11.4022 2.5173 11.3449 2.38264 11.3449 2.21197C11.3449 2.09464 11.3769 1.9893 11.4409 1.89597C11.5075 1.79997 11.5915 1.72397 11.6929 1.66797C11.7942 1.6093 11.8995 1.57997 12.0089 1.57997C12.1982 1.57997 12.3409 1.6333 12.4369 1.73997C12.5329 1.84664 12.5809 1.9773 12.5809 2.13197C12.5809 2.31597 12.5142 2.46797 12.3809 2.58797C12.2502 2.7053 12.0982 2.76397 11.9249 2.76397ZM13.8763 7.99997V1.49597H14.8043V7.99997H13.8763ZM17.4514 8.06397C17.2408 8.06397 17.0554 8.03064 16.8954 7.96397C16.7354 7.8973 16.6101 7.77997 16.5194 7.61197C16.4314 7.4413 16.3874 7.19997 16.3874 6.88797V4.22397H15.8114V3.72797C16.0088 3.67197 16.1594 3.6253 16.2634 3.58797C16.3674 3.54797 16.4434 3.46397 16.4914 3.33597C16.5128 3.2773 16.5368 3.20797 16.5634 3.12797C16.5901 3.0453 16.6194 2.95464 16.6514 2.85597C16.6834 2.75464 16.7181 2.6453 16.7554 2.52797H17.3074V3.54397H18.5554V4.22397H17.3074V6.39997C17.3074 6.68797 17.3194 6.89864 17.3434 7.03197C17.3701 7.16264 17.4181 7.24664 17.4874 7.28397C17.5594 7.31864 17.6648 7.33597 17.8034 7.33597C17.8781 7.33597 17.9634 7.32797 18.0594 7.31197C18.1581 7.2933 18.2514 7.27064 18.3394 7.24397C18.4301 7.2173 18.4994 7.1893 18.5474 7.15997L18.6994 7.68797C18.6194 7.7493 18.5114 7.8093 18.3754 7.86797C18.2421 7.92397 18.0941 7.97064 17.9314 8.00797C17.7714 8.0453 17.6114 8.06397 17.4514 8.06397ZM21.0278 1.51197H21.9478V3.32797L21.9158 4.11197L21.9478 4.13597V7.34397L21.0278 7.75197V1.51197ZM22.6438 8.07197C22.4811 8.07197 22.3131 8.05997 22.1398 8.03597C21.9691 8.01464 21.8064 7.98664 21.6518 7.95197C21.4971 7.9173 21.3638 7.88264 21.2518 7.84797C21.1424 7.81064 21.0678 7.77864 21.0278 7.75197L21.9478 7.24797C22.0198 7.29864 22.1211 7.33864 22.2518 7.36797C22.3851 7.39464 22.5478 7.40797 22.7398 7.40797C22.9691 7.40797 23.1744 7.34397 23.3558 7.21597C23.5398 7.0853 23.6851 6.89464 23.7918 6.64397C23.9011 6.3933 23.9584 6.0853 23.9638 5.71997C23.9691 5.19197 23.8771 4.80664 23.6878 4.56397C23.4984 4.3213 23.2331 4.19997 22.8918 4.19997C22.6838 4.19997 22.4984 4.23997 22.3358 4.31997C22.1731 4.3973 22.0438 4.47197 21.9478 4.54397L21.8038 4.08797C21.8651 4.02397 21.9491 3.9453 22.0558 3.85197C22.1624 3.75597 22.3038 3.67197 22.4798 3.59997C22.6558 3.5253 22.8784 3.48797 23.1478 3.48797C23.4624 3.48797 23.7531 3.5653 24.0198 3.71997C24.2864 3.87197 24.5011 4.1053 24.6638 4.41997C24.8264 4.73197 24.9078 5.12797 24.9078 5.60797C24.9078 6.09064 24.8131 6.5173 24.6238 6.88797C24.4371 7.25864 24.1731 7.5493 23.8318 7.75997C23.4931 7.96797 23.0971 8.07197 22.6438 8.07197ZM25.8254 9.91997V9.16797C25.8708 9.18397 25.9361 9.1973 26.0214 9.20797C26.1094 9.21864 26.1748 9.22397 26.2174 9.22397C26.3294 9.22397 26.4628 9.19197 26.6174 9.12797C26.7721 9.06664 26.9201 8.93997 27.0614 8.74797C27.2054 8.55864 27.3161 8.27197 27.3934 7.88797L27.4494 7.99997H27.0654L25.4734 3.54397H26.4654L27.3934 6.43197L27.7694 7.67997H27.5294L27.8574 6.43197L28.6494 3.54397H29.6414L28.1614 8.13597C27.9854 8.67197 27.7761 9.0813 27.5334 9.36397C27.2908 9.6493 27.0254 9.83197 26.7374 9.91197C26.6814 9.93064 26.6081 9.94664 26.5174 9.95997C26.4268 9.97597 26.3508 9.98397 26.2894 9.98397C26.2494 9.98397 26.1961 9.97997 26.1294 9.97197C26.0628 9.96664 25.9988 9.95864 25.9374 9.94797C25.8788 9.93997 25.8414 9.93064 25.8254 9.91997Z" fill="white"/>
<path d="M8.69999 35.3301C7.65999 35.3301 6.72999 35.2401 5.90999 35.0601C5.08999 34.8801 4.18999 34.6401 3.20999 34.3401C2.60999 34.1201 2.15999 34.0001 1.85999 33.9801L2.09999 28.5501H4.01999L4.52999 32.4501C4.86999 32.7701 5.41999 33.0601 6.17999 33.3201C6.95999 33.5601 7.80998 33.6801 8.72998 33.6801C10.25 33.6801 11.4 33.3401 12.18 32.6601C12.98 31.9801 13.38 31.0401 13.38 29.8401C13.38 29.0601 13.16 28.3901 12.72 27.8301C12.3 27.2701 11.73 26.7901 11.01 26.3901C10.31 25.9901 9.33999 25.5201 8.09999 24.9801C6.97999 24.4801 5.99999 23.9701 5.15999 23.4501C4.33999 22.9301 3.61999 22.2401 2.99999 21.3801C2.39999 20.5001 2.09999 19.4501 2.09999 18.2301C2.09999 17.1301 2.38999 16.1501 2.96999 15.2901C3.56999 14.4101 4.41999 13.7201 5.51999 13.2201C6.63999 12.7201 7.93999 12.4701 9.41999 12.4701C10.34 12.4701 11.15 12.5401 11.85 12.6801C12.57 12.8201 13.38 13.0101 14.28 13.2501C14.68 13.3901 15.02 13.4801 15.3 13.5201L15.12 18.5601H13.29L12.69 14.8701C12.49 14.6701 12.07 14.4801 11.43 14.3001C10.81 14.1201 10.13 14.0301 9.38999 14.0301C8.00999 14.0301 6.95999 14.3201 6.23998 14.9001C5.53999 15.4801 5.18999 16.3201 5.18999 17.4201C5.18999 18.2201 5.39999 18.8901 5.81999 19.4301C6.25999 19.9701 6.79999 20.4301 7.43999 20.8101C8.07999 21.1901 9.09999 21.7101 10.5 22.3701C11.8 22.9901 12.86 23.5501 13.68 24.0501C14.5 24.5501 15.2 25.2101 15.78 26.0301C16.38 26.8301 16.68 27.7901 16.68 28.9101C16.68 29.9701 16.38 30.9901 15.78 31.9701C15.2 32.9501 14.3 33.7601 13.08 34.4001C11.88 35.0201 10.42 35.3301 8.69999 35.3301ZM22.7025 15.3501C22.0625 15.3501 21.5825 15.1701 21.2625 14.8101C20.9425 14.4501 20.7825 13.9901 20.7825 13.4301C20.7825 12.7901 20.9725 12.2601 21.3525 11.8401C21.7525 11.4201 22.2925 11.2101 22.9725 11.2101C23.6525 11.2101 24.1525 11.3901 24.4725 11.7501C24.7925 12.1101 24.9525 12.5701 24.9525 13.1301C24.9525 13.8101 24.7525 14.3501 24.3525 14.7501C23.9725 15.1501 23.4325 15.3501 22.7325 15.3501H22.7025ZM21.5025 20.6601L19.2225 20.1201V18.5301L23.8725 17.9601H23.9325L24.6225 18.5001V33.2901L27.0225 33.5301V35.0001H19.0725V33.5301L21.5025 33.2601V20.6601ZM29.1227 33.5301L30.9527 33.2601V20.6601L28.7927 20.1201V18.5001L33.0827 17.9601L33.6227 18.3501L33.8027 19.5501L33.7727 20.5101C34.4727 19.8701 35.4227 19.2901 36.6227 18.7701C37.8427 18.2301 38.9327 17.9601 39.8927 17.9601C40.9727 17.9601 41.8427 18.1401 42.5027 18.5001C43.1627 18.8601 43.6627 19.4201 44.0027 20.1801C44.6427 19.6401 45.5327 19.1401 46.6727 18.6801C47.8327 18.2001 48.9127 17.9601 49.9127 17.9601C51.1527 17.9601 52.1227 18.2001 52.8227 18.6801C53.5227 19.1401 54.0127 19.8701 54.2927 20.8701C54.5927 21.8501 54.7427 23.1701 54.7427 24.8301V33.2601L56.9027 33.5301V35.0001H49.7627V33.5301L51.6227 33.2601V24.9201C51.6227 23.7601 51.5327 22.8401 51.3527 22.1601C51.1927 21.4601 50.8727 20.9401 50.3927 20.6001C49.9327 20.2601 49.2627 20.0901 48.3827 20.0901C47.7227 20.0901 47.0227 20.2401 46.2827 20.5401C45.5427 20.8201 44.9127 21.1601 44.3927 21.5601C44.5727 22.3401 44.6627 23.4501 44.6627 24.8901V33.2601L46.7927 33.5301V35.0001H39.5327V33.5301L41.5127 33.2601V24.8601C41.5127 23.6601 41.4327 22.7301 41.2727 22.0701C41.1327 21.4101 40.8527 20.9201 40.4327 20.6001C40.0127 20.2601 39.3727 20.0901 38.5127 20.0901C37.7927 20.0901 37.0227 20.2701 36.2027 20.6301C35.4027 20.9901 34.7027 21.4101 34.1027 21.8901V33.2601L36.1127 33.5301V35.0001H29.1227V33.5301ZM75.2363 26.0901C75.2363 27.7901 74.8863 29.3501 74.1862 30.7701C73.4863 32.1701 72.4863 33.2801 71.1863 34.1001C69.8863 34.9201 68.3663 35.3301 66.6263 35.3301C66.1463 35.3301 65.6263 35.2901 65.0663 35.2101C64.5063 35.1301 64.0563 35.0301 63.7163 34.9101L63.8063 37.4301V40.4601L66.9263 40.7901V42.2601H58.5563V40.7901L60.7163 40.4601V20.6601L58.5263 20.1201V18.5001L62.7863 17.9601H62.8463L63.4763 18.5001V20.2701C64.0763 19.6101 64.8163 19.0501 65.6963 18.5901C66.5963 18.1301 67.5963 17.9001 68.6963 17.9001C69.8763 17.9001 70.9563 18.1901 71.9363 18.7701C72.9363 19.3501 73.7363 20.2501 74.3363 21.4701C74.9363 22.6901 75.2363 24.2301 75.2363 26.0901ZM67.4663 20.0001C66.7063 20.0001 65.9963 20.1601 65.3363 20.4801C64.6763 20.8001 64.1663 21.1501 63.8063 21.5301V32.8401C63.9463 33.0801 64.2963 33.3001 64.8563 33.5001C65.4363 33.6801 66.0663 33.7701 66.7463 33.7701C68.2863 33.7701 69.5263 33.1601 70.4663 31.9401C71.4263 30.7201 71.9063 28.8801 71.9063 26.4201C71.9063 24.2601 71.4863 22.6501 70.6463 21.5901C69.8263 20.5301 68.7663 20.0001 67.4663 20.0001ZM80.0341 12.6201L77.6041 12.2901V11.0001L82.4341 10.4301H82.4941L83.1541 10.8801V33.2901L85.7041 33.5301V35.0001H77.6041V33.5301L80.0341 33.2601V12.6201ZM90.2644 42.4701C89.9244 42.4701 89.5844 42.4501 89.2444 42.4101C88.9244 42.3701 88.6944 42.3101 88.5544 42.2301V39.6201C88.6744 39.7001 88.9044 39.7601 89.2444 39.8001C89.6044 39.8401 89.9444 39.8601 90.2644 39.8601C91.2244 39.8601 92.0644 39.5201 92.7844 38.8401C93.5244 38.1801 94.2344 36.9001 94.9144 35.0001H93.4744L87.7744 20.1501L86.3944 19.7601V18.3501H93.6244V19.7601L91.3144 20.1201L94.2544 28.9701L95.6344 33.3501L96.9244 28.9401L99.5944 20.1201L97.5844 19.7601V18.3501H103.614V19.7601L102.114 20.1201C99.1744 29.1201 97.4444 34.2301 96.9244 35.4501C96.2444 37.1701 95.6244 38.5101 95.0644 39.4701C94.5044 40.4501 93.8444 41.1901 93.0844 41.6901C92.3244 42.2101 91.3844 42.4701 90.2644 42.4701ZM119.471 35.3301C118.431 35.3301 117.501 35.2401 116.681 35.0601C115.861 34.8801 114.961 34.6401 113.981 34.3401C113.381 34.1201 112.931 34.0001 112.631 33.9801L112.871 28.5501H114.791L115.301 32.4501C115.641 32.7701 116.191 33.0601 116.951 33.3201C117.731 33.5601 118.581 33.6801 119.501 33.6801C121.021 33.6801 122.171 33.3401 122.951 32.6601C123.751 31.9801 124.151 31.0401 124.151 29.8401C124.151 29.0601 123.931 28.3901 123.491 27.8301C123.071 27.2701 122.501 26.7901 121.781 26.3901C121.081 25.9901 120.111 25.5201 118.871 24.9801C117.751 24.4801 116.771 23.9701 115.931 23.4501C115.111 22.9301 114.391 22.2401 113.771 21.3801C113.171 20.5001 112.871 19.4501 112.871 18.2301C112.871 17.1301 113.161 16.1501 113.741 15.2901C114.341 14.4101 115.191 13.7201 116.291 13.2201C117.411 12.7201 118.711 12.4701 120.191 12.4701C121.111 12.4701 121.921 12.5401 122.621 12.6801C123.341 12.8201 124.151 13.0101 125.051 13.2501C125.451 13.3901 125.791 13.4801 126.071 13.5201L125.891 18.5601H124.061L123.461 14.8701C123.261 14.6701 122.841 14.4801 122.201 14.3001C121.581 14.1201 120.901 14.0301 120.161 14.0301C118.781 14.0301 117.731 14.3201 117.011 14.9001C116.311 15.4801 115.961 16.3201 115.961 17.4201C115.961 18.2201 116.171 18.8901 116.591 19.4301C117.031 19.9701 117.571 20.4301 118.211 20.8101C118.851 21.1901 119.871 21.7101 121.271 22.3701C122.571 22.9901 123.631 23.5501 124.451 24.0501C125.271 24.5501 125.971 25.2101 126.551 26.0301C127.151 26.8301 127.451 27.7901 127.451 28.9101C127.451 29.9701 127.151 30.9901 126.551 31.9701C125.971 32.9501 125.071 33.7601 123.851 34.4001C122.651 35.0201 121.191 35.3301 119.471 35.3301ZM135.064 35.3001C133.924 35.3001 133.074 35.0401 132.514 34.5201C131.954 34.0001 131.674 33.1101 131.674 31.8501V20.3301H129.514V18.9801C129.614 18.9601 129.894 18.8901 130.354 18.7701C130.814 18.6501 131.124 18.5401 131.284 18.4401C131.604 18.2601 131.854 17.9001 132.034 17.3601C132.194 16.9801 132.384 16.3701 132.604 15.5301C132.824 14.6901 132.954 14.1901 132.994 14.0301H134.764L134.824 18.3501H139.834V20.3301H134.824V29.5401C134.824 30.6801 134.854 31.4801 134.914 31.9401C134.994 32.4001 135.144 32.7001 135.364 32.8401C135.604 32.9801 136.004 33.0501 136.564 33.0501C137.104 33.0501 137.694 32.9801 138.334 32.8401C138.994 32.7001 139.504 32.5501 139.864 32.3901L140.314 33.7401C139.834 34.1001 139.054 34.4501 137.974 34.7901C136.914 35.1301 135.944 35.3001 135.064 35.3001ZM149.531 35.3301C147.111 35.3301 145.261 34.5401 143.981 32.9601C142.721 31.3801 142.091 29.2701 142.091 26.6301C142.091 24.8901 142.421 23.3601 143.081 22.0401C143.741 20.7201 144.661 19.7001 145.841 18.9801C147.041 18.2601 148.401 17.9001 149.921 17.9001C151.781 17.9001 153.221 18.4201 154.241 19.4601C155.281 20.4801 155.831 21.9501 155.891 23.8701C155.891 25.0901 155.821 26.0201 155.681 26.6601H145.361C145.401 28.6401 145.861 30.2401 146.741 31.4601C147.621 32.6601 148.871 33.2601 150.491 33.2601C151.291 33.2601 152.121 33.1201 152.981 32.8401C153.861 32.5401 154.541 32.1901 155.021 31.7901L155.591 33.1101C155.011 33.7101 154.151 34.2301 153.011 34.6701C151.871 35.1101 150.711 35.3301 149.531 35.3301ZM152.591 25.0701C152.651 24.6501 152.681 24.2201 152.681 23.7801C152.661 22.4801 152.381 21.4601 151.841 20.7201C151.321 19.9601 150.491 19.5801 149.351 19.5801C148.191 19.5801 147.261 20.0001 146.561 20.8401C145.881 21.6801 145.491 23.0901 145.391 25.0701H152.591ZM160.659 12.6201L158.229 12.2901V11.0001L163.059 10.4301H163.119L163.779 10.8801V33.2901L166.329 33.5301V35.0001H158.229V33.5301L160.659 33.2601V12.6201ZM170.649 12.6201L168.219 12.2901V11.0001L173.049 10.4301H173.109L173.769 10.8801V33.2901L176.319 33.5301V35.0001H168.219V33.5301L170.649 33.2601V12.6201ZM178.45 30.5001C178.45 28.6201 179.39 27.2401 181.27 26.3601C183.15 25.4601 185.53 24.9801 188.41 24.9201V24.0801C188.41 23.1401 188.31 22.4001 188.11 21.8601C187.91 21.3201 187.56 20.9301 187.06 20.6901C186.58 20.4301 185.89 20.3001 184.99 20.3001C183.97 20.3001 183.05 20.4501 182.23 20.7501C181.43 21.0301 180.63 21.3801 179.83 21.8001L179.08 20.2401C179.34 20.0201 179.82 19.7301 180.52 19.3701C181.22 19.0101 182.03 18.6901 182.95 18.4101C183.87 18.1301 184.79 17.9901 185.71 17.9901C187.13 17.9901 188.25 18.1901 189.07 18.5901C189.91 18.9701 190.51 19.5901 190.87 20.4501C191.23 21.3101 191.41 22.4601 191.41 23.9001V33.5301H193.18V34.8501C192.78 34.9501 192.27 35.0501 191.65 35.1501C191.05 35.2501 190.52 35.3001 190.06 35.3001C189.5 35.3001 189.12 35.2101 188.92 35.0301C188.72 34.8701 188.62 34.5001 188.62 33.9201V32.9301C188.02 33.5301 187.28 34.0801 186.4 34.5801C185.54 35.0801 184.56 35.3301 183.46 35.3301C182.02 35.3301 180.82 34.9201 179.86 34.1001C178.92 33.2601 178.45 32.0601 178.45 30.5001ZM184.75 33.2901C185.27 33.2901 185.87 33.1301 186.55 32.8101C187.23 32.4901 187.85 32.1101 188.41 31.6701V26.5101C186.23 26.5101 184.58 26.8501 183.46 27.5301C182.36 28.1901 181.81 29.0601 181.81 30.1401C181.81 31.2201 182.07 32.0201 182.59 32.5401C183.13 33.0401 183.85 33.2901 184.75 33.2901ZM195.326 33.5301L197.576 33.3501V20.6601L195.416 20.1201V18.5001L199.556 17.9601H199.616L200.276 18.5001V19.0401L200.186 21.3801H200.276C200.476 21.0401 200.836 20.6001 201.356 20.0601C201.876 19.5201 202.546 19.0301 203.366 18.5901C204.186 18.1301 205.076 17.9001 206.036 17.9001C206.436 17.9001 206.766 17.9501 207.026 18.0501V21.4101C206.886 21.3101 206.656 21.2201 206.336 21.1401C206.036 21.0401 205.696 20.9901 205.316 20.9901C203.656 20.9901 202.116 21.5001 200.696 22.5201V33.3201L204.506 33.5601V35.0001H195.326V33.5301Z" fill="white"/>
</svg>
