<svg width="78" height="54" viewBox="0 0 78 54" fill="none" xmlns="http://www.w3.org/2000/svg">
<path d="M13.875 25.575L5.75 29.475L13.875 33.45V36.325L2.05 30.25V28.725L13.875 22.625V25.575Z" fill="white" fill-opacity="0.5"/>
<path d="M63.85 36.325V33.45L71.975 29.475L63.85 25.575V22.625L75.675 28.725V30.25L63.85 36.325Z" fill="white" fill-opacity="0.5"/>
<path d="M17.39 42.31H15.14L23.54 13.57H25.79L17.39 42.31Z" fill="white" fill-opacity="0.5"/>
<path d="M37.6 43.44C36.2133 43.44 34.9733 43.32 33.88 43.08C32.7867 42.84 31.5867 42.52 30.28 42.12C29.48 41.8267 28.88 41.6667 28.48 41.64L28.8 34.4H31.36L32.04 39.6C32.4933 40.0267 33.2267 40.4133 34.24 40.76C35.28 41.08 36.4133 41.24 37.64 41.24C39.6667 41.24 41.2 40.7867 42.24 39.88C43.3067 38.9733 43.84 37.72 43.84 36.12C43.84 35.08 43.5467 34.1867 42.96 33.44C42.4 32.6933 41.64 32.0533 40.68 31.52C39.7467 30.9867 38.4533 30.36 36.8 29.64C35.3067 28.9733 34 28.2933 32.88 27.6C31.7867 26.9067 30.8267 25.9867 30 24.84C29.2 23.6667 28.8 22.2667 28.8 20.64C28.8 19.1733 29.1867 17.8667 29.96 16.72C30.76 15.5467 31.8933 14.6267 33.36 13.96C34.8533 13.2933 36.5867 12.96 38.56 12.96C39.7867 12.96 40.8667 13.0533 41.8 13.24C42.76 13.4267 43.84 13.68 45.04 14C45.5733 14.1867 46.0267 14.3067 46.4 14.36L46.16 21.08H43.72L42.92 16.16C42.6533 15.8933 42.0933 15.64 41.24 15.4C40.4133 15.16 39.5067 15.04 38.52 15.04C36.68 15.04 35.28 15.4267 34.32 16.2C33.3867 16.9733 32.92 18.0933 32.92 19.56C32.92 20.6267 33.2 21.52 33.76 22.24C34.3467 22.96 35.0667 23.5733 35.92 24.08C36.7733 24.5867 38.1333 25.28 40 26.16C41.7333 26.9867 43.1467 27.7333 44.24 28.4C45.3333 29.0667 46.2667 29.9467 47.04 31.04C47.84 32.1067 48.24 33.3867 48.24 34.88C48.24 36.2933 47.84 37.6533 47.04 38.96C46.2667 40.2667 45.0667 41.3467 43.44 42.2C41.84 43.0267 39.8933 43.44 37.6 43.44Z" fill="white"/>
<path d="M55.375 15.2L55.3 13.075V10.325H57.225V13.075L57.1 15.2L59 15.075H61.9V16.975H59L57.1 16.9L57.225 18.975V21.9H55.3V18.975L55.375 16.9L53.2 16.975H50.625V15.075H53.2L55.375 15.2Z" fill="white"/>
</svg>
