<svg width="208" height="49" viewBox="0 0 208 49" fill="none" xmlns="http://www.w3.org/2000/svg">
<path d="M1.684 1.512H2.604V3.328L2.572 4.112L2.604 4.136V7.344L1.684 7.752V1.512ZM3.3 8.072C3.13733 8.072 2.96933 8.06 2.796 8.036C2.62533 8.01467 2.46267 7.98667 2.308 7.952C2.15333 7.91733 2.02 7.88267 1.908 7.848C1.79867 7.81067 1.724 7.77867 1.684 7.752L2.604 7.248C2.676 7.29867 2.77733 7.33867 2.908 7.368C3.04133 7.39467 3.204 7.408 3.396 7.408C3.62533 7.408 3.83067 7.344 4.012 7.216C4.196 7.08533 4.34133 6.89467 4.448 6.644C4.55733 6.39333 4.61467 6.08533 4.62 5.72C4.62533 5.192 4.53333 4.80667 4.344 4.564C4.15467 4.32133 3.88933 4.2 3.548 4.2C3.34 4.2 3.15467 4.24 2.992 4.32C2.82933 4.39733 2.7 4.472 2.604 4.544L2.46 4.088C2.52133 4.024 2.60533 3.94533 2.712 3.852C2.81867 3.756 2.96 3.672 3.136 3.6C3.312 3.52533 3.53467 3.488 3.804 3.488C4.11867 3.488 4.40933 3.56533 4.676 3.72C4.94267 3.872 5.15733 4.10533 5.32 4.42C5.48267 4.732 5.564 5.128 5.564 5.608C5.564 6.09067 5.46933 6.51733 5.28 6.888C5.09333 7.25867 4.82933 7.54933 4.488 7.76C4.14933 7.968 3.75333 8.072 3.3 8.072ZM7.86569 8.064C7.57502 8.064 7.34035 8.01867 7.16169 7.928C6.98302 7.83733 6.84702 7.708 6.75369 7.54C6.66035 7.36933 6.59635 7.16667 6.56169 6.932C6.52969 6.69733 6.51369 6.43733 6.51369 6.152V3.544H7.43369V6.144C7.43369 6.496 7.46035 6.75467 7.51369 6.92C7.56969 7.08533 7.65502 7.192 7.76969 7.24C7.88702 7.288 8.03902 7.312 8.22569 7.312C8.33502 7.312 8.45102 7.296 8.57369 7.264C8.69902 7.22933 8.81635 7.18933 8.92569 7.144C9.03502 7.096 9.12169 7.05067 9.18569 7.008V3.544H10.1057V8.064H9.68169C9.55902 8.064 9.46169 8.04533 9.38969 8.008C9.31769 7.97333 9.28169 7.88267 9.28169 7.736V7.424L9.29769 7.6C9.17769 7.68 9.03635 7.756 8.87369 7.828C8.71369 7.89733 8.54569 7.95467 8.36969 8C8.19369 8.04267 8.02569 8.064 7.86569 8.064ZM11.5169 8V3.552H12.4369V8H11.5169ZM11.9249 2.764C11.7702 2.764 11.6342 2.71467 11.5169 2.616C11.4022 2.51733 11.3449 2.38267 11.3449 2.212C11.3449 2.09467 11.3769 1.98933 11.4409 1.896C11.5075 1.8 11.5915 1.724 11.6929 1.668C11.7942 1.60933 11.8995 1.58 12.0089 1.58C12.1982 1.58 12.3409 1.63333 12.4369 1.74C12.5329 1.84667 12.5809 1.97733 12.5809 2.132C12.5809 2.316 12.5142 2.468 12.3809 2.588C12.2502 2.70533 12.0982 2.764 11.9249 2.764ZM13.8763 8V1.496H14.8043V8H13.8763ZM17.4514 8.064C17.2408 8.064 17.0554 8.03067 16.8954 7.964C16.7354 7.89733 16.6101 7.78 16.5194 7.612C16.4314 7.44133 16.3874 7.2 16.3874 6.888V4.224H15.8114V3.728C16.0088 3.672 16.1594 3.62533 16.2634 3.588C16.3674 3.548 16.4434 3.464 16.4914 3.336C16.5128 3.27733 16.5368 3.208 16.5634 3.128C16.5901 3.04533 16.6194 2.95467 16.6514 2.856C16.6834 2.75467 16.7181 2.64533 16.7554 2.528H17.3074V3.544H18.5554V4.224H17.3074V6.4C17.3074 6.688 17.3194 6.89867 17.3434 7.032C17.3701 7.16267 17.4181 7.24667 17.4874 7.284C17.5594 7.31867 17.6648 7.336 17.8034 7.336C17.8781 7.336 17.9634 7.328 18.0594 7.312C18.1581 7.29333 18.2514 7.27067 18.3394 7.244C18.4301 7.21733 18.4994 7.18933 18.5474 7.16L18.6994 7.688C18.6194 7.74933 18.5114 7.80933 18.3754 7.868C18.2421 7.924 18.0941 7.97067 17.9314 8.008C17.7714 8.04533 17.6114 8.064 17.4514 8.064ZM21.0278 1.512H21.9478V3.328L21.9158 4.112L21.9478 4.136V7.344L21.0278 7.752V1.512ZM22.6438 8.072C22.4811 8.072 22.3131 8.06 22.1398 8.036C21.9691 8.01467 21.8064 7.98667 21.6518 7.952C21.4971 7.91733 21.3638 7.88267 21.2518 7.848C21.1424 7.81067 21.0678 7.77867 21.0278 7.752L21.9478 7.248C22.0198 7.29867 22.1211 7.33867 22.2518 7.368C22.3851 7.39467 22.5478 7.408 22.7398 7.408C22.9691 7.408 23.1744 7.344 23.3558 7.216C23.5398 7.08533 23.6851 6.89467 23.7918 6.644C23.9011 6.39333 23.9584 6.08533 23.9638 5.72C23.9691 5.192 23.8771 4.80667 23.6878 4.564C23.4984 4.32133 23.2331 4.2 22.8918 4.2C22.6838 4.2 22.4984 4.24 22.3358 4.32C22.1731 4.39733 22.0438 4.472 21.9478 4.544L21.8038 4.088C21.8651 4.024 21.9491 3.94533 22.0558 3.852C22.1624 3.756 22.3038 3.672 22.4798 3.6C22.6558 3.52533 22.8784 3.488 23.1478 3.488C23.4624 3.488 23.7531 3.56533 24.0198 3.72C24.2864 3.872 24.5011 4.10533 24.6638 4.42C24.8264 4.732 24.9078 5.128 24.9078 5.608C24.9078 6.09067 24.8131 6.51733 24.6238 6.888C24.4371 7.25867 24.1731 7.54933 23.8318 7.76C23.4931 7.968 23.0971 8.072 22.6438 8.072ZM25.8254 9.92V9.168C25.8708 9.184 25.9361 9.19733 26.0214 9.208C26.1094 9.21867 26.1748 9.224 26.2174 9.224C26.3294 9.224 26.4628 9.192 26.6174 9.128C26.7721 9.06667 26.9201 8.94 27.0614 8.748C27.2054 8.55867 27.3161 8.272 27.3934 7.888L27.4494 8H27.0654L25.4734 3.544H26.4654L27.3934 6.432L27.7694 7.68H27.5294L27.8574 6.432L28.6494 3.544H29.6414L28.1614 8.136C27.9854 8.672 27.7761 9.08133 27.5334 9.364C27.2908 9.64933 27.0254 9.832 26.7374 9.912C26.6814 9.93067 26.6081 9.94667 26.5174 9.96C26.4268 9.976 26.3508 9.984 26.2894 9.984C26.2494 9.984 26.1961 9.98 26.1294 9.972C26.0628 9.96667 25.9988 9.95867 25.9374 9.948C25.8788 9.94 25.8414 9.93067 25.8254 9.92Z" fill="white"/>
<path d="M186.376 46V45.408L186.328 45.384V42.232L186.36 42.208L186.328 41.328V39.496H187.248V46H186.376ZM185.132 46.064C184.82 46.064 184.529 45.9867 184.26 45.832C183.993 45.6773 183.777 45.4427 183.612 45.128C183.449 44.8133 183.368 44.4147 183.368 43.932C183.368 43.4493 183.461 43.0253 183.648 42.66C183.835 42.292 184.095 42.0053 184.428 41.8C184.764 41.592 185.157 41.488 185.608 41.488C185.883 41.488 186.113 41.5213 186.3 41.588C186.487 41.652 186.605 41.7067 186.656 41.752L186.328 42.34C186.248 42.2707 186.141 42.2227 186.008 42.196C185.877 42.1693 185.721 42.156 185.54 42.156C185.313 42.156 185.108 42.2187 184.924 42.344C184.743 42.4693 184.597 42.656 184.488 42.904C184.379 43.152 184.323 43.4587 184.32 43.824C184.312 44.3467 184.403 44.7293 184.592 44.972C184.781 45.2147 185.047 45.336 185.388 45.336C185.596 45.336 185.781 45.2973 185.944 45.22C186.109 45.1427 186.237 45.068 186.328 44.996L186.48 45.452C186.416 45.5187 186.331 45.6 186.224 45.696C186.117 45.792 185.976 45.8773 185.8 45.952C185.624 46.0267 185.401 46.064 185.132 46.064ZM188.618 46V41.552H189.538V46H188.618ZM189.026 40.764C188.872 40.764 188.736 40.7147 188.618 40.616C188.504 40.5173 188.446 40.3827 188.446 40.212C188.446 40.0947 188.478 39.9893 188.542 39.896C188.609 39.8 188.693 39.724 188.794 39.668C188.896 39.6093 189.001 39.58 189.11 39.58C189.3 39.58 189.442 39.6333 189.538 39.74C189.634 39.8467 189.682 39.9773 189.682 40.132C189.682 40.316 189.616 40.468 189.482 40.588C189.352 40.7053 189.2 40.764 189.026 40.764ZM192.538 48.016C191.951 48.016 191.487 47.908 191.146 47.692C190.804 47.476 190.634 47.1467 190.634 46.704C190.634 46.5387 190.674 46.3907 190.754 46.26C190.834 46.132 190.932 46.024 191.05 45.936C191.167 45.848 191.282 45.7813 191.394 45.736L191.986 45.824C191.93 45.8747 191.867 45.928 191.798 45.984C191.728 46.04 191.667 46.1133 191.614 46.204C191.563 46.2973 191.538 46.4213 191.538 46.576C191.538 46.752 191.572 46.9013 191.642 47.024C191.711 47.1493 191.82 47.244 191.97 47.308C192.122 47.3747 192.322 47.408 192.57 47.408C192.799 47.408 193.011 47.3827 193.206 47.332C193.4 47.284 193.556 47.2093 193.674 47.108C193.791 47.0093 193.85 46.8853 193.85 46.736C193.85 46.5787 193.82 46.4453 193.762 46.336C193.706 46.2267 193.599 46.1427 193.442 46.084C193.287 46.028 193.06 46 192.762 46H192.322C192.17 46 192.035 45.9973 191.918 45.992C191.8 45.984 191.695 45.968 191.602 45.944C191.57 45.936 191.539 45.9227 191.51 45.904C191.48 45.8827 191.45 45.8667 191.418 45.856C191.218 45.7787 191.083 45.672 191.014 45.536C190.947 45.4 190.914 45.264 190.914 45.128C190.914 45.024 190.94 44.9187 190.994 44.812C191.05 44.7027 191.127 44.5987 191.226 44.5C191.327 44.3987 191.444 44.3093 191.578 44.232L192.15 44.376C192.054 44.4133 191.966 44.4787 191.886 44.572C191.808 44.6627 191.77 44.76 191.77 44.864C191.77 45.0267 191.808 45.1373 191.886 45.196C191.966 45.252 192.098 45.28 192.282 45.28H193.082C193.426 45.28 193.706 45.316 193.922 45.388C194.138 45.46 194.304 45.5573 194.422 45.68C194.539 45.8 194.619 45.9333 194.662 46.08C194.707 46.2293 194.73 46.3813 194.73 46.536C194.73 46.768 194.672 46.9747 194.558 47.156C194.443 47.34 194.284 47.496 194.082 47.624C193.879 47.752 193.646 47.8493 193.382 47.916C193.118 47.9827 192.836 48.016 192.538 48.016ZM192.51 44.48C192.176 44.48 191.876 44.4187 191.61 44.296C191.343 44.1707 191.132 43.9987 190.978 43.78C190.823 43.5587 190.746 43.304 190.746 43.016C190.746 42.6693 190.823 42.384 190.978 42.16C191.132 41.936 191.344 41.7693 191.614 41.66C191.883 41.5507 192.187 41.4933 192.526 41.488C192.856 41.48 193.159 41.528 193.434 41.632C193.708 41.736 193.927 41.8987 194.09 42.12C194.255 42.3387 194.338 42.6213 194.338 42.968C194.338 43.2933 194.259 43.5693 194.102 43.796C193.944 44.02 193.728 44.1907 193.454 44.308C193.179 44.4227 192.864 44.48 192.51 44.48ZM192.534 43.88C192.808 43.88 193.027 43.8187 193.19 43.696C193.352 43.5707 193.434 43.3373 193.434 42.996C193.434 42.7027 193.363 42.48 193.222 42.328C193.08 42.1733 192.866 42.096 192.578 42.096C192.412 42.096 192.259 42.12 192.118 42.168C191.976 42.216 191.863 42.304 191.778 42.432C191.692 42.56 191.65 42.7427 191.65 42.98C191.65 43.2227 191.719 43.4333 191.858 43.612C191.999 43.7907 192.224 43.88 192.534 43.88ZM193.846 42.24L193.594 41.868C193.652 41.7933 193.768 41.716 193.942 41.636C194.118 41.556 194.31 41.516 194.518 41.516H194.966V42.24H193.846ZM195.79 46V41.552H196.71V46H195.79ZM196.198 40.764C196.044 40.764 195.908 40.7147 195.79 40.616C195.676 40.5173 195.618 40.3827 195.618 40.212C195.618 40.0947 195.65 39.9893 195.714 39.896C195.781 39.8 195.865 39.724 195.966 39.668C196.068 39.6093 196.173 39.58 196.282 39.58C196.472 39.58 196.614 39.6333 196.71 39.74C196.806 39.8467 196.854 39.9773 196.854 40.132C196.854 40.316 196.788 40.468 196.654 40.588C196.524 40.7053 196.372 40.764 196.198 40.764ZM199.358 46.064C199.147 46.064 198.962 46.0307 198.802 45.964C198.642 45.8973 198.516 45.78 198.426 45.612C198.338 45.4413 198.294 45.2 198.294 44.888V42.224H197.718V41.728C197.915 41.672 198.066 41.6253 198.17 41.588C198.274 41.548 198.35 41.464 198.398 41.336C198.419 41.2773 198.443 41.208 198.47 41.128C198.496 41.0453 198.526 40.9547 198.558 40.856C198.59 40.7547 198.624 40.6453 198.662 40.528H199.214V41.544H200.462V42.224H199.214V44.4C199.214 44.688 199.226 44.8987 199.25 45.032C199.276 45.1627 199.324 45.2467 199.394 45.284C199.466 45.3187 199.571 45.336 199.71 45.336C199.784 45.336 199.87 45.328 199.966 45.312C200.064 45.2933 200.158 45.2707 200.246 45.244C200.336 45.2173 200.406 45.1893 200.454 45.16L200.606 45.688C200.526 45.7493 200.418 45.8093 200.282 45.868C200.148 45.924 200 45.9707 199.838 46.008C199.678 46.0453 199.518 46.064 199.358 46.064ZM202.557 46.064C202.29 46.064 202.053 46.012 201.845 45.908C201.639 45.8013 201.477 45.652 201.357 45.46C201.239 45.2653 201.181 45.036 201.181 44.772C201.181 44.4867 201.257 44.2453 201.409 44.048C201.563 43.848 201.77 43.692 202.029 43.58C202.199 43.5107 202.385 43.456 202.585 43.416C202.785 43.3733 202.985 43.344 203.185 43.328C203.385 43.3093 203.57 43.3 203.741 43.3L203.933 43.544L203.741 43.868C203.637 43.868 203.511 43.876 203.365 43.892C203.221 43.9053 203.078 43.928 202.937 43.96C202.795 43.9893 202.675 44.028 202.577 44.076C202.441 44.1373 202.327 44.216 202.237 44.312C202.146 44.408 202.101 44.5413 202.101 44.712C202.101 44.936 202.162 45.1053 202.285 45.22C202.41 45.3347 202.595 45.392 202.841 45.392C202.966 45.392 203.093 45.3733 203.221 45.336C203.349 45.2987 203.459 45.256 203.553 45.208C203.649 45.16 203.711 45.1187 203.741 45.084L203.925 45.28L203.793 45.624C203.675 45.7307 203.506 45.8307 203.285 45.924C203.063 46.0173 202.821 46.064 202.557 46.064ZM204.665 46H203.793V45.336H203.741V42.88C203.741 42.6187 203.671 42.4467 203.533 42.364C203.397 42.2787 203.202 42.236 202.949 42.236C202.781 42.236 202.607 42.2533 202.429 42.288C202.25 42.32 202.086 42.3613 201.937 42.412C201.787 42.46 201.673 42.5093 201.593 42.56L201.377 41.896C201.438 41.8587 201.555 41.8067 201.729 41.74C201.905 41.6733 202.109 41.6133 202.341 41.56C202.575 41.504 202.807 41.476 203.037 41.476C203.37 41.476 203.658 41.5147 203.901 41.592C204.146 41.6693 204.334 41.8133 204.465 42.024C204.598 42.232 204.665 42.5347 204.665 42.932V46ZM206.001 46V39.496H206.929V46H206.001Z" fill="white"/>
<path d="M8.7 35.33C7.66 35.33 6.73 35.24 5.91 35.06C5.09 34.88 4.19 34.64 3.21 34.34C2.61 34.12 2.16 34 1.86 33.98L2.1 28.55H4.02L4.53 32.45C4.87 32.77 5.42 33.06 6.18 33.32C6.96 33.56 7.81 33.68 8.73 33.68C10.25 33.68 11.4 33.34 12.18 32.66C12.98 31.98 13.38 31.04 13.38 29.84C13.38 29.06 13.16 28.39 12.72 27.83C12.3 27.27 11.73 26.79 11.01 26.39C10.31 25.99 9.34 25.52 8.1 24.98C6.98 24.48 6 23.97 5.16 23.45C4.34 22.93 3.62 22.24 3 21.38C2.4 20.5 2.1 19.45 2.1 18.23C2.1 17.13 2.39 16.15 2.97 15.29C3.57 14.41 4.42 13.72 5.52 13.22C6.64 12.72 7.94 12.47 9.42 12.47C10.34 12.47 11.15 12.54 11.85 12.68C12.57 12.82 13.38 13.01 14.28 13.25C14.68 13.39 15.02 13.48 15.3 13.52L15.12 18.56H13.29L12.69 14.87C12.49 14.67 12.07 14.48 11.43 14.3C10.81 14.12 10.13 14.03 9.39 14.03C8.01 14.03 6.96 14.32 6.24 14.9C5.54 15.48 5.19 16.32 5.19 17.42C5.19 18.22 5.4 18.89 5.82 19.43C6.26 19.97 6.8 20.43 7.44 20.81C8.08 21.19 9.1 21.71 10.5 22.37C11.8 22.99 12.86 23.55 13.68 24.05C14.5 24.55 15.2 25.21 15.78 26.03C16.38 26.83 16.68 27.79 16.68 28.91C16.68 29.97 16.38 30.99 15.78 31.97C15.2 32.95 14.3 33.76 13.08 34.4C11.88 35.02 10.42 35.33 8.7 35.33ZM22.7025 15.35C22.0625 15.35 21.5825 15.17 21.2625 14.81C20.9425 14.45 20.7825 13.99 20.7825 13.43C20.7825 12.79 20.9725 12.26 21.3525 11.84C21.7525 11.42 22.2925 11.21 22.9725 11.21C23.6525 11.21 24.1525 11.39 24.4725 11.75C24.7925 12.11 24.9525 12.57 24.9525 13.13C24.9525 13.81 24.7525 14.35 24.3525 14.75C23.9725 15.15 23.4325 15.35 22.7325 15.35H22.7025ZM21.5025 20.66L19.2225 20.12V18.53L23.8725 17.96H23.9325L24.6225 18.5V33.29L27.0225 33.53V35H19.0725V33.53L21.5025 33.26V20.66ZM29.1227 33.53L30.9527 33.26V20.66L28.7927 20.12V18.5L33.0827 17.96L33.6227 18.35L33.8027 19.55L33.7727 20.51C34.4727 19.87 35.4227 19.29 36.6227 18.77C37.8427 18.23 38.9327 17.96 39.8927 17.96C40.9727 17.96 41.8427 18.14 42.5027 18.5C43.1627 18.86 43.6627 19.42 44.0027 20.18C44.6427 19.64 45.5327 19.14 46.6727 18.68C47.8327 18.2 48.9127 17.96 49.9127 17.96C51.1527 17.96 52.1227 18.2 52.8227 18.68C53.5227 19.14 54.0127 19.87 54.2927 20.87C54.5927 21.85 54.7427 23.17 54.7427 24.83V33.26L56.9027 33.53V35H49.7627V33.53L51.6227 33.26V24.92C51.6227 23.76 51.5327 22.84 51.3527 22.16C51.1927 21.46 50.8727 20.94 50.3927 20.6C49.9327 20.26 49.2627 20.09 48.3827 20.09C47.7227 20.09 47.0227 20.24 46.2827 20.54C45.5427 20.82 44.9127 21.16 44.3927 21.56C44.5727 22.34 44.6627 23.45 44.6627 24.89V33.26L46.7927 33.53V35H39.5327V33.53L41.5127 33.26V24.86C41.5127 23.66 41.4327 22.73 41.2727 22.07C41.1327 21.41 40.8527 20.92 40.4327 20.6C40.0127 20.26 39.3727 20.09 38.5127 20.09C37.7927 20.09 37.0227 20.27 36.2027 20.63C35.4027 20.99 34.7027 21.41 34.1027 21.89V33.26L36.1127 33.53V35H29.1227V33.53ZM75.2363 26.09C75.2363 27.79 74.8863 29.35 74.1862 30.77C73.4863 32.17 72.4863 33.28 71.1863 34.1C69.8863 34.92 68.3663 35.33 66.6263 35.33C66.1463 35.33 65.6263 35.29 65.0663 35.21C64.5063 35.13 64.0563 35.03 63.7163 34.91L63.8063 37.43V40.46L66.9263 40.79V42.26H58.5563V40.79L60.7163 40.46V20.66L58.5263 20.12V18.5L62.7863 17.96H62.8463L63.4763 18.5V20.27C64.0763 19.61 64.8163 19.05 65.6963 18.59C66.5963 18.13 67.5963 17.9 68.6963 17.9C69.8763 17.9 70.9563 18.19 71.9363 18.77C72.9363 19.35 73.7363 20.25 74.3363 21.47C74.9363 22.69 75.2363 24.23 75.2363 26.09ZM67.4663 20C66.7063 20 65.9963 20.16 65.3363 20.48C64.6763 20.8 64.1663 21.15 63.8063 21.53V32.84C63.9463 33.08 64.2963 33.3 64.8563 33.5C65.4363 33.68 66.0663 33.77 66.7463 33.77C68.2863 33.77 69.5263 33.16 70.4663 31.94C71.4263 30.72 71.9063 28.88 71.9063 26.42C71.9063 24.26 71.4863 22.65 70.6463 21.59C69.8263 20.53 68.7663 20 67.4663 20ZM80.0341 12.62L77.6041 12.29V11L82.4341 10.43H82.4941L83.1541 10.88V33.29L85.7041 33.53V35H77.6041V33.53L80.0341 33.26V12.62ZM90.2644 42.47C89.9244 42.47 89.5844 42.45 89.2444 42.41C88.9244 42.37 88.6944 42.31 88.5544 42.23V39.62C88.6744 39.7 88.9044 39.76 89.2444 39.8C89.6044 39.84 89.9444 39.86 90.2644 39.86C91.2244 39.86 92.0644 39.52 92.7844 38.84C93.5244 38.18 94.2344 36.9 94.9144 35H93.4744L87.7744 20.15L86.3944 19.76V18.35H93.6244V19.76L91.3144 20.12L94.2544 28.97L95.6344 33.35L96.9244 28.94L99.5944 20.12L97.5844 19.76V18.35H103.614V19.76L102.114 20.12C99.1744 29.12 97.4444 34.23 96.9244 35.45C96.2444 37.17 95.6244 38.51 95.0644 39.47C94.5044 40.45 93.8444 41.19 93.0844 41.69C92.3244 42.21 91.3844 42.47 90.2644 42.47ZM119.471 35.33C118.431 35.33 117.501 35.24 116.681 35.06C115.861 34.88 114.961 34.64 113.981 34.34C113.381 34.12 112.931 34 112.631 33.98L112.871 28.55H114.791L115.301 32.45C115.641 32.77 116.191 33.06 116.951 33.32C117.731 33.56 118.581 33.68 119.501 33.68C121.021 33.68 122.171 33.34 122.951 32.66C123.751 31.98 124.151 31.04 124.151 29.84C124.151 29.06 123.931 28.39 123.491 27.83C123.071 27.27 122.501 26.79 121.781 26.39C121.081 25.99 120.111 25.52 118.871 24.98C117.751 24.48 116.771 23.97 115.931 23.45C115.111 22.93 114.391 22.24 113.771 21.38C113.171 20.5 112.871 19.45 112.871 18.23C112.871 17.13 113.161 16.15 113.741 15.29C114.341 14.41 115.191 13.72 116.291 13.22C117.411 12.72 118.711 12.47 120.191 12.47C121.111 12.47 121.921 12.54 122.621 12.68C123.341 12.82 124.151 13.01 125.051 13.25C125.451 13.39 125.791 13.48 126.071 13.52L125.891 18.56H124.061L123.461 14.87C123.261 14.67 122.841 14.48 122.201 14.3C121.581 14.12 120.901 14.03 120.161 14.03C118.781 14.03 117.731 14.32 117.011 14.9C116.311 15.48 115.961 16.32 115.961 17.42C115.961 18.22 116.171 18.89 116.591 19.43C117.031 19.97 117.571 20.43 118.211 20.81C118.851 21.19 119.871 21.71 121.271 22.37C122.571 22.99 123.631 23.55 124.451 24.05C125.271 24.55 125.971 25.21 126.551 26.03C127.151 26.83 127.451 27.79 127.451 28.91C127.451 29.97 127.151 30.99 126.551 31.97C125.971 32.95 125.071 33.76 123.851 34.4C122.651 35.02 121.191 35.33 119.471 35.33ZM135.064 35.3C133.924 35.3 133.074 35.04 132.514 34.52C131.954 34 131.674 33.11 131.674 31.85V20.33H129.514V18.98C129.614 18.96 129.894 18.89 130.354 18.77C130.814 18.65 131.124 18.54 131.284 18.44C131.604 18.26 131.854 17.9 132.034 17.36C132.194 16.98 132.384 16.37 132.604 15.53C132.824 14.69 132.954 14.19 132.994 14.03H134.764L134.824 18.35H139.834V20.33H134.824V29.54C134.824 30.68 134.854 31.48 134.914 31.94C134.994 32.4 135.144 32.7 135.364 32.84C135.604 32.98 136.004 33.05 136.564 33.05C137.104 33.05 137.694 32.98 138.334 32.84C138.994 32.7 139.504 32.55 139.864 32.39L140.314 33.74C139.834 34.1 139.054 34.45 137.974 34.79C136.914 35.13 135.944 35.3 135.064 35.3ZM149.531 35.33C147.111 35.33 145.261 34.54 143.981 32.96C142.721 31.38 142.091 29.27 142.091 26.63C142.091 24.89 142.421 23.36 143.081 22.04C143.741 20.72 144.661 19.7 145.841 18.98C147.041 18.26 148.401 17.9 149.921 17.9C151.781 17.9 153.221 18.42 154.241 19.46C155.281 20.48 155.831 21.95 155.891 23.87C155.891 25.09 155.821 26.02 155.681 26.66H145.361C145.401 28.64 145.861 30.24 146.741 31.46C147.621 32.66 148.871 33.26 150.491 33.26C151.291 33.26 152.121 33.12 152.981 32.84C153.861 32.54 154.541 32.19 155.021 31.79L155.591 33.11C155.011 33.71 154.151 34.23 153.011 34.67C151.871 35.11 150.711 35.33 149.531 35.33ZM152.591 25.07C152.651 24.65 152.681 24.22 152.681 23.78C152.661 22.48 152.381 21.46 151.841 20.72C151.321 19.96 150.491 19.58 149.351 19.58C148.191 19.58 147.261 20 146.561 20.84C145.881 21.68 145.491 23.09 145.391 25.07H152.591ZM160.659 12.62L158.229 12.29V11L163.059 10.43H163.119L163.779 10.88V33.29L166.329 33.53V35H158.229V33.53L160.659 33.26V12.62ZM170.649 12.62L168.219 12.29V11L173.049 10.43H173.109L173.769 10.88V33.29L176.319 33.53V35H168.219V33.53L170.649 33.26V12.62ZM178.45 30.5C178.45 28.62 179.39 27.24 181.27 26.36C183.15 25.46 185.53 24.98 188.41 24.92V24.08C188.41 23.14 188.31 22.4 188.11 21.86C187.91 21.32 187.56 20.93 187.06 20.69C186.58 20.43 185.89 20.3 184.99 20.3C183.97 20.3 183.05 20.45 182.23 20.75C181.43 21.03 180.63 21.38 179.83 21.8L179.08 20.24C179.34 20.02 179.82 19.73 180.52 19.37C181.22 19.01 182.03 18.69 182.95 18.41C183.87 18.13 184.79 17.99 185.71 17.99C187.13 17.99 188.25 18.19 189.07 18.59C189.91 18.97 190.51 19.59 190.87 20.45C191.23 21.31 191.41 22.46 191.41 23.9V33.53H193.18V34.85C192.78 34.95 192.27 35.05 191.65 35.15C191.05 35.25 190.52 35.3 190.06 35.3C189.5 35.3 189.12 35.21 188.92 35.03C188.72 34.87 188.62 34.5 188.62 33.92V32.93C188.02 33.53 187.28 34.08 186.4 34.58C185.54 35.08 184.56 35.33 183.46 35.33C182.02 35.33 180.82 34.92 179.86 34.1C178.92 33.26 178.45 32.06 178.45 30.5ZM184.75 33.29C185.27 33.29 185.87 33.13 186.55 32.81C187.23 32.49 187.85 32.11 188.41 31.67V26.51C186.23 26.51 184.58 26.85 183.46 27.53C182.36 28.19 181.81 29.06 181.81 30.14C181.81 31.22 182.07 32.02 182.59 32.54C183.13 33.04 183.85 33.29 184.75 33.29ZM195.326 33.53L197.576 33.35V20.66L195.416 20.12V18.5L199.556 17.96H199.616L200.276 18.5V19.04L200.186 21.38H200.276C200.476 21.04 200.836 20.6 201.356 20.06C201.876 19.52 202.546 19.03 203.366 18.59C204.186 18.13 205.076 17.9 206.036 17.9C206.436 17.9 206.766 17.95 207.026 18.05V21.41C206.886 21.31 206.656 21.22 206.336 21.14C206.036 21.04 205.696 20.99 205.316 20.99C203.656 20.99 202.116 21.5 200.696 22.52V33.32L204.506 33.56V35H195.326V33.53Z" fill="white"/>
<path d="M5.91 35.06L6.12441 34.0833L6.12441 34.0833L5.91 35.06ZM3.21 34.34L2.86575 35.2789L2.89128 35.2882L2.91729 35.2962L3.21 34.34ZM1.86 33.98L0.860975 33.9358L0.817798 34.9127L1.79348 34.9778L1.86 33.98ZM2.1 28.55V27.55H1.14322L1.10098 28.5058L2.1 28.55ZM4.02 28.55L5.01156 28.4203L4.89774 27.55H4.02V28.55ZM4.53 32.45L3.53844 32.5797L3.58472 32.9336L3.84464 33.1782L4.53 32.45ZM6.18 33.32L5.85631 34.2662L5.87104 34.2712L5.88591 34.2758L6.18 33.32ZM12.18 32.66L11.5323 31.898L11.5229 31.9062L12.18 32.66ZM12.72 27.83L11.92 28.43L11.9267 28.439L11.9337 28.4478L12.72 27.83ZM11.01 26.39L10.5138 27.2583L10.5244 27.2642L11.01 26.39ZM8.1 24.98L7.69233 25.8932L7.70073 25.8968L8.1 24.98ZM5.16 23.45L4.62443 24.2946L4.63365 24.3003L5.16 23.45ZM3 21.38L2.17377 21.9433L2.18116 21.9542L2.18882 21.9648L3 21.38ZM2.97 15.29L2.14376 14.7267L2.14093 14.7309L2.97 15.29ZM5.52 13.22L5.11234 12.3068L5.1062 12.3096L5.52 13.22ZM11.85 12.68L11.6539 13.6606L11.6591 13.6616L11.85 12.68ZM14.28 13.25L14.6103 12.3061L14.5744 12.2936L14.5377 12.2838L14.28 13.25ZM15.3 13.52L16.2994 13.5557L16.3315 12.6572L15.4414 12.5301L15.3 13.52ZM15.12 18.56V19.56H16.0849L16.1194 18.5957L15.12 18.56ZM13.29 18.56L12.303 18.7205L12.4395 19.56H13.29V18.56ZM12.69 14.87L13.677 14.7095L13.6253 14.391L13.3971 14.1629L12.69 14.87ZM11.43 14.3L11.1512 15.2604L11.1593 15.2626L11.43 14.3ZM6.24 14.9L5.61261 14.1212L5.60198 14.13L6.24 14.9ZM5.82 19.43L5.03065 20.0439L5.03761 20.0529L5.04476 20.0617L5.82 19.43ZM7.44 20.81L7.95054 19.9501L7.95054 19.9501L7.44 20.81ZM10.5 22.37L10.9305 21.4674L10.9264 21.4655L10.5 22.37ZM13.68 24.05L14.2006 23.1962L14.2006 23.1962L13.68 24.05ZM15.78 26.03L14.9636 26.6075L14.9716 26.6188L14.98 26.63L15.78 26.03ZM15.78 31.97L14.9271 31.4478L14.9232 31.4542L14.9194 31.4607L15.78 31.97ZM13.08 34.4L13.539 35.2884L13.5446 35.2855L13.08 34.4ZM8.7 34.33C7.71576 34.33 6.85964 34.2446 6.12441 34.0833L5.69559 36.0367C6.60036 36.2354 7.60424 36.33 8.7 36.33V34.33ZM6.12441 34.0833C5.33577 33.9101 4.46229 33.6775 3.50271 33.3838L2.91729 35.2962C3.91771 35.6025 4.84424 35.8499 5.69559 36.0367L6.12441 34.0833ZM3.55425 33.4011C2.94191 33.1766 2.37827 33.0123 1.92652 32.9822L1.79348 34.9778C1.94173 34.9877 2.27809 35.0634 2.86575 35.2789L3.55425 33.4011ZM2.85902 34.0242L3.09902 28.5942L1.10098 28.5058L0.860975 33.9358L2.85902 34.0242ZM2.1 29.55H4.02V27.55H2.1V29.55ZM3.02844 28.6797L3.53844 32.5797L5.52156 32.3203L5.01156 28.4203L3.02844 28.6797ZM3.84464 33.1782C4.33753 33.6421 5.04507 33.9886 5.85631 34.2662L6.50369 32.3738C5.79493 32.1314 5.40247 31.8979 5.21536 31.7218L3.84464 33.1782ZM5.88591 34.2758C6.77244 34.5486 7.72281 34.68 8.73 34.68V32.68C7.89719 32.68 7.14756 32.5714 6.47409 32.3642L5.88591 34.2758ZM8.73 34.68C10.3809 34.68 11.8061 34.3127 12.8371 33.4138L11.5229 31.9062C10.9939 32.3673 10.1191 32.68 8.73 32.68V34.68ZM12.8276 33.4219C13.8845 32.5236 14.38 31.2866 14.38 29.84H12.38C12.38 30.7934 12.0755 31.4364 11.5324 31.8981L12.8276 33.4219ZM14.38 29.84C14.38 28.8586 14.0981 27.9654 13.5063 27.2122L11.9337 28.4478C12.2219 28.8146 12.38 29.2614 12.38 29.84H14.38ZM13.52 27.23C13.0021 26.5394 12.3171 25.9722 11.4956 25.5158L10.5244 27.2642C11.1429 27.6078 11.5979 28.0006 11.92 28.43L13.52 27.23ZM11.5061 25.5218C10.7608 25.0959 9.75348 24.6094 8.49927 24.0632L7.70073 25.8968C8.92653 26.4306 9.85916 26.8841 10.5139 27.2582L11.5061 25.5218ZM8.50765 24.0669C7.41926 23.581 6.48044 23.0913 5.68635 22.5997L4.63365 24.3003C5.51956 24.8487 6.54074 25.379 7.69235 25.8931L8.50765 24.0669ZM5.69554 22.6055C4.99262 22.1597 4.36355 21.5614 3.81118 20.7952L2.18882 21.9648C2.87645 22.9186 3.68738 23.7003 4.62446 24.2945L5.69554 22.6055ZM3.82623 20.8167C3.35532 20.126 3.1 19.2792 3.1 18.23H1.1C1.1 19.6208 1.44468 20.874 2.17377 21.9433L3.82623 20.8167ZM3.1 18.23C3.1 17.3166 3.33737 16.5337 3.79907 15.8491L2.14093 14.7309C1.44263 15.7663 1.1 16.9434 1.1 18.23H3.1ZM3.79623 15.8533C4.27979 15.1441 4.97753 14.565 5.9338 14.1304L5.1062 12.3096C3.86247 12.875 2.86021 13.6759 2.14377 14.7267L3.79623 15.8533ZM5.92765 14.1331C6.8957 13.701 8.05201 13.47 9.42 13.47V11.47C7.82799 11.47 6.3843 11.739 5.11235 12.3069L5.92765 14.1331ZM9.42 13.47C10.2919 13.47 11.0338 13.5366 11.6539 13.6606L12.0461 11.6994C11.2662 11.5434 10.3881 11.47 9.42 11.47V13.47ZM11.6591 13.6616C12.3517 13.7963 13.1389 13.9806 14.0223 14.2162L14.5377 12.2838C13.6211 12.0394 12.7883 11.8437 12.0409 11.6984L11.6591 13.6616ZM13.9497 14.1939C14.3839 14.3458 14.791 14.4574 15.1586 14.5099L15.4414 12.5301C15.249 12.5026 14.9761 12.4342 14.6103 12.3061L13.9497 14.1939ZM14.3006 13.4843L14.1206 18.5243L16.1194 18.5957L16.2994 13.5557L14.3006 13.4843ZM15.12 17.56H13.29V19.56H15.12V17.56ZM14.277 18.3995L13.677 14.7095L11.703 15.0305L12.303 18.7205L14.277 18.3995ZM13.3971 14.1629C13.1751 13.9409 12.8967 13.7838 12.6372 13.6664C12.3662 13.5438 12.0499 13.4356 11.7007 13.3373L11.1593 15.2626C11.4501 15.3444 11.6638 15.4212 11.8128 15.4886C11.9733 15.5612 12.0049 15.5991 11.9829 15.5771L13.3971 14.1629ZM11.7088 13.3397C10.9861 13.1298 10.2108 13.03 9.39 13.03V15.03C10.0492 15.03 10.6339 15.1102 11.1512 15.2603L11.7088 13.3397ZM9.39 13.03C7.88978 13.03 6.57941 13.3425 5.61267 14.1212L6.86733 15.6788C7.3406 15.2975 8.13022 15.03 9.39 15.03V13.03ZM5.60198 14.13C4.62447 14.9399 4.19 16.0911 4.19 17.42H6.19C6.19 16.5489 6.45553 16.0201 6.87802 15.67L5.60198 14.13ZM4.19 17.42C4.19 18.4031 4.45185 19.2998 5.03065 20.0439L6.60935 18.8161C6.34815 18.4802 6.19 18.0369 6.19 17.42H4.19ZM5.04476 20.0617C5.56387 20.6988 6.19548 21.2341 6.92946 21.6699L7.95054 19.9501C7.40452 19.6259 6.95613 19.2412 6.59524 18.7983L5.04476 20.0617ZM6.92946 21.6699C7.61259 22.0755 8.66856 22.6122 10.0736 23.2745L10.9264 21.4655C9.53144 20.8078 8.54741 20.3045 7.95054 19.9501L6.92946 21.6699ZM10.0695 23.2726C11.3523 23.8844 12.3791 24.428 13.1594 24.9038L14.2006 23.1962C13.3409 22.672 12.2477 22.0956 10.9305 21.4674L10.0695 23.2726ZM13.1594 24.9038C13.8577 25.3296 14.4586 25.8936 14.9636 26.6075L16.5964 25.4525C15.9414 24.5264 15.1423 23.7704 14.2006 23.1962L13.1594 24.9038ZM14.98 26.63C15.4347 27.2363 15.68 27.9791 15.68 28.91H17.68C17.68 27.6009 17.3253 26.4237 16.58 25.43L14.98 26.63ZM15.68 28.91C15.68 29.7703 15.4393 30.6113 14.9271 31.4478L16.6329 32.4922C17.3207 31.3687 17.68 30.1697 17.68 28.91H15.68ZM14.9194 31.4607C14.4521 32.2503 13.7057 32.9425 12.6155 33.5145L13.5446 35.2855C14.8943 34.5775 15.9479 33.6497 16.6406 32.4793L14.9194 31.4607ZM12.621 33.5116C11.5964 34.041 10.3028 34.33 8.7 34.33V36.33C10.5372 36.33 12.1636 35.999 13.539 35.2884L12.621 33.5116ZM21.2625 14.81L20.5151 15.4744L20.5151 15.4744L21.2625 14.81ZM21.3525 11.84L20.6284 11.1503L20.6195 11.1596L20.611 11.1691L21.3525 11.84ZM24.4725 11.75L25.2199 11.0856L25.2199 11.0856L24.4725 11.75ZM24.3525 14.75L23.6454 14.0429L23.6363 14.052L23.6275 14.0612L24.3525 14.75ZM21.5025 20.66H22.5025V19.8692L21.733 19.6869L21.5025 20.66ZM19.2225 20.12H18.2225V20.9108L18.992 21.0931L19.2225 20.12ZM19.2225 18.53L19.1008 17.5374L18.2225 17.6451V18.53H19.2225ZM23.8725 17.96V16.96H23.8114L23.7508 16.9674L23.8725 17.96ZM23.9325 17.96L24.5488 17.1725L24.2773 16.96H23.9325V17.96ZM24.6225 18.5H25.6225V18.0128L25.2388 17.7125L24.6225 18.5ZM24.6225 33.29H23.6225V34.195L24.523 34.285L24.6225 33.29ZM27.0225 33.53H28.0225V32.625L27.122 32.535L27.0225 33.53ZM27.0225 35V36H28.0225V35H27.0225ZM19.0725 35H18.0725V36H19.0725V35ZM19.0725 33.53L18.9621 32.5361L18.0725 32.635V33.53H19.0725ZM21.5025 33.26L21.6129 34.2539L22.5025 34.155V33.26H21.5025ZM22.7025 14.35C22.2492 14.35 22.083 14.2279 22.0099 14.1456L20.5151 15.4744C21.082 16.1121 21.8758 16.35 22.7025 16.35V14.35ZM22.0099 14.1456C21.8787 13.998 21.7825 13.7874 21.7825 13.43H19.7825C19.7825 14.1926 20.0063 14.902 20.5151 15.4744L22.0099 14.1456ZM21.7825 13.43C21.7825 13.0033 21.9022 12.7229 22.094 12.5109L20.611 11.1691C20.0428 11.7971 19.7825 12.5767 19.7825 13.43H21.7825ZM22.0766 12.5297C22.2552 12.3421 22.5149 12.21 22.9725 12.21V10.21C22.0701 10.21 21.2498 10.4979 20.6284 11.1503L22.0766 12.5297ZM22.9725 12.21C23.4881 12.21 23.6628 12.3442 23.7251 12.4144L25.2199 11.0856C24.6422 10.4358 23.8169 10.21 22.9725 10.21V12.21ZM23.7251 12.4144C23.8563 12.562 23.9525 12.7726 23.9525 13.13H25.9525C25.9525 12.3674 25.7287 11.658 25.2199 11.0856L23.7251 12.4144ZM23.9525 13.13C23.9525 13.6021 23.8209 13.8674 23.6454 14.0429L25.0596 15.4571C25.6841 14.8326 25.9525 14.0179 25.9525 13.13H23.9525ZM23.6275 14.0612C23.484 14.2123 23.2364 14.35 22.7325 14.35V16.35C23.6286 16.35 24.461 16.0877 25.0775 15.4387L23.6275 14.0612ZM22.7325 14.35H22.7025V16.35H22.7325V14.35ZM21.733 19.6869L19.453 19.1469L18.992 21.0931L21.272 21.6331L21.733 19.6869ZM20.2225 20.12V18.53H18.2225V20.12H20.2225ZM19.3442 19.5226L23.9942 18.9526L23.7508 16.9674L19.1008 17.5374L19.3442 19.5226ZM23.8725 18.96H23.9325V16.96H23.8725V18.96ZM23.3162 18.7475L24.0062 19.2875L25.2388 17.7125L24.5488 17.1725L23.3162 18.7475ZM23.6225 18.5V33.29H25.6225V18.5H23.6225ZM24.523 34.285L26.923 34.525L27.122 32.535L24.722 32.295L24.523 34.285ZM26.0225 33.53V35H28.0225V33.53H26.0225ZM27.0225 34H19.0725V36H27.0225V34ZM20.0725 35V33.53H18.0725V35H20.0725ZM19.1829 34.5239L21.6129 34.2539L21.3921 32.2661L18.9621 32.5361L19.1829 34.5239ZM22.5025 33.26V20.66H20.5025V33.26H22.5025ZM29.1227 33.53L28.9768 32.5407L28.1227 32.6667V33.53H29.1227ZM30.9527 33.26L31.0987 34.2493L31.9527 34.1233V33.26H30.9527ZM30.9527 20.66H31.9527V19.8792L31.1953 19.6899L30.9527 20.66ZM28.7927 20.12H27.7927V20.9008L28.5502 21.0901L28.7927 20.12ZM28.7927 18.5L28.6678 17.5078L27.7927 17.618V18.5H28.7927ZM33.0827 17.96L33.6682 17.1493L33.3488 16.9186L32.9578 16.9678L33.0827 17.96ZM33.6227 18.35L34.6117 18.2017L34.5493 17.7856L34.2082 17.5393L33.6227 18.35ZM33.8027 19.55L34.8022 19.5812L34.8051 19.491L34.7917 19.4017L33.8027 19.55ZM33.7727 20.51L32.7732 20.4788L32.6992 22.8464L34.4475 21.248L33.7727 20.51ZM36.6227 18.77L37.0204 19.6876L37.0275 19.6844L36.6227 18.77ZM42.5027 18.5L42.9816 17.6221L42.5027 18.5ZM44.0027 20.18L43.0899 20.5884L43.6324 21.8009L44.6476 20.9443L44.0027 20.18ZM46.6727 18.68L47.0469 19.6074L47.0551 19.604L46.6727 18.68ZM52.8227 18.68L52.2572 19.5047L52.2653 19.5103L52.2736 19.5157L52.8227 18.68ZM54.2927 20.87L53.3298 21.1396L53.333 21.1512L53.3365 21.1627L54.2927 20.87ZM54.7427 33.26H53.7427V34.1428L54.6187 34.2523L54.7427 33.26ZM56.9027 33.53H57.9027V32.6472L57.0268 32.5377L56.9027 33.53ZM56.9027 35V36H57.9027V35H56.9027ZM49.7627 35H48.7627V36H49.7627V35ZM49.7627 33.53L49.6191 32.5404L48.7627 32.6647V33.53H49.7627ZM51.6227 33.26L51.7664 34.2496L52.6227 34.1253V33.26H51.6227ZM51.3527 22.16L50.3779 22.3828L50.3817 22.3994L50.386 22.4159L51.3527 22.16ZM50.3927 20.6L49.7983 21.4042L49.8065 21.4102L49.8147 21.416L50.3927 20.6ZM46.2827 20.54L46.6366 21.4753L46.6476 21.4711L46.6584 21.4667L46.2827 20.54ZM44.3927 21.56L43.783 20.7674L43.2739 21.159L43.4183 21.7849L44.3927 21.56ZM44.6627 33.26H43.6627V34.1412L44.537 34.2521L44.6627 33.26ZM46.7927 33.53H47.7927V32.6488L46.9185 32.5379L46.7927 33.53ZM46.7927 35V36H47.7927V35H46.7927ZM39.5327 35H38.5327V36H39.5327V35ZM39.5327 33.53L39.3976 32.5392L38.5327 32.6571V33.53H39.5327ZM41.5127 33.26L41.6478 34.2508L42.5127 34.1329V33.26H41.5127ZM41.2727 22.07L40.2945 22.2775L40.2975 22.2916L40.3009 22.3056L41.2727 22.07ZM40.4327 20.6L39.8035 21.3772L39.815 21.3865L39.8267 21.3954L40.4327 20.6ZM36.2027 20.63L35.8007 19.7143L35.7924 19.7181L36.2027 20.63ZM34.1027 21.89L33.478 21.1091L33.1027 21.4094V21.89H34.1027ZM34.1027 33.26H33.1027V34.1347L33.9696 34.2511L34.1027 33.26ZM36.1127 33.53H37.1127V32.6553L36.2459 32.5389L36.1127 33.53ZM36.1127 35V36H37.1127V35H36.1127ZM29.1227 35H28.1227V36H29.1227V35ZM29.2687 34.5193L31.0987 34.2493L30.8068 32.2707L28.9768 32.5407L29.2687 34.5193ZM31.9527 33.26V20.66H29.9527V33.26H31.9527ZM31.1953 19.6899L29.0353 19.1499L28.5502 21.0901L30.7102 21.6301L31.1953 19.6899ZM29.7927 20.12V18.5H27.7927V20.12H29.7927ZM28.9176 19.4922L33.2076 18.9522L32.9578 16.9678L28.6678 17.5078L28.9176 19.4922ZM32.4972 18.7707L33.0372 19.1607L34.2082 17.5393L33.6682 17.1493L32.4972 18.7707ZM32.6338 18.4983L32.8138 19.6983L34.7917 19.4017L34.6117 18.2017L32.6338 18.4983ZM32.8032 19.5188L32.7732 20.4788L34.7722 20.5412L34.8022 19.5812L32.8032 19.5188ZM34.4475 21.248C35.0412 20.7052 35.8863 20.179 37.0203 19.6876L36.2251 17.8524C34.9591 18.401 33.9042 19.0348 33.098 19.772L34.4475 21.248ZM37.0275 19.6844C38.1665 19.1803 39.1153 18.96 39.8927 18.96V16.96C38.7502 16.96 37.519 17.2797 36.218 17.8556L37.0275 19.6844ZM39.8927 18.96C40.8738 18.96 41.561 19.1254 42.0239 19.3779L42.9816 17.6221C42.1245 17.1546 41.0716 16.96 39.8927 16.96V18.96ZM42.0239 19.3779C42.471 19.6218 42.8292 20.0055 43.0899 20.5884L44.9156 19.7716C44.4963 18.8345 43.8544 18.0982 42.9816 17.6221L42.0239 19.3779ZM44.6476 20.9443C45.1783 20.4966 45.9636 20.0445 47.0469 19.6073L46.2985 17.7526C45.1018 18.2355 44.1072 18.7834 43.3579 19.4157L44.6476 20.9443ZM47.0551 19.604C48.1237 19.1618 49.0728 18.96 49.9127 18.96V16.96C48.7527 16.96 47.5418 17.2382 46.2904 17.756L47.0551 19.604ZM49.9127 18.96C51.0393 18.96 51.7842 19.1804 52.2572 19.5047L53.3883 17.8553C52.4613 17.2196 51.2661 16.96 49.9127 16.96V18.96ZM52.2736 19.5157C52.7267 19.8135 53.0987 20.3142 53.3298 21.1396L55.2557 20.6004C54.9268 19.4258 54.3187 18.4665 53.3719 17.8443L52.2736 19.5157ZM53.3365 21.1627C53.5952 22.0076 53.7427 23.2159 53.7427 24.83H55.7427C55.7427 23.1241 55.5903 21.6924 55.2489 20.5773L53.3365 21.1627ZM53.7427 24.83V33.26H55.7427V24.83H53.7427ZM54.6187 34.2523L56.7787 34.5223L57.0268 32.5377L54.8668 32.2677L54.6187 34.2523ZM55.9027 33.53V35H57.9027V33.53H55.9027ZM56.9027 34H49.7627V36H56.9027V34ZM50.7627 35V33.53H48.7627V35H50.7627ZM49.9064 34.5196L51.7664 34.2496L51.4791 32.2704L49.6191 32.5404L49.9064 34.5196ZM52.6227 33.26V24.92H50.6227V33.26H52.6227ZM52.6227 24.92C52.6227 23.7217 52.5312 22.704 52.3194 21.9041L50.386 22.4159C50.5343 22.976 50.6227 23.7983 50.6227 24.92H52.6227ZM52.3276 21.9372C52.1254 21.0528 51.6935 20.2959 50.9708 19.784L49.8147 21.416C50.052 21.5841 50.26 21.8672 50.3779 22.3828L52.3276 21.9372ZM50.9871 19.7958C50.2847 19.2766 49.3685 19.09 48.3827 19.09V21.09C49.157 21.09 49.5808 21.2434 49.7983 21.4042L50.9871 19.7958ZM48.3827 19.09C47.57 19.09 46.742 19.2748 45.907 19.6133L46.6584 21.4667C47.3035 21.2052 47.8755 21.09 48.3827 21.09V19.09ZM45.9288 19.6047C45.1153 19.9126 44.3949 20.2967 43.783 20.7674L45.0024 22.3526C45.4306 22.0233 45.9702 21.7274 46.6366 21.4753L45.9288 19.6047ZM43.4183 21.7849C43.5729 22.4547 43.6627 23.4759 43.6627 24.89H45.6627C45.6627 23.4241 45.5725 22.2253 45.3671 21.3351L43.4183 21.7849ZM43.6627 24.89V33.26H45.6627V24.89H43.6627ZM44.537 34.2521L46.667 34.5221L46.9185 32.5379L44.7885 32.2679L44.537 34.2521ZM45.7927 33.53V35H47.7927V33.53H45.7927ZM46.7927 34H39.5327V36H46.7927V34ZM40.5327 35V33.53H38.5327V35H40.5327ZM39.6678 34.5208L41.6478 34.2508L41.3776 32.2692L39.3976 32.5392L39.6678 34.5208ZM42.5127 33.26V24.86H40.5127V33.26H42.5127ZM42.5127 24.86C42.5127 23.6312 42.4323 22.6087 42.2446 21.8344L40.3009 22.3056C40.4332 22.8512 40.5127 23.6888 40.5127 24.86H42.5127ZM42.251 21.8625C42.0754 21.035 41.6973 20.3063 41.0388 19.8046L39.8267 21.3954C40.0082 21.5337 40.19 21.785 40.2945 22.2775L42.251 21.8625ZM41.0619 19.8228C40.3854 19.2751 39.4749 19.09 38.5127 19.09V21.09C39.2706 21.09 39.64 21.2449 39.8035 21.3772L41.0619 19.8228ZM38.5127 19.09C37.625 19.09 36.7175 19.3119 35.8007 19.7144L36.6047 21.5456C37.328 21.2281 37.9605 21.09 38.5127 21.09V19.09ZM35.7924 19.7181C34.9263 20.1078 34.1522 20.5698 33.478 21.1091L34.7274 22.6709C35.2533 22.2502 35.8792 21.8722 36.6131 21.5419L35.7924 19.7181ZM33.1027 21.89V33.26H35.1027V21.89H33.1027ZM33.9696 34.2511L35.9796 34.5211L36.2459 32.5389L34.2359 32.2689L33.9696 34.2511ZM35.1127 33.53V35H37.1127V33.53H35.1127ZM36.1127 34H29.1227V36H36.1127V34ZM30.1227 35V33.53H28.1227V35H30.1227ZM74.1862 30.77L75.0807 31.2172L75.0832 31.2122L74.1862 30.77ZM71.1863 34.1L71.7198 34.9458L71.7198 34.9458L71.1863 34.1ZM65.0663 35.21L65.2077 34.2201L65.0663 35.21ZM63.7163 34.91L64.0491 33.967L62.6645 33.4783L62.7169 34.9457L63.7163 34.91ZM63.8063 37.43H64.8063V37.4121L64.8056 37.3943L63.8063 37.43ZM63.8063 40.46H62.8063V41.3598L63.7011 41.4545L63.8063 40.46ZM66.9263 40.79H67.9263V39.8902L67.0314 39.7955L66.9263 40.79ZM66.9263 42.26V43.26H67.9263V42.26H66.9263ZM58.5563 42.26H57.5563V43.26H58.5563V42.26ZM58.5563 40.79L58.4052 39.8015L57.5563 39.9312V40.79H58.5563ZM60.7163 40.46L60.8673 41.4485L61.7163 41.3188V40.46H60.7163ZM60.7163 20.66H61.7163V19.8766L60.9557 19.6891L60.7163 20.66ZM58.5263 20.12H57.5263V20.9034L58.2868 21.0909L58.5263 20.12ZM58.5263 18.5L58.4005 17.5079L57.5263 17.6188V18.5H58.5263ZM62.7863 17.96V16.96H62.7231L62.6605 16.9679L62.7863 17.96ZM62.8463 17.96L63.497 17.2007L63.2162 16.96H62.8463V17.96ZM63.4763 18.5H64.4763V18.0401L64.127 17.7407L63.4763 18.5ZM63.4763 20.27H62.4763V22.8566L64.2162 20.9427L63.4763 20.27ZM65.6963 18.59L65.2411 17.6995L65.233 17.7038L65.6963 18.59ZM71.9363 18.77L71.4269 19.6306L71.4345 19.635L71.9363 18.77ZM74.3363 21.47L75.2336 21.0287L75.2336 21.0287L74.3363 21.47ZM65.3363 20.48L64.9 19.5802L64.9 19.5802L65.3363 20.48ZM63.8063 21.53L63.0803 20.8423L62.8063 21.1315V21.53H63.8063ZM63.8063 32.84H62.8063V33.1103L62.9425 33.3439L63.8063 32.84ZM64.8563 33.5L64.5199 34.4417L64.5397 34.4488L64.5599 34.4551L64.8563 33.5ZM70.4663 31.94L69.6803 31.3216L69.6741 31.3297L70.4663 31.94ZM70.6463 21.59L69.8552 22.2019L69.8625 22.2111L70.6463 21.59ZM74.2363 26.09C74.2363 27.6482 73.9166 29.0554 73.2893 30.3278L75.0832 31.2122C75.8559 29.6446 76.2363 27.9318 76.2363 26.09H74.2363ZM73.2918 30.3228C72.6719 31.5626 71.7953 32.5335 70.6527 33.2542L71.7198 34.9458C73.1772 34.0265 74.3006 32.7774 75.0807 31.2172L73.2918 30.3228ZM70.6527 33.2542C69.5328 33.9606 68.203 34.33 66.6263 34.33V36.33C68.5295 36.33 70.2397 35.8794 71.7198 34.9458L70.6527 33.2542ZM66.6263 34.33C66.201 34.33 65.7288 34.2945 65.2077 34.2201L64.9248 36.1999C65.5237 36.2855 66.0915 36.33 66.6263 36.33V34.33ZM65.2077 34.2201C64.6806 34.1447 64.3023 34.0564 64.0491 33.967L63.3834 35.853C63.8102 36.0036 64.3319 36.1153 64.9248 36.1999L65.2077 34.2201ZM62.7169 34.9457L62.8069 37.4657L64.8056 37.3943L64.7156 34.8743L62.7169 34.9457ZM62.8063 37.43V40.46H64.8063V37.43H62.8063ZM63.7011 41.4545L66.8211 41.7845L67.0314 39.7955L63.9114 39.4655L63.7011 41.4545ZM65.9263 40.79V42.26H67.9263V40.79H65.9263ZM66.9263 41.26H58.5563V43.26H66.9263V41.26ZM59.5563 42.26V40.79H57.5563V42.26H59.5563ZM58.7073 41.7785L60.8673 41.4485L60.5652 39.4715L58.4052 39.8015L58.7073 41.7785ZM61.7163 40.46V20.66H59.7163V40.46H61.7163ZM60.9557 19.6891L58.7657 19.1491L58.2868 21.0909L60.4768 21.6309L60.9557 19.6891ZM59.5263 20.12V18.5H57.5263V20.12H59.5263ZM58.652 19.4921L62.912 18.9521L62.6605 16.9679L58.4005 17.5079L58.652 19.4921ZM62.7863 18.96H62.8463V16.96H62.7863V18.96ZM62.1955 18.7193L62.8255 19.2593L64.127 17.7407L63.497 17.2007L62.1955 18.7193ZM62.4763 18.5V20.27H64.4763V18.5H62.4763ZM64.2162 20.9427C64.7288 20.3788 65.3718 19.888 66.1595 19.4762L65.233 17.7038C64.2607 18.212 63.4237 18.8412 62.7363 19.5973L64.2162 20.9427ZM66.1514 19.4804C66.8983 19.0987 67.7402 18.9 68.6963 18.9V16.9C67.4523 16.9 66.2942 17.1613 65.2411 17.6996L66.1514 19.4804ZM68.6963 18.9C69.7038 18.9 70.6069 19.1452 71.4269 19.6306L72.4456 17.9094C71.3056 17.2348 70.0487 16.9 68.6963 16.9V18.9ZM71.4345 19.635C72.2354 20.0995 72.9104 20.8367 73.4389 21.9113L75.2336 21.0287C74.5621 19.6633 73.6371 18.6005 72.438 17.905L71.4345 19.635ZM73.4389 21.9113C73.9512 22.9531 74.2363 24.3297 74.2363 26.09H76.2363C76.2363 24.1303 75.9213 22.4269 75.2336 21.0287L73.4389 21.9113ZM67.4663 19C66.5608 19 65.7009 19.1918 64.9 19.5802L65.7725 21.3798C66.2916 21.1282 66.8517 21 67.4663 21V19ZM64.9 19.5802C64.1717 19.9333 63.5493 20.3472 63.0803 20.8423L64.5322 22.2177C64.7832 21.9528 65.1808 21.6667 65.7725 21.3798L64.9 19.5802ZM62.8063 21.53V32.84H64.8063V21.53H62.8063ZM62.9425 33.3439C63.1238 33.6546 63.3914 33.8744 63.6416 34.0316C63.8985 34.1932 64.1985 34.3269 64.5199 34.4417L65.1926 32.5583C64.954 32.4731 64.799 32.3968 64.7059 32.3384C64.6061 32.2756 64.6287 32.2654 64.67 32.3361L62.9425 33.3439ZM64.5599 34.4551C65.2465 34.6682 65.9776 34.77 66.7463 34.77V32.77C66.1549 32.77 65.626 32.6918 65.1526 32.5449L64.5599 34.4551ZM66.7463 34.77C68.5965 34.77 70.1291 34.016 71.2584 32.5503L69.6741 31.3297C68.9234 32.304 67.976 32.77 66.7463 32.77V34.77ZM71.2521 32.5584C72.4113 31.0853 72.9063 28.9817 72.9063 26.42H70.9063C70.9063 28.7783 70.4412 30.3547 69.6804 31.3216L71.2521 32.5584ZM72.9063 26.42C72.9063 24.1601 72.472 22.2838 71.43 20.9689L69.8625 22.2111C70.5005 23.0162 70.9063 24.3599 70.9063 26.42H72.9063ZM71.4372 20.9781C70.4347 19.6822 69.0868 19 67.4663 19V21C68.4457 21 69.2178 21.3778 69.8553 22.2019L71.4372 20.9781ZM80.0341 12.62H81.0341V11.7466L80.1687 11.6291L80.0341 12.62ZM77.6041 12.29H76.6041V13.1634L77.4696 13.2809L77.6041 12.29ZM77.6041 11L77.4869 10.0069L76.6041 10.1111V11H77.6041ZM82.4341 10.43V9.43H82.3753L82.3169 9.43689L82.4341 10.43ZM82.4941 10.43L83.0575 9.60377L82.8026 9.43H82.4941V10.43ZM83.1541 10.88H84.1541V10.3515L83.7175 10.0538L83.1541 10.88ZM83.1541 33.29H82.1541V34.2003L83.0604 34.2856L83.1541 33.29ZM85.7041 33.53H86.7041V32.6197L85.7978 32.5344L85.7041 33.53ZM85.7041 35V36H86.7041V35H85.7041ZM77.6041 35H76.6041V36H77.6041V35ZM77.6041 33.53L77.4937 32.5361L76.6041 32.635V33.53H77.6041ZM80.0341 33.26L80.1446 34.2539L81.0341 34.155V33.26H80.0341ZM80.1687 11.6291L77.7387 11.2991L77.4696 13.2809L79.8996 13.6109L80.1687 11.6291ZM78.6041 12.29V11H76.6041V12.29H78.6041ZM77.7213 11.9931L82.5513 11.4231L82.3169 9.43689L77.4869 10.0069L77.7213 11.9931ZM82.4341 11.43H82.4941V9.43H82.4341V11.43ZM81.9308 11.2562L82.5908 11.7062L83.7175 10.0538L83.0575 9.60377L81.9308 11.2562ZM82.1541 10.88V33.29H84.1541V10.88H82.1541ZM83.0604 34.2856L85.6104 34.5256L85.7978 32.5344L83.2478 32.2944L83.0604 34.2856ZM84.7041 33.53V35H86.7041V33.53H84.7041ZM85.7041 34H77.6041V36H85.7041V34ZM78.6041 35V33.53H76.6041V35H78.6041ZM77.7146 34.5239L80.1446 34.2539L79.9237 32.2661L77.4937 32.5361L77.7146 34.5239ZM81.0341 33.26V12.62H79.0341V33.26H81.0341ZM89.2444 42.41L89.1203 43.4023L89.1275 43.4032L89.2444 42.41ZM88.5544 42.23H87.5544V42.8103L88.0582 43.0982L88.5544 42.23ZM88.5544 39.62L89.1091 38.7879L87.5544 37.7515V39.62H88.5544ZM89.2444 39.8L89.1275 40.7932L89.1339 40.7939L89.2444 39.8ZM92.7844 38.84L92.1188 38.0937L92.1081 38.1032L92.0978 38.113L92.7844 38.84ZM94.9144 35L95.8559 35.337L96.3344 34H94.9144V35ZM93.4744 35L92.5408 35.3583L92.7871 36H93.4744V35ZM87.7744 20.15L88.708 19.7917L88.5284 19.3239L88.0463 19.1877L87.7744 20.15ZM86.3944 19.76H85.3944V20.5166L86.1224 20.7223L86.3944 19.76ZM86.3944 18.35V17.35H85.3944V18.35H86.3944ZM93.6244 18.35H94.6244V17.35H93.6244V18.35ZM93.6244 19.76L93.7784 20.7481L94.6244 20.6162V19.76H93.6244ZM91.3144 20.12L91.1604 19.1319L89.9928 19.3139L90.3654 20.4353L91.3144 20.12ZM94.2544 28.97L95.2082 28.6695L95.2058 28.6621L95.2034 28.6547L94.2544 28.97ZM95.6344 33.35L94.6806 33.6505L95.6699 36.7904L96.5942 33.6308L95.6344 33.35ZM96.9244 28.94L95.9672 28.6503L95.9646 28.6592L96.9244 28.94ZM99.5944 20.12L100.551 20.4097L100.877 19.3338L99.7707 19.1357L99.5944 20.12ZM97.5844 19.76H96.5844V20.5968L97.4081 20.7443L97.5844 19.76ZM97.5844 18.35V17.35H96.5844V18.35H97.5844ZM103.614 18.35H104.614V17.35H103.614V18.35ZM103.614 19.76L103.848 20.7324L104.614 20.5484V19.76H103.614ZM102.114 20.12L101.881 19.1476L101.337 19.2781L101.164 19.8095L102.114 20.12ZM96.9244 35.45L96.0045 35.0579L95.9993 35.0701L95.9944 35.0823L96.9244 35.45ZM95.0644 39.47L94.2006 38.9661L94.1961 38.9739L95.0644 39.47ZM93.0844 41.69L92.5348 40.8546L92.5272 40.8596L92.5197 40.8647L93.0844 41.69ZM90.2644 41.47C89.9637 41.47 89.6627 41.4523 89.3612 41.4168L89.1275 43.4032C89.506 43.4477 89.8851 43.47 90.2644 43.47V41.47ZM89.3684 41.4177C89.2376 41.4014 89.1452 41.3833 89.0843 41.3674C89.0183 41.3502 89.0172 41.3427 89.0505 41.3618L88.0582 43.0982C88.3783 43.2812 88.774 43.359 89.1203 43.4023L89.3684 41.4177ZM89.5544 42.23V39.62H87.5544V42.23H89.5544ZM87.9997 40.4521C88.3393 40.6784 88.7902 40.7535 89.1275 40.7932L89.3612 38.8068C89.2189 38.7901 89.1251 38.7719 89.0693 38.7574C89.0423 38.7503 89.0329 38.7464 89.0364 38.7478C89.0385 38.7486 89.0671 38.7599 89.1091 38.7879L87.9997 40.4521ZM89.1339 40.7939C89.5259 40.8374 89.903 40.86 90.2644 40.86V38.86C89.9857 38.86 89.6828 38.8426 89.3548 38.8061L89.1339 40.7939ZM90.2644 40.86C91.4885 40.86 92.5719 40.4162 93.471 39.567L92.0978 38.113C91.5569 38.6238 90.9602 38.86 90.2644 38.86V40.86ZM93.45 39.5863C94.3885 38.7493 95.1665 37.2631 95.8559 35.337L93.9729 34.663C93.3022 36.5369 92.6603 37.6107 92.1188 38.0937L93.45 39.5863ZM94.9144 34H93.4744V36H94.9144V34ZM94.408 34.6417L88.708 19.7917L86.8408 20.5083L92.5408 35.3583L94.408 34.6417ZM88.0463 19.1877L86.6663 18.7977L86.1224 20.7223L87.5024 21.1123L88.0463 19.1877ZM87.3944 19.76V18.35H85.3944V19.76H87.3944ZM86.3944 19.35H93.6244V17.35H86.3944V19.35ZM92.6244 18.35V19.76H94.6244V18.35H92.6244ZM93.4704 18.7719L91.1604 19.1319L91.4684 21.1081L93.7784 20.7481L93.4704 18.7719ZM90.3654 20.4353L93.3054 29.2853L95.2034 28.6547L92.2634 19.8047L90.3654 20.4353ZM93.3006 29.2705L94.6806 33.6505L96.5882 33.0495L95.2082 28.6695L93.3006 29.2705ZM96.5942 33.6308L97.8842 29.2208L95.9646 28.6592L94.6746 33.0692L96.5942 33.6308ZM97.8815 29.2297L100.551 20.4097L98.6373 19.8303L95.9673 28.6503L97.8815 29.2297ZM99.7707 19.1357L97.7607 18.7757L97.4081 20.7443L99.4181 21.1043L99.7707 19.1357ZM98.5844 19.76V18.35H96.5844V19.76H98.5844ZM97.5844 19.35H103.614V17.35H97.5844V19.35ZM102.614 18.35V19.76H104.614V18.35H102.614ZM103.381 18.7876L101.881 19.1476L102.348 21.0924L103.848 20.7324L103.381 18.7876ZM101.164 19.8095C98.2141 28.8393 96.5023 33.8898 96.0045 35.0579L97.8443 35.8421C98.3864 34.5702 100.135 29.4007 103.065 20.4305L101.164 19.8095ZM95.9944 35.0823C95.3225 36.7818 94.724 38.0689 94.2006 38.9661L95.9282 39.9739C96.5248 38.9511 97.1662 37.5582 97.8543 35.8177L95.9944 35.0823ZM94.1961 38.9739C93.6958 39.8495 93.1355 40.4594 92.5348 40.8546L93.634 42.5254C94.5533 41.9206 95.313 41.0505 95.9326 39.9661L94.1961 38.9739ZM92.5197 40.8647C91.9591 41.2483 91.227 41.47 90.2644 41.47V43.47C91.5417 43.47 92.6897 43.1717 93.6491 42.5153L92.5197 40.8647ZM116.681 35.06L116.896 34.0833L116.896 34.0833L116.681 35.06ZM113.981 34.34L113.637 35.2789L113.663 35.2882L113.689 35.2962L113.981 34.34ZM112.631 33.98L111.632 33.9358L111.589 34.9127L112.565 34.9778L112.631 33.98ZM112.871 28.55V27.55H111.915L111.872 28.5058L112.871 28.55ZM114.791 28.55L115.783 28.4203L115.669 27.55H114.791V28.55ZM115.301 32.45L114.31 32.5797L114.356 32.9336L114.616 33.1782L115.301 32.45ZM116.951 33.32L116.628 34.2662L116.643 34.2712L116.657 34.2758L116.951 33.32ZM122.951 32.66L122.304 31.898L122.294 31.9062L122.951 32.66ZM123.491 27.83L122.691 28.43L122.698 28.439L122.705 28.4478L123.491 27.83ZM121.781 26.39L121.285 27.2583L121.296 27.2642L121.781 26.39ZM118.871 24.98L118.464 25.8932L118.472 25.8968L118.871 24.98ZM115.931 23.45L115.396 24.2946L115.405 24.3003L115.931 23.45ZM113.771 21.38L112.945 21.9433L112.953 21.9542L112.96 21.9648L113.771 21.38ZM113.741 15.29L112.915 14.7267L112.912 14.7309L113.741 15.29ZM116.291 13.22L115.884 12.3068L115.878 12.3096L116.291 13.22ZM122.621 12.68L122.425 13.6606L122.431 13.6616L122.621 12.68ZM125.051 13.25L125.382 12.3061L125.346 12.2936L125.309 12.2838L125.051 13.25ZM126.071 13.52L127.071 13.5557L127.103 12.6572L126.213 12.5301L126.071 13.52ZM125.891 18.56V19.56H126.856L126.891 18.5957L125.891 18.56ZM124.061 18.56L123.074 18.7205L123.211 19.56H124.061V18.56ZM123.461 14.87L124.449 14.7095L124.397 14.391L124.169 14.1629L123.461 14.87ZM122.201 14.3L121.923 15.2604L121.931 15.2626L122.201 14.3ZM117.011 14.9L116.384 14.1212L116.373 14.13L117.011 14.9ZM116.591 19.43L115.802 20.0439L115.809 20.0529L115.816 20.0617L116.591 19.43ZM118.211 20.81L118.722 19.9501L118.722 19.9501L118.211 20.81ZM121.271 22.37L121.702 21.4674L121.698 21.4655L121.271 22.37ZM124.451 24.05L124.972 23.1962L124.972 23.1962L124.451 24.05ZM126.551 26.03L125.735 26.6075L125.743 26.6188L125.751 26.63L126.551 26.03ZM126.551 31.97L125.699 31.4478L125.695 31.4542L125.691 31.4607L126.551 31.97ZM123.851 34.4L124.311 35.2884L124.316 35.2855L123.851 34.4ZM119.471 34.33C118.487 34.33 117.631 34.2446 116.896 34.0833L116.467 36.0367C117.372 36.2354 118.376 36.33 119.471 36.33V34.33ZM116.896 34.0833C116.107 33.9101 115.234 33.6775 114.274 33.3838L113.689 35.2962C114.689 35.6025 115.616 35.8499 116.467 36.0367L116.896 34.0833ZM114.326 33.4011C113.713 33.1766 113.15 33.0123 112.698 32.9822L112.565 34.9778C112.713 34.9877 113.05 35.0634 113.637 35.2789L114.326 33.4011ZM113.631 34.0242L113.871 28.5942L111.872 28.5058L111.632 33.9358L113.631 34.0242ZM112.871 29.55H114.791V27.55H112.871V29.55ZM113.8 28.6797L114.31 32.5797L116.293 32.3203L115.783 28.4203L113.8 28.6797ZM114.616 33.1782C115.109 33.6421 115.817 33.9886 116.628 34.2662L117.275 32.3738C116.566 32.1314 116.174 31.8979 115.987 31.7218L114.616 33.1782ZM116.657 34.2758C117.544 34.5486 118.494 34.68 119.501 34.68V32.68C118.669 32.68 117.919 32.5714 117.246 32.3642L116.657 34.2758ZM119.501 34.68C121.152 34.68 122.578 34.3127 123.609 33.4138L122.294 31.9062C121.765 32.3673 120.891 32.68 119.501 32.68V34.68ZM123.599 33.4219C124.656 32.5236 125.151 31.2866 125.151 29.84H123.151C123.151 30.7934 122.847 31.4364 122.304 31.8981L123.599 33.4219ZM125.151 29.84C125.151 28.8586 124.87 27.9654 124.278 27.2122L122.705 28.4478C122.993 28.8146 123.151 29.2614 123.151 29.84H125.151ZM124.291 27.23C123.774 26.5394 123.089 25.9722 122.267 25.5158L121.296 27.2642C121.914 27.6078 122.369 28.0006 122.691 28.43L124.291 27.23ZM122.278 25.5218C121.532 25.0959 120.525 24.6094 119.271 24.0632L118.472 25.8968C119.698 26.4306 120.631 26.8841 121.285 27.2582L122.278 25.5218ZM119.279 24.0669C118.191 23.581 117.252 23.0913 116.458 22.5997L115.405 24.3003C116.291 24.8487 117.312 25.379 118.464 25.8931L119.279 24.0669ZM116.467 22.6055C115.764 22.1597 115.135 21.5614 114.583 20.7952L112.96 21.9648C113.648 22.9186 114.459 23.7003 115.396 24.2945L116.467 22.6055ZM114.598 20.8167C114.127 20.126 113.871 19.2792 113.871 18.23H111.871C111.871 19.6208 112.216 20.874 112.945 21.9433L114.598 20.8167ZM113.871 18.23C113.871 17.3166 114.109 16.5337 114.571 15.8491L112.912 14.7309C112.214 15.7663 111.871 16.9434 111.871 18.23H113.871ZM114.568 15.8533C115.051 15.1441 115.749 14.565 116.705 14.1304L115.878 12.3096C114.634 12.875 113.632 13.6759 112.915 14.7267L114.568 15.8533ZM116.699 14.1331C117.667 13.701 118.823 13.47 120.191 13.47V11.47C118.599 11.47 117.156 11.739 115.884 12.3069L116.699 14.1331ZM120.191 13.47C121.063 13.47 121.805 13.5366 122.425 13.6606L122.818 11.6994C122.038 11.5434 121.16 11.47 120.191 11.47V13.47ZM122.431 13.6616C123.123 13.7963 123.91 13.9806 124.794 14.2162L125.309 12.2838C124.393 12.0394 123.56 11.8437 122.812 11.6984L122.431 13.6616ZM124.721 14.1939C125.155 14.3458 125.562 14.4574 125.93 14.5099L126.213 12.5301C126.02 12.5026 125.748 12.4342 125.382 12.3061L124.721 14.1939ZM125.072 13.4843L124.892 18.5243L126.891 18.5957L127.071 13.5557L125.072 13.4843ZM125.891 17.56H124.061V19.56H125.891V17.56ZM125.049 18.3995L124.449 14.7095L122.474 15.0305L123.074 18.7205L125.049 18.3995ZM124.169 14.1629C123.947 13.9409 123.668 13.7838 123.409 13.6664C123.138 13.5438 122.821 13.4356 122.472 13.3373L121.931 15.2626C122.222 15.3444 122.435 15.4212 122.584 15.4886C122.745 15.5612 122.776 15.5991 122.754 15.5771L124.169 14.1629ZM122.48 13.3397C121.758 13.1298 120.982 13.03 120.161 13.03V15.03C120.821 15.03 121.405 15.1102 121.923 15.2603L122.48 13.3397ZM120.161 13.03C118.661 13.03 117.351 13.3425 116.384 14.1212L117.639 15.6788C118.112 15.2975 118.902 15.03 120.161 15.03V13.03ZM116.373 14.13C115.396 14.9399 114.961 16.0911 114.961 17.42H116.961C116.961 16.5489 117.227 16.0201 117.65 15.67L116.373 14.13ZM114.961 17.42C114.961 18.4031 115.223 19.2998 115.802 20.0439L117.381 18.8161C117.12 18.4802 116.961 18.0369 116.961 17.42H114.961ZM115.816 20.0617C116.335 20.6988 116.967 21.2341 117.701 21.6699L118.722 19.9501C118.176 19.6259 117.728 19.2412 117.367 18.7983L115.816 20.0617ZM117.701 21.6699C118.384 22.0755 119.44 22.6122 120.845 23.2745L121.698 21.4655C120.303 20.8078 119.319 20.3045 118.722 19.9501L117.701 21.6699ZM120.841 23.2726C122.124 23.8844 123.151 24.428 123.931 24.9038L124.972 23.1962C124.112 22.672 123.019 22.0956 121.702 21.4674L120.841 23.2726ZM123.931 24.9038C124.629 25.3296 125.23 25.8936 125.735 26.6075L127.368 25.4525C126.713 24.5264 125.914 23.7704 124.972 23.1962L123.931 24.9038ZM125.751 26.63C126.206 27.2363 126.451 27.9791 126.451 28.91H128.451C128.451 27.6009 128.097 26.4237 127.351 25.43L125.751 26.63ZM126.451 28.91C126.451 29.7703 126.211 30.6113 125.699 31.4478L127.404 32.4922C128.092 31.3687 128.451 30.1697 128.451 28.91H126.451ZM125.691 31.4607C125.224 32.2503 124.477 32.9425 123.387 33.5145L124.316 35.2855C125.666 34.5775 126.719 33.6497 127.412 32.4793L125.691 31.4607ZM123.392 33.5116C122.368 34.041 121.074 34.33 119.471 34.33V36.33C121.309 36.33 122.935 35.999 124.311 35.2884L123.392 33.5116ZM132.514 34.52L133.194 33.7872L133.194 33.7872L132.514 34.52ZM131.674 20.33H132.674V19.33H131.674V20.33ZM129.514 20.33H128.514V21.33H129.514V20.33ZM129.514 18.98L129.318 17.9994L128.514 18.1602V18.98H129.514ZM130.354 18.77L130.606 19.7376L130.606 19.7376L130.354 18.77ZM131.284 18.44L130.794 17.5684L130.774 17.5798L130.754 17.592L131.284 18.44ZM132.034 17.36L131.112 16.9719L131.097 17.0073L131.085 17.0438L132.034 17.36ZM132.604 15.53L131.637 15.2766L131.637 15.2766L132.604 15.53ZM132.994 14.03V13.03H132.213L132.024 13.7875L132.994 14.03ZM134.764 14.03L135.764 14.0161L135.75 13.03H134.764V14.03ZM134.824 18.35L133.824 18.3639L133.838 19.35H134.824V18.35ZM139.834 18.35H140.834V17.35H139.834V18.35ZM139.834 20.33V21.33H140.834V20.33H139.834ZM134.824 20.33V19.33H133.824V20.33H134.824ZM134.914 31.94L133.922 32.0693L133.925 32.0904L133.929 32.1113L134.914 31.94ZM135.364 32.84L134.827 33.6837L134.843 33.694L134.86 33.7038L135.364 32.84ZM138.334 32.84L138.126 31.8617L138.12 31.8631L138.334 32.84ZM139.864 32.39L140.813 32.0738L140.464 31.0288L139.458 31.4762L139.864 32.39ZM140.314 33.74L140.914 34.54L141.491 34.1075L141.263 33.4238L140.314 33.74ZM137.974 34.79L137.674 33.8361L137.669 33.8378L137.974 34.79ZM135.064 34.3C134.055 34.3 133.496 34.0676 133.194 33.7872L131.834 35.2528C132.652 36.0124 133.793 36.3 135.064 36.3V34.3ZM133.194 33.7872C132.938 33.5487 132.674 33.0053 132.674 31.85H130.674C130.674 33.2147 130.97 34.4513 131.834 35.2528L133.194 33.7872ZM132.674 31.85V20.33H130.674V31.85H132.674ZM131.674 19.33H129.514V21.33H131.674V19.33ZM130.514 20.33V18.98H128.514V20.33H130.514ZM129.71 19.9606C129.846 19.9335 130.16 19.8542 130.606 19.7376L130.102 17.8024C129.628 17.9258 129.382 17.9865 129.318 17.9994L129.71 19.9606ZM130.606 19.7376C131.06 19.6193 131.509 19.4786 131.814 19.288L130.754 17.592C130.765 17.5853 130.726 17.6093 130.597 17.6551C130.478 17.6973 130.315 17.7467 130.102 17.8024L130.606 19.7376ZM131.774 19.3116C132.403 18.9579 132.766 18.3272 132.983 17.6762L131.085 17.0438C130.942 17.4728 130.805 17.5621 130.794 17.5684L131.774 19.3116ZM132.956 17.7481C133.145 17.2986 133.349 16.6306 133.571 15.7834L131.637 15.2766C131.419 16.1094 131.243 16.6614 131.112 16.9719L132.956 17.7481ZM133.571 15.7834C133.791 14.9463 133.922 14.4394 133.964 14.2725L132.024 13.7875C131.986 13.9406 131.857 14.4337 131.637 15.2766L133.571 15.7834ZM132.994 15.03H134.764V13.03H132.994V15.03ZM133.764 14.0439L133.824 18.3639L135.824 18.3361L135.764 14.0161L133.764 14.0439ZM134.824 19.35H139.834V17.35H134.824V19.35ZM138.834 18.35V20.33H140.834V18.35H138.834ZM139.834 19.33H134.824V21.33H139.834V19.33ZM133.824 20.33V29.54H135.824V20.33H133.824ZM133.824 29.54C133.824 30.679 133.853 31.5378 133.922 32.0693L135.906 31.8107C135.855 31.4222 135.824 30.681 135.824 29.54H133.824ZM133.929 32.1113C134.022 32.6451 134.239 33.3092 134.827 33.6837L135.901 31.9963C135.982 32.0478 135.998 32.0962 135.981 32.0628C135.963 32.0264 135.929 31.9373 135.899 31.7687L133.929 32.1113ZM134.86 33.7038C135.343 33.9855 135.973 34.05 136.564 34.05V32.05C136.322 32.05 136.143 32.0346 136.016 32.0125C135.884 31.9893 135.85 31.9657 135.868 31.9762L134.86 33.7038ZM136.564 34.05C137.189 34.05 137.852 33.9691 138.548 33.8169L138.12 31.8631C137.536 31.9909 137.019 32.05 136.564 32.05V34.05ZM138.541 33.8182C139.229 33.6724 139.817 33.5052 140.27 33.3038L139.458 31.4762C139.191 31.5948 138.759 31.7276 138.126 31.8618L138.541 33.8182ZM138.915 32.7062L139.365 34.0562L141.263 33.4238L140.813 32.0738L138.915 32.7062ZM139.714 32.94C139.373 33.1961 138.724 33.5055 137.674 33.8362L138.274 35.7438C139.384 35.3945 140.295 35.0039 140.914 34.54L139.714 32.94ZM137.669 33.8378C136.682 34.1541 135.817 34.3 135.064 34.3V36.3C136.071 36.3 137.146 36.1059 138.279 35.7422L137.669 33.8378ZM143.981 32.96L143.199 33.5835L143.204 33.5895L143.981 32.96ZM143.081 22.04L143.975 22.4872L143.975 22.4872L143.081 22.04ZM145.841 18.98L145.326 18.1225L145.32 18.1264L145.841 18.98ZM154.241 19.46L153.527 20.1602L153.534 20.1671L153.541 20.1739L154.241 19.46ZM155.891 23.87H156.891V23.8544L156.89 23.8388L155.891 23.87ZM155.681 26.66V27.66H156.486L156.658 26.8737L155.681 26.66ZM145.361 26.66V25.66H144.34L144.361 26.6802L145.361 26.66ZM146.741 31.46L145.93 32.045L145.934 32.0514L146.741 31.46ZM152.981 32.84L153.29 33.791L153.303 33.7865L152.981 32.84ZM155.021 31.79L155.939 31.3936L155.408 30.1652L154.381 31.0218L155.021 31.79ZM155.591 33.11L156.31 33.805L156.773 33.3257L156.509 32.7136L155.591 33.11ZM153.011 34.67L152.651 33.7371L152.651 33.7371L153.011 34.67ZM152.591 25.07V26.07H153.458L153.581 25.2114L152.591 25.07ZM152.681 23.78H153.681V23.7723L153.681 23.7646L152.681 23.78ZM151.841 20.72L151.015 21.2847L151.024 21.2972L151.033 21.3095L151.841 20.72ZM146.561 20.84L145.793 20.1998L145.788 20.2053L145.784 20.2108L146.561 20.84ZM145.391 25.07L144.392 25.0196L144.339 26.07H145.391V25.07ZM149.531 34.33C147.349 34.33 145.811 33.6307 144.758 32.3305L143.204 33.5895C144.71 35.4493 146.873 36.33 149.531 36.33V34.33ZM144.763 32.3365C143.682 30.9815 143.091 29.1134 143.091 26.63H141.091C141.091 29.4266 141.76 31.7785 143.199 33.5835L144.763 32.3365ZM143.091 26.63C143.091 25.0176 143.396 23.6456 143.975 22.4872L142.186 21.5928C141.446 23.0744 141.091 24.7624 141.091 26.63H143.091ZM143.975 22.4872C144.557 21.3232 145.353 20.4492 146.362 19.8336L145.32 18.1264C143.969 18.9508 142.924 20.1168 142.186 21.5928L143.975 22.4872ZM146.355 19.8375C147.387 19.2187 148.566 18.9 149.921 18.9V16.9C148.236 16.9 146.695 17.3013 145.326 18.1225L146.355 19.8375ZM149.921 18.9C151.59 18.9 152.743 19.3614 153.527 20.1602L154.955 18.7598C153.698 17.4786 151.971 16.9 149.921 16.9V18.9ZM153.541 20.1739C154.344 20.9618 154.837 22.1543 154.891 23.9012L156.89 23.8388C156.825 21.7457 156.218 19.9982 154.941 18.7461L153.541 20.1739ZM154.891 23.87C154.891 25.0684 154.821 25.9127 154.704 26.4463L156.658 26.8737C156.821 26.1273 156.891 25.1116 156.891 23.87H154.891ZM155.681 25.66H145.361V27.66H155.681V25.66ZM144.361 26.6802C144.404 28.7997 144.899 30.6153 145.93 32.045L147.552 30.875C146.823 29.8647 146.398 28.4803 146.361 26.6398L144.361 26.6802ZM145.934 32.0514C147.021 33.5336 148.585 34.26 150.491 34.26V32.26C149.157 32.26 148.22 31.7864 147.547 30.8686L145.934 32.0514ZM150.491 34.26C151.409 34.26 152.343 34.0992 153.29 33.7909L152.671 31.8891C151.898 32.1408 151.173 32.26 150.491 32.26V34.26ZM153.303 33.7865C154.248 33.4645 155.053 33.065 155.661 32.5582L154.381 31.0218C154.029 31.315 153.473 31.6155 152.658 31.8935L153.303 33.7865ZM154.103 32.1864L154.673 33.5064L156.509 32.7136L155.939 31.3936L154.103 32.1864ZM154.872 32.415C154.428 32.8736 153.713 33.327 152.651 33.7371L153.371 35.6029C154.589 35.133 155.593 34.5464 156.31 33.805L154.872 32.415ZM152.651 33.7371C151.621 34.1343 150.583 34.33 149.531 34.33V36.33C150.838 36.33 152.12 36.0857 153.371 35.6029L152.651 33.7371ZM153.581 25.2114C153.648 24.7429 153.681 24.2656 153.681 23.78H151.681C151.681 24.1744 151.654 24.5571 151.601 24.9286L153.581 25.2114ZM153.681 23.7646C153.659 22.3415 153.352 21.0942 152.649 20.1305L151.033 21.3095C151.41 21.8258 151.663 22.6185 151.681 23.7954L153.681 23.7646ZM152.666 20.1553C151.915 19.0569 150.732 18.58 149.351 18.58V20.58C150.25 20.58 150.727 20.8631 151.015 21.2847L152.666 20.1553ZM149.351 18.58C147.915 18.58 146.695 19.1164 145.793 20.1998L147.329 21.4802C147.826 20.8836 148.467 20.58 149.351 20.58V18.58ZM145.784 20.2108C144.898 21.3042 144.495 22.9814 144.392 25.0196L146.39 25.1204C146.487 23.1986 146.863 22.0558 147.338 21.4692L145.784 20.2108ZM145.391 26.07H152.591V24.07H145.391V26.07ZM160.659 12.62H161.659V11.7466L160.794 11.6291L160.659 12.62ZM158.229 12.29H157.229V13.1634L158.095 13.2809L158.229 12.29ZM158.229 11L158.112 10.0069L157.229 10.1111V11H158.229ZM163.059 10.43V9.43H163L162.942 9.43689L163.059 10.43ZM163.119 10.43L163.682 9.60377L163.428 9.43H163.119V10.43ZM163.779 10.88H164.779V10.3515L164.342 10.0538L163.779 10.88ZM163.779 33.29H162.779V34.2003L163.685 34.2856L163.779 33.29ZM166.329 33.53H167.329V32.6197L166.423 32.5344L166.329 33.53ZM166.329 35V36H167.329V35H166.329ZM158.229 35H157.229V36H158.229V35ZM158.229 33.53L158.119 32.5361L157.229 32.635V33.53H158.229ZM160.659 33.26L160.77 34.2539L161.659 34.155V33.26H160.659ZM160.794 11.6291L158.364 11.2991L158.095 13.2809L160.525 13.6109L160.794 11.6291ZM159.229 12.29V11H157.229V12.29H159.229ZM158.346 11.9931L163.176 11.4231L162.942 9.43689L158.112 10.0069L158.346 11.9931ZM163.059 11.43H163.119V9.43H163.059V11.43ZM162.556 11.2562L163.216 11.7062L164.342 10.0538L163.682 9.60377L162.556 11.2562ZM162.779 10.88V33.29H164.779V10.88H162.779ZM163.685 34.2856L166.235 34.5256L166.423 32.5344L163.873 32.2944L163.685 34.2856ZM165.329 33.53V35H167.329V33.53H165.329ZM166.329 34H158.229V36H166.329V34ZM159.229 35V33.53H157.229V35H159.229ZM158.34 34.5239L160.77 34.2539L160.549 32.2661L158.119 32.5361L158.34 34.5239ZM161.659 33.26V12.62H159.659V33.26H161.659ZM170.649 12.62H171.649V11.7466L170.784 11.6291L170.649 12.62ZM168.219 12.29H167.219V13.1634L168.085 13.2809L168.219 12.29ZM168.219 11L168.102 10.0069L167.219 10.1111V11H168.219ZM173.049 10.43V9.43H172.991L172.932 9.43689L173.049 10.43ZM173.109 10.43L173.673 9.60377L173.418 9.43H173.109V10.43ZM173.769 10.88H174.769V10.3515L174.333 10.0538L173.769 10.88ZM173.769 33.29H172.769V34.2003L173.676 34.2856L173.769 33.29ZM176.319 33.53H177.319V32.6197L176.413 32.5344L176.319 33.53ZM176.319 35V36H177.319V35H176.319ZM168.219 35H167.219V36H168.219V35ZM168.219 33.53L168.109 32.5361L167.219 32.635V33.53H168.219ZM170.649 33.26L170.76 34.2539L171.649 34.155V33.26H170.649ZM170.784 11.6291L168.354 11.2991L168.085 13.2809L170.515 13.6109L170.784 11.6291ZM169.219 12.29V11H167.219V12.29H169.219ZM168.337 11.9931L173.167 11.4231L172.932 9.43689L168.102 10.0069L168.337 11.9931ZM173.049 11.43H173.109V9.43H173.049V11.43ZM172.546 11.2562L173.206 11.7062L174.333 10.0538L173.673 9.60377L172.546 11.2562ZM172.769 10.88V33.29H174.769V10.88H172.769ZM173.676 34.2856L176.226 34.5256L176.413 32.5344L173.863 32.2944L173.676 34.2856ZM175.319 33.53V35H177.319V33.53H175.319ZM176.319 34H168.219V36H176.319V34ZM169.219 35V33.53H167.219V35H169.219ZM168.33 34.5239L170.76 34.2539L170.539 32.2661L168.109 32.5361L168.33 34.5239ZM171.649 33.26V12.62H169.649V33.26H171.649ZM181.27 26.36L181.694 27.2657L181.701 27.262L181.27 26.36ZM188.41 24.92L188.43 25.9198L189.41 25.8994V24.92H188.41ZM187.06 20.69L186.583 21.5693L186.605 21.5809L186.627 21.5915L187.06 20.69ZM182.23 20.75L182.56 21.694L182.573 21.6891L182.23 20.75ZM179.83 21.8L178.928 22.2333L179.377 23.1669L180.294 22.6854L179.83 21.8ZM179.08 20.24L178.434 19.4766L177.843 19.9762L178.178 20.6733L179.08 20.24ZM180.52 19.37L180.977 20.2593L180.977 20.2593L180.52 19.37ZM189.07 18.59L188.631 19.4888L188.644 19.4951L188.657 19.5011L189.07 18.59ZM191.41 33.53H190.41V34.53H191.41V33.53ZM193.18 33.53H194.18V32.53H193.18V33.53ZM193.18 34.85L193.422 35.8201L194.18 35.6308V34.85H193.18ZM191.65 35.15L191.49 34.1627L191.485 34.1636L191.65 35.15ZM188.92 35.03L189.589 34.2867L189.567 34.2673L189.544 34.2491L188.92 35.03ZM188.62 32.93H189.62V30.5158L187.913 32.2229L188.62 32.93ZM186.4 34.58L185.906 33.7105L185.897 33.7155L186.4 34.58ZM179.86 34.1L179.193 34.8457L179.202 34.8531L179.21 34.8604L179.86 34.1ZM186.55 32.81L186.975 33.7148L186.975 33.7148L186.55 32.81ZM188.41 31.67L189.027 32.4563L189.41 32.156V31.67H188.41ZM188.41 26.51H189.41V25.51H188.41V26.51ZM183.46 27.53L183.974 28.3875L183.979 28.3848L183.46 27.53ZM182.59 32.54L181.883 33.2471L181.896 33.2607L181.91 33.2738L182.59 32.54ZM179.45 30.5C179.45 29.7346 179.638 29.1216 179.981 28.618C180.328 28.1083 180.877 27.648 181.694 27.2657L180.846 25.4543C179.782 25.952 178.921 26.6217 178.328 27.492C177.731 28.3684 177.45 29.3854 177.45 30.5H179.45ZM181.701 27.262C183.414 26.4422 185.642 25.9779 188.43 25.9198L188.389 23.9202C185.417 23.9821 182.885 24.4778 180.838 25.458L181.701 27.262ZM189.41 24.92V24.08H187.41V24.92H189.41ZM189.41 24.08C189.41 23.0867 189.306 22.2119 189.047 21.5127L187.172 22.2073C187.313 22.5881 187.41 23.1933 187.41 24.08H189.41ZM189.047 21.5127C188.761 20.7398 188.236 20.1454 187.492 19.7885L186.627 21.5915C186.883 21.7146 187.058 21.9002 187.172 22.2073L189.047 21.5127ZM187.536 19.8107C186.844 19.4359 185.96 19.3 184.99 19.3V21.3C185.819 21.3 186.315 21.4241 186.583 21.5693L187.536 19.8107ZM184.99 19.3C183.872 19.3 182.833 19.4645 181.886 19.8109L182.573 21.6891C183.266 21.4355 184.067 21.3 184.99 21.3V19.3ZM181.899 19.8061C181.05 20.1033 180.205 20.4733 179.365 20.9146L180.294 22.6854C181.054 22.2867 181.809 21.9567 182.56 21.6939L181.899 19.8061ZM180.731 21.3667L179.981 19.8067L178.178 20.6733L178.928 22.2333L180.731 21.3667ZM179.726 21.0034C179.891 20.8638 180.28 20.6178 180.977 20.2593L180.062 18.4807C179.359 18.8422 178.789 19.1762 178.434 19.4766L179.726 21.0034ZM180.977 20.2593C181.614 19.9319 182.366 19.6329 183.241 19.3667L182.658 17.4533C181.693 17.7471 180.826 18.0881 180.062 18.4807L180.977 20.2593ZM183.241 19.3667C184.071 19.1141 184.893 18.99 185.71 18.99V16.99C184.687 16.99 183.669 17.1459 182.658 17.4533L183.241 19.3667ZM185.71 18.99C187.054 18.99 188.003 19.1822 188.631 19.4888L189.508 17.6912C188.496 17.1978 187.205 16.99 185.71 16.99V18.99ZM188.657 19.5011C189.264 19.7756 189.684 20.2064 189.947 20.8361L191.792 20.0639C191.336 18.9736 190.555 18.1644 189.482 17.6789L188.657 19.5011ZM189.947 20.8361C190.236 21.5257 190.41 22.5279 190.41 23.9H192.41C192.41 22.3921 192.223 21.0943 191.792 20.0639L189.947 20.8361ZM190.41 23.9V33.53H192.41V23.9H190.41ZM191.41 34.53H193.18V32.53H191.41V34.53ZM192.18 33.53V34.85H194.18V33.53H192.18ZM192.937 33.8799C192.575 33.9704 192.095 34.0652 191.49 34.1628L191.809 36.1372C192.444 36.0348 192.984 35.9296 193.422 35.8201L192.937 33.8799ZM191.485 34.1636C190.923 34.2573 190.45 34.3 190.06 34.3V36.3C190.589 36.3 191.176 36.2427 191.814 36.1364L191.485 34.1636ZM190.06 34.3C189.827 34.3 189.675 34.2807 189.585 34.2594C189.489 34.2368 189.52 34.2253 189.589 34.2867L188.251 35.7733C188.519 36.0147 188.84 36.1382 189.124 36.2056C189.414 36.2743 189.732 36.3 190.06 36.3V34.3ZM189.544 34.2491C189.674 34.3531 189.681 34.4481 189.66 34.3716C189.642 34.3033 189.62 34.1621 189.62 33.92H187.62C187.62 34.2579 187.648 34.5917 187.729 34.8934C187.809 35.1869 187.965 35.5469 188.295 35.8109L189.544 34.2491ZM189.62 33.92V32.93H187.62V33.92H189.62ZM187.913 32.2229C187.387 32.7487 186.722 33.2466 185.906 33.7105L186.894 35.4495C187.837 34.9134 188.652 34.3113 189.327 33.6371L187.913 32.2229ZM185.897 33.7155C185.205 34.1176 184.402 34.33 183.46 34.33V36.33C184.717 36.33 185.874 36.0424 186.902 35.4445L185.897 33.7155ZM183.46 34.33C182.222 34.33 181.263 33.9833 180.509 33.3396L179.21 34.8604C180.376 35.8567 181.817 36.33 183.46 36.33V34.33ZM180.526 33.3543C179.847 32.7478 179.45 31.8483 179.45 30.5H177.45C177.45 32.2717 177.992 33.7722 179.193 34.8457L180.526 33.3543ZM184.75 34.29C185.467 34.29 186.217 34.0717 186.975 33.7148L186.124 31.9052C185.522 32.1883 185.072 32.29 184.75 32.29V34.29ZM186.975 33.7148C187.72 33.3645 188.405 32.9454 189.027 32.4563L187.792 30.8837C187.294 31.2746 186.739 31.6155 186.124 31.9052L186.975 33.7148ZM189.41 31.67V26.51H187.41V31.67H189.41ZM188.41 25.51C186.155 25.51 184.289 25.8565 182.941 26.6752L183.979 28.3848C184.87 27.8435 186.304 27.51 188.41 27.51V25.51ZM182.945 26.6725C181.61 27.4733 180.81 28.6376 180.81 30.14H182.81C182.81 29.4824 183.109 28.9067 183.974 28.3875L182.945 26.6725ZM180.81 30.14C180.81 31.3614 181.103 32.4672 181.883 33.2471L183.297 31.8329C183.037 31.5728 182.81 31.0786 182.81 30.14H180.81ZM181.91 33.2738C182.674 33.9812 183.657 34.29 184.75 34.29V32.29C184.042 32.29 183.585 32.0988 183.269 31.8062L181.91 33.2738ZM195.326 33.53L195.246 32.5332L194.326 32.6068V33.53H195.326ZM197.576 33.35L197.656 34.3468L198.576 34.2732V33.35H197.576ZM197.576 20.66H198.576V19.8792L197.819 19.6899L197.576 20.66ZM195.416 20.12H194.416V20.9008L195.173 21.0901L195.416 20.12ZM195.416 18.5L195.287 17.5084L194.416 17.622V18.5H195.416ZM199.556 17.96V16.96H199.491L199.427 16.9684L199.556 17.96ZM199.616 17.96L200.249 17.186L199.973 16.96H199.616V17.96ZM200.276 18.5H201.276V18.0261L200.909 17.726L200.276 18.5ZM200.276 19.04L201.275 19.0784L201.276 19.0592V19.04H200.276ZM200.186 21.38L199.187 21.3416L199.147 22.38H200.186V21.38ZM200.276 21.38V22.38H200.848L201.138 21.887L200.276 21.38ZM201.356 20.06L200.636 19.3664L200.636 19.3664L201.356 20.06ZM203.366 18.59L203.839 19.4712L203.847 19.4667L203.855 19.4621L203.366 18.59ZM207.026 18.05H208.026V17.3632L207.385 17.1167L207.026 18.05ZM207.026 21.41L206.445 22.2237L208.026 23.3532V21.41H207.026ZM206.336 21.14L206.02 22.0887L206.056 22.1008L206.093 22.1101L206.336 21.14ZM200.696 22.52L200.113 21.7078L199.696 22.0071V22.52H200.696ZM200.696 33.32H199.696V34.259L200.633 34.318L200.696 33.32ZM204.506 33.56H205.506V32.621L204.569 32.562L204.506 33.56ZM204.506 35V36H205.506V35H204.506ZM195.326 35H194.326V36H195.326V35ZM195.406 34.5268L197.656 34.3468L197.496 32.3532L195.246 32.5332L195.406 34.5268ZM198.576 33.35V20.66H196.576V33.35H198.576ZM197.819 19.6899L195.659 19.1499L195.173 21.0901L197.333 21.6301L197.819 19.6899ZM196.416 20.12V18.5H194.416V20.12H196.416ZM195.545 19.4916L199.685 18.9516L199.427 16.9684L195.287 17.5084L195.545 19.4916ZM199.556 18.96H199.616V16.96H199.556V18.96ZM198.983 18.734L199.643 19.274L200.909 17.726L200.249 17.186L198.983 18.734ZM199.276 18.5V19.04H201.276V18.5H199.276ZM199.277 19.0016L199.187 21.3416L201.185 21.4184L201.275 19.0784L199.277 19.0016ZM200.186 22.38H200.276V20.38H200.186V22.38ZM201.138 21.887C201.277 21.6503 201.571 21.2781 202.076 20.7536L200.636 19.3664C200.101 19.9219 199.675 20.4297 199.414 20.873L201.138 21.887ZM202.076 20.7536C202.509 20.3042 203.089 19.8733 203.839 19.4712L202.893 17.7088C202.003 18.1867 201.243 18.7358 200.636 19.3664L202.076 20.7536ZM203.855 19.4621C204.523 19.0878 205.244 18.9 206.036 18.9V16.9C204.908 16.9 203.849 17.1722 202.877 17.7179L203.855 19.4621ZM206.036 18.9C206.362 18.9 206.56 18.9421 206.667 18.9833L207.385 17.1167C206.972 16.9579 206.51 16.9 206.036 16.9V18.9ZM206.026 18.05V21.41H208.026V18.05H206.026ZM207.607 20.5963C207.31 20.3837 206.929 20.2576 206.579 20.1699L206.093 22.1101C206.225 22.143 206.319 22.1735 206.384 22.1987C206.453 22.2255 206.464 22.2375 206.445 22.2237L207.607 20.5963ZM206.652 20.1913C206.232 20.0513 205.783 19.99 205.316 19.99V21.99C205.61 21.99 205.84 22.0287 206.02 22.0887L206.652 20.1913ZM205.316 19.99C203.435 19.99 201.693 20.5726 200.113 21.7078L201.279 23.3322C202.539 22.4274 203.877 21.99 205.316 21.99V19.99ZM199.696 22.52V33.32H201.696V22.52H199.696ZM200.633 34.318L204.443 34.558L204.569 32.562L200.759 32.322L200.633 34.318ZM203.506 33.56V35H205.506V33.56H203.506ZM204.506 34H195.326V36H204.506V34ZM196.326 35V33.53H194.326V35H196.326Z" fill="#29292B"/>
</svg>
