<svg width="138" height="22" viewBox="0 0 138 22" fill="none" xmlns="http://www.w3.org/2000/svg">
<path d="M4.8 17.22C4.10667 17.22 3.48667 17.16 2.94 17.04C2.39333 16.92 1.79333 16.76 1.14 16.56C0.74 16.4133 0.44 16.3333 0.24 16.32L0.4 12.7H1.68L2.02 15.3C2.24667 15.5133 2.61333 15.7067 3.12 15.88C3.64 16.04 4.20667 16.12 4.82 16.12C5.83333 16.12 6.6 15.8933 7.12 15.44C7.65333 14.9867 7.92 14.36 7.92 13.56C7.92 13.04 7.77333 12.5933 7.48 12.22C7.2 11.8467 6.82 11.5267 6.34 11.26C5.87333 10.9933 5.22667 10.68 4.4 10.32C3.65333 9.98667 3 9.64667 2.44 9.3C1.89333 8.95333 1.41333 8.49333 1 7.92C0.6 7.33333 0.4 6.63333 0.4 5.82C0.4 5.08667 0.593333 4.43333 0.98 3.86C1.38 3.27333 1.94667 2.81333 2.68 2.48C3.42667 2.14667 4.29333 1.98 5.28 1.98C5.89333 1.98 6.43333 2.02667 6.9 2.12C7.38 2.21333 7.92 2.34 8.52 2.5C8.78667 2.59333 9.01333 2.65333 9.2 2.68L9.08 6.04H7.86L7.46 3.58C7.32667 3.44667 7.04667 3.32 6.62 3.2C6.20667 3.08 5.75333 3.02 5.26 3.02C4.34 3.02 3.64 3.21333 3.16 3.6C2.69333 3.98667 2.46 4.54667 2.46 5.28C2.46 5.81333 2.6 6.26 2.88 6.62C3.17333 6.98 3.53333 7.28667 3.96 7.54C4.38667 7.79333 5.06667 8.14 6 8.58C6.86667 8.99333 7.57333 9.36667 8.12 9.7C8.66667 10.0333 9.13333 10.4733 9.52 11.02C9.92 11.5533 10.12 12.1933 10.12 12.94C10.12 13.6467 9.92 14.3267 9.52 14.98C9.13333 15.6333 8.53333 16.1733 7.72 16.6C6.92 17.0133 5.94667 17.22 4.8 17.22ZM14.135 3.9C13.7083 3.9 13.3883 3.78 13.175 3.54C12.9617 3.3 12.855 2.99333 12.855 2.62C12.855 2.19333 12.9817 1.84 13.235 1.56C13.5017 1.28 13.8617 1.14 14.315 1.14C14.7683 1.14 15.1017 1.26 15.315 1.5C15.5283 1.74 15.635 2.04667 15.635 2.42C15.635 2.87333 15.5017 3.23333 15.235 3.5C14.9817 3.76667 14.6217 3.9 14.155 3.9H14.135ZM13.335 7.44L11.815 7.08V6.02L14.915 5.64H14.955L15.415 6V15.86L17.015 16.02V17H11.715V16.02L13.335 15.84V7.44ZM18.4152 16.02L19.6352 15.84V7.44L18.1952 7.08V6L21.0552 5.64L21.4152 5.9L21.5352 6.7L21.5152 7.34C21.9818 6.91333 22.6152 6.52667 23.4152 6.18C24.2285 5.82 24.9552 5.64 25.5952 5.64C26.3152 5.64 26.8952 5.76 27.3352 6C27.7752 6.24 28.1085 6.61333 28.3352 7.12C28.7618 6.76 29.3552 6.42667 30.1152 6.12C30.8885 5.8 31.6085 5.64 32.2752 5.64C33.1018 5.64 33.7485 5.8 34.2152 6.12C34.6818 6.42667 35.0085 6.91333 35.1952 7.58C35.3952 8.23333 35.4952 9.11333 35.4952 10.22V15.84L36.9352 16.02V17H32.1752V16.02L33.4152 15.84V10.28C33.4152 9.50667 33.3552 8.89333 33.2352 8.44C33.1285 7.97333 32.9152 7.62667 32.5952 7.4C32.2885 7.17333 31.8418 7.06 31.2552 7.06C30.8152 7.06 30.3485 7.16 29.8552 7.36C29.3618 7.54667 28.9418 7.77333 28.5952 8.04C28.7152 8.56 28.7752 9.3 28.7752 10.26V15.84L30.1952 16.02V17H25.3552V16.02L26.6752 15.84V10.24C26.6752 9.44 26.6218 8.82 26.5152 8.38C26.4218 7.94 26.2352 7.61333 25.9552 7.4C25.6752 7.17333 25.2485 7.06 24.6752 7.06C24.1952 7.06 23.6818 7.18 23.1352 7.42C22.6018 7.66 22.1352 7.94 21.7352 8.26V15.84L23.0752 16.02V17H18.4152V16.02ZM49.1575 11.06C49.1575 12.1933 48.9242 13.2333 48.4575 14.18C47.9908 15.1133 47.3242 15.8533 46.4575 16.4C45.5908 16.9467 44.5775 17.22 43.4175 17.22C43.0975 17.22 42.7508 17.1933 42.3775 17.14C42.0042 17.0867 41.7042 17.02 41.4775 16.94L41.5375 18.62V20.64L43.6175 20.86V21.84H38.0375V20.86L39.4775 20.64V7.44L38.0175 7.08V6L40.8575 5.64H40.8975L41.3175 6V7.18C41.7175 6.74 42.2108 6.36667 42.7975 6.06C43.3975 5.75333 44.0642 5.6 44.7975 5.6C45.5842 5.6 46.3042 5.79333 46.9575 6.18C47.6242 6.56667 48.1575 7.16667 48.5575 7.98C48.9575 8.79333 49.1575 9.82 49.1575 11.06ZM43.9775 7C43.4708 7 42.9975 7.10667 42.5575 7.32C42.1175 7.53333 41.7775 7.76667 41.5375 8.02V15.56C41.6308 15.72 41.8642 15.8667 42.2375 16C42.6242 16.12 43.0442 16.18 43.4975 16.18C44.5242 16.18 45.3508 15.7733 45.9775 14.96C46.6175 14.1467 46.9375 12.92 46.9375 11.28C46.9375 9.84 46.6575 8.76667 46.0975 8.06C45.5508 7.35333 44.8442 7 43.9775 7ZM52.3561 2.08L50.7361 1.86V1L53.9561 0.619999H53.9961L54.4361 0.92V15.86L56.1361 16.02V17H50.7361V16.02L52.3561 15.84V2.08ZM59.1763 21.98C58.9496 21.98 58.7229 21.9667 58.4963 21.94C58.2829 21.9133 58.1296 21.8733 58.0363 21.82V20.08C58.1163 20.1333 58.2696 20.1733 58.4963 20.2C58.7363 20.2267 58.9629 20.24 59.1763 20.24C59.8163 20.24 60.3763 20.0133 60.8563 19.56C61.3496 19.12 61.8229 18.2667 62.2763 17H61.3163L57.5163 7.1L56.5962 6.84V5.9H61.4163V6.84L59.8763 7.08L61.8363 12.98L62.7563 15.9L63.6163 12.96L65.3963 7.08L64.0563 6.84V5.9H68.0763V6.84L67.0763 7.08C65.1163 13.08 63.9629 16.4867 63.6163 17.3C63.1629 18.4467 62.7496 19.34 62.3763 19.98C62.0029 20.6333 61.5629 21.1267 61.0563 21.46C60.5496 21.8067 59.9229 21.98 59.1763 21.98ZM78.6477 17.22C77.9543 17.22 77.3343 17.16 76.7877 17.04C76.241 16.92 75.641 16.76 74.9877 16.56C74.5877 16.4133 74.2877 16.3333 74.0877 16.32L74.2477 12.7H75.5277L75.8677 15.3C76.0943 15.5133 76.461 15.7067 76.9677 15.88C77.4877 16.04 78.0543 16.12 78.6677 16.12C79.681 16.12 80.4477 15.8933 80.9677 15.44C81.501 14.9867 81.7677 14.36 81.7677 13.56C81.7677 13.04 81.621 12.5933 81.3277 12.22C81.0477 11.8467 80.6677 11.5267 80.1877 11.26C79.721 10.9933 79.0743 10.68 78.2477 10.32C77.501 9.98667 76.8477 9.64667 76.2877 9.3C75.741 8.95333 75.261 8.49333 74.8477 7.92C74.4477 7.33333 74.2477 6.63333 74.2477 5.82C74.2477 5.08667 74.441 4.43333 74.8277 3.86C75.2277 3.27333 75.7943 2.81333 76.5277 2.48C77.2743 2.14667 78.141 1.98 79.1277 1.98C79.741 1.98 80.281 2.02667 80.7477 2.12C81.2277 2.21333 81.7677 2.34 82.3677 2.5C82.6343 2.59333 82.861 2.65333 83.0477 2.68L82.9277 6.04H81.7077L81.3077 3.58C81.1743 3.44667 80.8943 3.32 80.4677 3.2C80.0543 3.08 79.601 3.02 79.1077 3.02C78.1877 3.02 77.4877 3.21333 77.0077 3.6C76.541 3.98667 76.3077 4.54667 76.3077 5.28C76.3077 5.81333 76.4477 6.26 76.7277 6.62C77.021 6.98 77.381 7.28667 77.8077 7.54C78.2343 7.79333 78.9143 8.14 79.8477 8.58C80.7143 8.99333 81.421 9.36667 81.9677 9.7C82.5143 10.0333 82.981 10.4733 83.3677 11.02C83.7677 11.5533 83.9677 12.1933 83.9677 12.94C83.9677 13.6467 83.7677 14.3267 83.3677 14.98C82.981 15.6333 82.381 16.1733 81.5677 16.6C80.7677 17.0133 79.7943 17.22 78.6477 17.22ZM89.0427 17.2C88.2827 17.2 87.716 17.0267 87.3427 16.68C86.9693 16.3333 86.7827 15.74 86.7827 14.9V7.22H85.3427V6.32C85.4093 6.30667 85.596 6.26 85.9027 6.18C86.2093 6.1 86.416 6.02667 86.5227 5.96C86.736 5.84 86.9027 5.6 87.0227 5.24C87.1293 4.98667 87.256 4.58 87.4027 4.02C87.5493 3.46 87.636 3.12667 87.6627 3.02H88.8427L88.8827 5.9H92.2227V7.22H88.8827V13.36C88.8827 14.12 88.9027 14.6533 88.9427 14.96C88.996 15.2667 89.096 15.4667 89.2427 15.56C89.4027 15.6533 89.6693 15.7 90.0427 15.7C90.4027 15.7 90.796 15.6533 91.2227 15.56C91.6627 15.4667 92.0027 15.3667 92.2427 15.26L92.5427 16.16C92.2227 16.4 91.7027 16.6333 90.9827 16.86C90.276 17.0867 89.6293 17.2 89.0427 17.2ZM98.6872 17.22C97.0739 17.22 95.8405 16.6933 94.9872 15.64C94.1472 14.5867 93.7272 13.18 93.7272 11.42C93.7272 10.26 93.9472 9.24 94.3872 8.36C94.8272 7.48 95.4405 6.8 96.2272 6.32C97.0272 5.84 97.9339 5.6 98.9472 5.6C100.187 5.6 101.147 5.94667 101.827 6.64C102.521 7.32 102.887 8.3 102.927 9.58C102.927 10.3933 102.881 11.0133 102.787 11.44H95.9072C95.9339 12.76 96.2405 13.8267 96.8272 14.64C97.4139 15.44 98.2472 15.84 99.3272 15.84C99.8605 15.84 100.414 15.7467 100.987 15.56C101.574 15.36 102.027 15.1267 102.347 14.86L102.727 15.74C102.341 16.14 101.767 16.4867 101.007 16.78C100.247 17.0733 99.4739 17.22 98.6872 17.22ZM100.727 10.38C100.767 10.1 100.787 9.81333 100.787 9.52C100.774 8.65333 100.587 7.97333 100.227 7.48C99.8805 6.97333 99.3272 6.72 98.5672 6.72C97.7939 6.72 97.1739 7 96.7072 7.56C96.2539 8.12 95.9939 9.06 95.9272 10.38H100.727ZM106.106 2.08L104.486 1.86V1L107.706 0.619999H107.746L108.186 0.92V15.86L109.886 16.02V17H104.486V16.02L106.106 15.84V2.08ZM112.766 2.08L111.146 1.86V1L114.366 0.619999H114.406L114.846 0.92V15.86L116.546 16.02V17H111.146V16.02L112.766 15.84V2.08ZM117.966 14C117.966 12.7467 118.593 11.8267 119.846 11.24C121.1 10.64 122.686 10.32 124.606 10.28V9.72C124.606 9.09333 124.54 8.6 124.406 8.24C124.273 7.88 124.04 7.62 123.706 7.46C123.386 7.28667 122.926 7.2 122.326 7.2C121.646 7.2 121.033 7.3 120.486 7.5C119.953 7.68667 119.42 7.92 118.886 8.2L118.386 7.16C118.56 7.01333 118.88 6.82 119.346 6.58C119.813 6.34 120.353 6.12667 120.966 5.94C121.58 5.75333 122.193 5.66 122.806 5.66C123.753 5.66 124.5 5.79333 125.046 6.06C125.606 6.31333 126.006 6.72667 126.246 7.3C126.486 7.87333 126.606 8.64 126.606 9.6V16.02H127.786V16.9C127.52 16.9667 127.18 17.0333 126.766 17.1C126.366 17.1667 126.013 17.2 125.706 17.2C125.333 17.2 125.08 17.14 124.946 17.02C124.813 16.9133 124.746 16.6667 124.746 16.28V15.62C124.346 16.02 123.853 16.3867 123.266 16.72C122.693 17.0533 122.04 17.22 121.306 17.22C120.346 17.22 119.546 16.9467 118.906 16.4C118.28 15.84 117.966 15.04 117.966 14ZM122.166 15.86C122.513 15.86 122.913 15.7533 123.366 15.54C123.82 15.3267 124.233 15.0733 124.606 14.78V11.34C123.153 11.34 122.053 11.5667 121.306 12.02C120.573 12.46 120.206 13.04 120.206 13.76C120.206 14.48 120.38 15.0133 120.726 15.36C121.086 15.6933 121.566 15.86 122.166 15.86ZM129.217 16.02L130.717 15.9V7.44L129.277 7.08V6L132.037 5.64H132.077L132.517 6V6.36L132.457 7.92H132.517C132.651 7.69333 132.891 7.4 133.237 7.04C133.584 6.68 134.031 6.35333 134.577 6.06C135.124 5.75333 135.717 5.6 136.357 5.6C136.624 5.6 136.844 5.63333 137.017 5.7V7.94C136.924 7.87333 136.771 7.81333 136.557 7.76C136.357 7.69333 136.131 7.66 135.877 7.66C134.771 7.66 133.744 8 132.797 8.68V15.88L135.337 16.04V17H129.217V16.02Z" fill="white"/>
</svg>
