<svg width="40" height="42" viewBox="0 0 40 42" fill="none" xmlns="http://www.w3.org/2000/svg">
<g clip-path="url(#clip0_20_57)">
<path d="M11.9192 41.3805C10.1684 41.3805 8.60273 41.229 7.22223 40.9259C5.84177 40.6229 4.32661 40.2189 2.67678 39.7138C1.66668 39.3434 0.909105 39.1414 0.404053 39.1077L0.808091 29.9663H4.04042L4.899 36.532C5.47141 37.0707 6.39732 37.5589 7.67677 37.9966C8.98991 38.4007 10.4209 38.6027 11.9697 38.6027C14.5286 38.6027 16.4647 38.0303 17.7778 36.8855C19.1246 35.7407 19.798 34.1582 19.798 32.1381C19.798 30.8249 19.4276 29.697 18.6869 28.7542C17.9798 27.8115 17.0202 27.0034 15.8081 26.33C14.6296 25.6566 12.9966 24.8653 10.9091 23.9562C9.02359 23.1145 7.37373 22.2559 5.95959 21.3805C4.57914 20.5051 3.36701 19.3434 2.32325 17.8956C1.31315 16.4141 0.808091 14.6465 0.808091 12.5926C0.808091 10.7407 1.29631 9.09092 2.27274 7.6431C3.28284 6.1616 4.71382 5.00001 6.56568 4.15826C8.45118 3.31651 10.6397 2.89563 13.1313 2.89563C14.6801 2.89563 16.0438 3.01348 17.2222 3.24917C18.4344 3.48486 19.798 3.80472 21.3131 4.20876C21.9865 4.44445 22.559 4.59597 23.0303 4.66333L22.7273 13.1481H19.6465L18.6364 6.93601C18.2997 6.59933 17.5926 6.27947 16.5152 5.97642C15.4714 5.67342 14.3266 5.52188 13.0808 5.52188C10.7576 5.52188 8.98991 6.0101 7.77777 6.98656C6.59932 7.96297 6.01009 9.3771 6.01009 11.229C6.01009 12.5758 6.36364 13.7037 7.07073 14.6128C7.81145 15.5219 8.72055 16.2963 9.798 16.936C10.8755 17.5758 12.5926 18.4512 14.9495 19.5623C17.138 20.6061 18.9226 21.5488 20.303 22.3906C21.6835 23.2323 22.862 24.3434 23.8384 25.7239C24.8485 27.0707 25.3535 28.6869 25.3535 30.5724C25.3535 32.3569 24.8485 34.0741 23.8384 35.7239C22.862 37.3737 21.3468 38.7374 19.293 39.8148C17.2727 40.8586 14.8148 41.3805 11.9192 41.3805Z" fill="#161618"/>
<path d="M33.3418 4.99994L33.266 2.85346V0.0756836H35.2105V2.85346L35.0842 4.99994L37.0034 4.87367H39.9327V6.79285H37.0034L35.0842 6.71708L35.2105 8.81303V11.7676H33.266V8.81303L33.3418 6.71708L31.1448 6.79285H28.5438V4.87367H31.1448L33.3418 4.99994Z" fill="#161618"/>
</g>
<defs>
<clipPath id="clip0_20_57">
<rect width="40" height="41.8182" fill="white"/>
</clipPath>
</defs>
</svg>
