<svg width="89" height="93" viewBox="0 0 89 93" fill="none" xmlns="http://www.w3.org/2000/svg">
<path d="M26.2222 92.037C22.3704 92.037 18.926 91.7037 15.8889 91.037C12.8519 90.3704 9.51855 89.4815 5.88892 88.3704C3.66669 87.5555 2.00003 87.1111 0.888916 87.037L1.7778 66.9259H8.88892L10.7778 81.3704C12.0371 82.5555 14.0741 83.6296 16.8889 84.5926C19.7778 85.4815 22.926 85.9259 26.3334 85.9259C31.963 85.9259 36.2223 84.6666 39.1111 82.1481C42.0741 79.6296 43.5556 76.1481 43.5556 71.7037C43.5556 68.8148 42.7408 66.3333 41.1111 64.2592C39.5556 62.1852 37.4445 60.4074 34.7778 58.9259C32.1852 57.4444 28.5926 55.7037 24 53.7037C19.8519 51.8518 16.2222 49.963 13.1111 48.037C10.0741 46.1111 7.40743 43.5555 5.11114 40.3704C2.88892 37.1111 1.7778 33.2222 1.7778 28.7037C1.7778 24.6296 2.85188 21 5.00003 17.8148C7.22225 14.5555 10.3704 12 14.4445 10.1481C18.5926 8.29629 23.4074 7.37036 28.8889 7.37036C32.2963 7.37036 35.2963 7.62962 37.8889 8.14814C40.5556 8.66666 43.5556 9.37036 46.8889 10.2592C48.3704 10.7778 49.6297 11.1111 50.6667 11.2593L50 29.9259H43.2223L41 16.2592C40.2593 15.5185 38.7037 14.8148 36.3334 14.1481C34.0371 13.4815 31.5185 13.1481 28.7778 13.1481C23.6667 13.1481 19.7778 14.2222 17.1111 16.3704C14.5185 18.5185 13.2222 21.6296 13.2222 25.7037C13.2222 28.6667 14 31.1481 15.5556 33.1481C17.1852 35.1481 19.1852 36.8518 21.5556 38.2592C23.926 39.6667 27.7037 41.5926 32.8889 44.037C37.7037 46.3333 41.6297 48.4074 44.6667 50.2592C47.7037 52.1111 50.2963 54.5555 52.4445 57.5926C54.6667 60.5555 55.7778 64.1111 55.7778 68.2592C55.7778 72.1852 54.6667 75.9629 52.4445 79.5926C50.2963 83.2222 46.963 86.2222 42.4445 88.5926C38 90.8889 32.5926 92.037 26.2222 92.037Z" fill="#161618" stroke="white"/>
<path d="M73.3518 12L73.1851 7.27774V1.16663H77.4629V7.27774L77.1851 12L81.4074 11.7222H87.8518V15.9444H81.4074L77.1851 15.7777L77.4629 20.3888V26.8888H73.1851V20.3888L73.3518 15.7777L68.5185 15.9444H62.7963V11.7222H68.5185L73.3518 12Z" fill="#161618" stroke="white"/>
</svg>
