<svg width="60" height="63" viewBox="0 0 60 63" fill="none" xmlns="http://www.w3.org/2000/svg">
<g clip-path="url(#clip0_20_57)">
<path d="M17.8788 62.0706C15.2525 62.0706 12.9041 61.8434 10.8333 61.3888C8.76266 60.9343 6.48992 60.3282 4.01517 59.5707C2.50002 59.0151 1.36366 58.7121 0.606079 58.6615L1.21214 44.9494H6.06063L7.3485 54.798C8.20711 55.606 9.59598 56.3383 11.5152 56.9949C13.4849 57.601 15.6314 57.904 17.9546 57.904C21.793 57.904 24.697 57.0454 26.6667 55.3282C28.6869 53.611 29.697 51.2373 29.697 48.207C29.697 46.2373 29.1415 44.5454 28.0303 43.1312C26.9697 41.7171 25.5303 40.505 23.7121 39.4949C21.9445 38.4848 19.495 37.2979 16.3636 35.9343C13.5354 34.6716 11.0606 33.3838 8.93939 32.0706C6.8687 30.7575 5.05052 29.0151 3.48487 26.8434C1.96972 24.6212 1.21214 21.9696 1.21214 18.8888C1.21214 16.111 1.94446 13.6363 3.40911 11.4646C4.92426 9.24234 7.07073 7.49996 9.84852 6.23732C12.6768 4.9747 15.9596 4.34338 19.697 4.34338C22.0202 4.34338 24.0657 4.52015 25.8333 4.87369C27.6515 5.22722 29.697 5.70702 31.9697 6.31308C32.9798 6.66662 33.8384 6.89389 34.5455 6.99493L34.0909 19.7222H29.4698L27.9545 10.404C27.4495 9.89893 26.3889 9.41914 24.7728 8.96457C23.2071 8.51007 21.4899 8.28275 19.6212 8.28275C16.1364 8.28275 13.4849 9.01509 11.6667 10.4798C9.89898 11.9444 9.01514 14.0656 9.01514 16.8434C9.01514 18.8636 9.54545 20.5555 10.6061 21.9191C11.7172 23.2828 13.0808 24.4444 14.697 25.404C16.3132 26.3636 18.8889 27.6767 22.4243 29.3434C25.7071 30.909 28.3839 32.3232 30.4546 33.5858C32.5252 34.8484 34.2929 36.5151 35.7576 38.5858C37.2728 40.606 38.0303 43.0302 38.0303 45.8585C38.0303 48.5353 37.2728 51.111 35.7576 53.5858C34.2929 56.0605 32.0202 58.106 28.9394 59.7222C25.9091 61.2878 22.2222 62.0706 17.8788 62.0706Z" fill="#161618"/>
<path d="M50.0126 7.50004L49.8989 4.28032V0.113647H52.8156V4.28032L52.6262 7.50004L55.5051 7.31063H59.899V10.1894H55.5051L52.6262 10.0757L52.8156 13.2197V17.6515H49.8989V13.2197L50.0126 10.0757L46.7172 10.1894H42.8157V7.31063H46.7172L50.0126 7.50004Z" fill="#161618"/>
</g>
<defs>
<clipPath id="clip0_20_57">
<rect width="60" height="62.7273" fill="white"/>
</clipPath>
</defs>
</svg>
