<svg width="275" height="43" viewBox="0 0 275 43" fill="none" xmlns="http://www.w3.org/2000/svg">
<path d="M9.6 33.44C8.21333 33.44 6.97333 33.32 5.88 33.08C4.78667 32.84 3.58667 32.52 2.28 32.12C1.48 31.8267 0.88 31.6667 0.48 31.64L0.8 24.4H3.36L4.04 29.6C4.49333 30.0267 5.22667 30.4133 6.24 30.76C7.28 31.08 8.41333 31.24 9.64 31.24C11.6667 31.24 13.2 30.7867 14.24 29.88C15.3067 28.9733 15.84 27.72 15.84 26.12C15.84 25.08 15.5467 24.1867 14.96 23.44C14.4 22.6933 13.64 22.0533 12.68 21.52C11.7467 20.9867 10.4533 20.36 8.8 19.64C7.30667 18.9733 6 18.2933 4.88 17.6C3.78667 16.9067 2.82667 15.9867 2 14.84C1.2 13.6667 0.8 12.2667 0.8 10.64C0.8 9.17333 1.18667 7.86667 1.96 6.72C2.76 5.54667 3.89333 4.62667 5.36 3.96C6.85333 3.29333 8.58667 2.96 10.56 2.96C11.7867 2.96 12.8667 3.05333 13.8 3.24C14.76 3.42667 15.84 3.68 17.04 4C17.5733 4.18666 18.0267 4.30666 18.4 4.36L18.16 11.08H15.72L14.92 6.16C14.6533 5.89333 14.0933 5.64 13.24 5.4C12.4133 5.16 11.5067 5.04 10.52 5.04C8.68 5.04 7.28 5.42666 6.32 6.2C5.38667 6.97333 4.92 8.09333 4.92 9.56C4.92 10.6267 5.2 11.52 5.76 12.24C6.34667 12.96 7.06667 13.5733 7.92 14.08C8.77333 14.5867 10.1333 15.28 12 16.16C13.7333 16.9867 15.1467 17.7333 16.24 18.4C17.3333 19.0667 18.2667 19.9467 19.04 21.04C19.84 22.1067 20.24 23.3867 20.24 24.88C20.24 26.2933 19.84 27.6533 19.04 28.96C18.2667 30.2667 17.0667 31.3467 15.44 32.2C13.84 33.0267 11.8933 33.44 9.6 33.44ZM28.27 6.8C27.4167 6.8 26.7767 6.56 26.35 6.08C25.9233 5.6 25.71 4.98666 25.71 4.24C25.71 3.38666 25.9633 2.68 26.47 2.12C27.0033 1.56 27.7233 1.28 28.63 1.28C29.5367 1.28 30.2033 1.52 30.63 2C31.0567 2.48 31.27 3.09333 31.27 3.84C31.27 4.74666 31.0033 5.46667 30.47 6C29.9633 6.53333 29.2433 6.8 28.31 6.8H28.27ZM26.67 13.88L23.63 13.16V11.04L29.83 10.28H29.91L30.83 11V30.72L34.03 31.04V33H23.43V31.04L26.67 30.68V13.88ZM36.8303 31.04L39.2703 30.68V13.88L36.3903 13.16V11L42.1103 10.28L42.8303 10.8L43.0703 12.4L43.0303 13.68C43.9636 12.8267 45.2303 12.0533 46.8303 11.36C48.457 10.64 49.9103 10.28 51.1903 10.28C52.6303 10.28 53.7903 10.52 54.6703 11C55.5503 11.48 56.217 12.2267 56.6703 13.24C57.5236 12.52 58.7103 11.8533 60.2303 11.24C61.777 10.6 63.217 10.28 64.5503 10.28C66.2036 10.28 67.497 10.6 68.4303 11.24C69.3636 11.8533 70.017 12.8267 70.3903 14.16C70.7903 15.4667 70.9903 17.2267 70.9903 19.44V30.68L73.8703 31.04V33H64.3503V31.04L66.8303 30.68V19.56C66.8303 18.0133 66.7103 16.7867 66.4703 15.88C66.257 14.9467 65.8303 14.2533 65.1903 13.8C64.577 13.3467 63.6836 13.12 62.5103 13.12C61.6303 13.12 60.697 13.32 59.7103 13.72C58.7236 14.0933 57.8836 14.5467 57.1903 15.08C57.4303 16.12 57.5503 17.6 57.5503 19.52V30.68L60.3903 31.04V33H50.7103V31.04L53.3503 30.68V19.48C53.3503 17.88 53.2436 16.64 53.0303 15.76C52.8436 14.88 52.4703 14.2267 51.9103 13.8C51.3503 13.3467 50.497 13.12 49.3503 13.12C48.3903 13.12 47.3636 13.36 46.2703 13.84C45.2036 14.32 44.2703 14.88 43.4703 15.52V30.68L46.1503 31.04V33H36.8303V31.04ZM98.315 21.12C98.315 23.3867 97.8483 25.4667 96.915 27.36C95.9817 29.2267 94.6483 30.7067 92.915 31.8C91.1817 32.8933 89.155 33.44 86.835 33.44C86.195 33.44 85.5017 33.3867 84.755 33.28C84.0083 33.1733 83.4083 33.04 82.955 32.88L83.075 36.24V40.28L87.235 40.72V42.68H76.075V40.72L78.955 40.28V13.88L76.035 13.16V11L81.715 10.28H81.795L82.635 11V13.36C83.435 12.48 84.4217 11.7333 85.595 11.12C86.795 10.5067 88.1283 10.2 89.595 10.2C91.1683 10.2 92.6083 10.5867 93.915 11.36C95.2483 12.1333 96.315 13.3333 97.115 14.96C97.915 16.5867 98.315 18.64 98.315 21.12ZM87.955 13C86.9417 13 85.995 13.2133 85.115 13.64C84.235 14.0667 83.555 14.5333 83.075 15.04V30.12C83.2617 30.44 83.7283 30.7333 84.475 31C85.2483 31.24 86.0883 31.36 86.995 31.36C89.0483 31.36 90.7017 30.5467 91.955 28.92C93.235 27.2933 93.875 24.84 93.875 21.56C93.875 18.68 93.315 16.5333 92.195 15.12C91.1017 13.7067 89.6883 13 87.955 13ZM104.712 3.16L101.472 2.72V1L107.912 0.239997H107.992L108.872 0.839999V30.72L112.272 31.04V33H101.472V31.04L104.712 30.68V3.16ZM118.353 42.96C117.899 42.96 117.446 42.9333 116.993 42.88C116.566 42.8267 116.259 42.7467 116.073 42.64V39.16C116.233 39.2667 116.539 39.3467 116.993 39.4C117.473 39.4533 117.926 39.48 118.353 39.48C119.633 39.48 120.753 39.0267 121.713 38.12C122.699 37.24 123.646 35.5333 124.553 33H122.633L115.033 13.2L113.192 12.68V10.8H122.833V12.68L119.753 13.16L123.673 24.96L125.513 30.8L127.233 24.92L130.793 13.16L128.113 12.68V10.8H136.153V12.68L134.153 13.16C130.233 25.16 127.926 31.9733 127.233 33.6C126.326 35.8933 125.499 37.68 124.753 38.96C124.006 40.2667 123.126 41.2533 122.113 41.92C121.099 42.6133 119.846 42.96 118.353 42.96ZM157.295 33.44C155.909 33.44 154.669 33.32 153.575 33.08C152.482 32.84 151.282 32.52 149.975 32.12C149.175 31.8267 148.575 31.6667 148.175 31.64L148.495 24.4H151.055L151.735 29.6C152.189 30.0267 152.922 30.4133 153.935 30.76C154.975 31.08 156.109 31.24 157.335 31.24C159.362 31.24 160.895 30.7867 161.935 29.88C163.002 28.9733 163.535 27.72 163.535 26.12C163.535 25.08 163.242 24.1867 162.655 23.44C162.095 22.6933 161.335 22.0533 160.375 21.52C159.442 20.9867 158.149 20.36 156.495 19.64C155.002 18.9733 153.695 18.2933 152.575 17.6C151.482 16.9067 150.522 15.9867 149.695 14.84C148.895 13.6667 148.495 12.2667 148.495 10.64C148.495 9.17333 148.882 7.86667 149.655 6.72C150.455 5.54667 151.589 4.62667 153.055 3.96C154.549 3.29333 156.282 2.96 158.255 2.96C159.482 2.96 160.562 3.05333 161.495 3.24C162.455 3.42667 163.535 3.68 164.735 4C165.269 4.18666 165.722 4.30666 166.095 4.36L165.855 11.08H163.415L162.615 6.16C162.349 5.89333 161.789 5.64 160.935 5.4C160.109 5.16 159.202 5.04 158.215 5.04C156.375 5.04 154.975 5.42666 154.015 6.2C153.082 6.97333 152.615 8.09333 152.615 9.56C152.615 10.6267 152.895 11.52 153.455 12.24C154.042 12.96 154.762 13.5733 155.615 14.08C156.469 14.5867 157.829 15.28 159.695 16.16C161.429 16.9867 162.842 17.7333 163.935 18.4C165.029 19.0667 165.962 19.9467 166.735 21.04C167.535 22.1067 167.935 23.3867 167.935 24.88C167.935 26.2933 167.535 27.6533 166.735 28.96C165.962 30.2667 164.762 31.3467 163.135 32.2C161.535 33.0267 159.589 33.44 157.295 33.44ZM178.085 33.4C176.565 33.4 175.432 33.0533 174.685 32.36C173.939 31.6667 173.565 30.48 173.565 28.8V13.44H170.685V11.64C170.819 11.6133 171.192 11.52 171.805 11.36C172.419 11.2 172.832 11.0533 173.045 10.92C173.472 10.68 173.805 10.2 174.045 9.48C174.259 8.97333 174.512 8.16 174.805 7.04C175.099 5.92 175.272 5.25333 175.325 5.04H177.685L177.765 10.8H184.445V13.44H177.765V25.72C177.765 27.24 177.805 28.3067 177.885 28.92C177.992 29.5333 178.192 29.9333 178.485 30.12C178.805 30.3067 179.339 30.4 180.085 30.4C180.805 30.4 181.592 30.3067 182.445 30.12C183.325 29.9333 184.005 29.7333 184.485 29.52L185.085 31.32C184.445 31.8 183.405 32.2667 181.965 32.72C180.552 33.1733 179.259 33.4 178.085 33.4ZM197.374 33.44C194.148 33.44 191.681 32.3867 189.974 30.28C188.294 28.1733 187.454 25.36 187.454 21.84C187.454 19.52 187.894 17.48 188.774 15.72C189.654 13.96 190.881 12.6 192.454 11.64C194.054 10.68 195.868 10.2 197.894 10.2C200.374 10.2 202.294 10.8933 203.654 12.28C205.041 13.64 205.774 15.6 205.854 18.16C205.854 19.7867 205.761 21.0267 205.574 21.88H191.814C191.868 24.52 192.481 26.6533 193.654 28.28C194.828 29.88 196.494 30.68 198.654 30.68C199.721 30.68 200.828 30.4933 201.974 30.12C203.148 29.72 204.054 29.2533 204.694 28.72L205.454 30.48C204.681 31.28 203.534 31.9733 202.014 32.56C200.494 33.1467 198.948 33.44 197.374 33.44ZM201.454 19.76C201.534 19.2 201.574 18.6267 201.574 18.04C201.548 16.3067 201.174 14.9467 200.454 13.96C199.761 12.9467 198.654 12.44 197.134 12.44C195.588 12.44 194.348 13 193.414 14.12C192.508 15.24 191.988 17.12 191.854 19.76H201.454ZM212.212 3.16L208.972 2.72V1L215.412 0.239997H215.492L216.372 0.839999V30.72L219.772 31.04V33H208.972V31.04L212.212 30.68V3.16ZM225.533 3.16L222.293 2.72V1L228.733 0.239997H228.813L229.693 0.839999V30.72L233.093 31.04V33H222.293V31.04L225.533 30.68V3.16ZM235.933 27C235.933 24.4933 237.186 22.6533 239.693 21.48C242.199 20.28 245.373 19.64 249.213 19.56V18.44C249.213 17.1867 249.079 16.2 248.813 15.48C248.546 14.76 248.079 14.24 247.413 13.92C246.773 13.5733 245.853 13.4 244.653 13.4C243.293 13.4 242.066 13.6 240.973 14C239.906 14.3733 238.839 14.84 237.773 15.4L236.773 13.32C237.119 13.0267 237.759 12.64 238.693 12.16C239.626 11.68 240.706 11.2533 241.933 10.88C243.159 10.5067 244.386 10.32 245.613 10.32C247.506 10.32 248.999 10.5867 250.093 11.12C251.213 11.6267 252.013 12.4533 252.493 13.6C252.973 14.7467 253.213 16.28 253.213 18.2V31.04H255.573V32.8C255.039 32.9333 254.359 33.0667 253.533 33.2C252.733 33.3333 252.026 33.4 251.413 33.4C250.666 33.4 250.159 33.28 249.893 33.04C249.626 32.8267 249.493 32.3333 249.493 31.56V30.24C248.693 31.04 247.706 31.7733 246.533 32.44C245.386 33.1067 244.079 33.44 242.613 33.44C240.693 33.44 239.093 32.8933 237.813 31.8C236.559 30.68 235.933 29.08 235.933 27ZM244.333 30.72C245.026 30.72 245.826 30.5067 246.733 30.08C247.639 29.6533 248.466 29.1467 249.213 28.56V21.68C246.306 21.68 244.106 22.1333 242.613 23.04C241.146 23.92 240.413 25.08 240.413 26.52C240.413 27.96 240.759 29.0267 241.453 29.72C242.173 30.3867 243.133 30.72 244.333 30.72ZM258.435 31.04L261.435 30.8V13.88L258.555 13.16V11L264.075 10.28H264.155L265.035 11V11.72L264.915 14.84H265.035C265.301 14.3867 265.781 13.8 266.475 13.08C267.168 12.36 268.061 11.7067 269.155 11.12C270.248 10.5067 271.435 10.2 272.715 10.2C273.248 10.2 273.688 10.2667 274.035 10.4V14.88C273.848 14.7467 273.541 14.6267 273.115 14.52C272.715 14.3867 272.261 14.32 271.755 14.32C269.541 14.32 267.488 15 265.595 16.36V30.76L270.675 31.08V33H258.435V31.04Z" fill="white"/>
</svg>
