<svg width="48" height="48" viewBox="0 0 48 48" fill="none" xmlns="http://www.w3.org/2000/svg">
<path d="M20.6915 29.7146C20.6454 29.1919 20.1828 28.8045 19.6602 28.8506L18.1533 28.9836C17.9478 28.4552 17.6851 27.951 17.3688 27.4786L18.3397 26.3193C18.5002 26.1275 18.5803 25.8744 18.5582 25.6244C18.5358 25.3709 18.4164 25.1418 18.2214 24.9786L16.3031 23.3711C15.929 23.0573 15.277 23.1142 14.9628 23.4894L13.9915 24.6488C13.4716 24.4198 12.9285 24.2495 12.3721 24.1395L12.2392 22.633C12.1931 22.1104 11.7305 21.7228 11.2082 21.7689L8.71459 21.9889C8.19192 22.035 7.80455 22.4976 7.85067 23.0203L7.98361 24.5269C7.45505 24.7327 6.95019 24.9954 6.47822 25.3119L5.31884 24.3405C4.9293 24.0143 4.3052 24.0694 3.97901 24.4587L2.37115 26.3773C2.03428 26.7794 2.08731 27.3805 2.48939 27.7174L3.64856 28.6887C3.41984 29.2093 3.24956 29.7521 3.13952 30.3083L1.63307 30.4412C1.1104 30.4873 0.722819 30.9499 0.768917 31.4724L0.988901 33.9656C1.03502 34.4883 1.49759 34.8756 2.02027 34.8295L3.52693 34.6966C3.73245 35.225 3.99536 35.7296 4.31167 36.2018L3.3407 37.3609C3.18003 37.5527 3.10017 37.806 3.12221 38.0558C3.14456 38.3091 3.26402 38.5386 3.45878 38.7016L5.37731 40.3088C5.75157 40.6226 6.40366 40.5659 6.71755 40.1906L7.68893 39.0312C8.20902 39.26 8.7519 39.4307 9.30851 39.5404L9.44145 41.0471C9.48757 41.5698 9.95016 41.9574 10.4726 41.9113L12.966 41.6913C13.4887 41.6451 13.8759 41.1826 13.8298 40.6599L13.6968 39.1533C14.2254 38.9477 14.7302 38.685 15.202 38.3683L16.3614 39.3397C16.7511 39.666 17.3748 39.611 17.7012 39.2215L19.3089 37.3031C19.6457 36.901 19.5927 36.2999 19.1906 35.9631L18.0316 34.9914C18.2604 34.4711 18.4307 33.9283 18.5405 33.3721L20.0472 33.2392C20.5698 33.1931 20.9574 32.7305 20.9113 32.2082L20.6915 29.7146ZM14.2914 31.5357C14.4593 33.4389 13.0477 35.1235 11.1447 35.2914C9.24175 35.4593 7.55693 34.0477 7.38903 32.1447C7.22112 30.2417 8.63273 28.5569 10.5357 28.389C12.4389 28.2211 14.1235 29.6327 14.2914 31.5357Z" fill="white" stroke="#FFECCE" stroke-linejoin="round"/>
<path d="M23.0179 13.0118C22.9243 12.7112 22.6038 12.543 22.3032 12.6366L21.4365 12.9064C21.2488 12.6227 21.0306 12.3605 20.785 12.1238L21.2067 11.3204C21.2764 11.1876 21.2911 11.0289 21.2463 10.8852C21.2009 10.7394 21.1018 10.6202 20.9667 10.5494L19.6372 9.85108C19.378 9.71471 19.0029 9.83108 18.8664 10.091L18.4445 10.8945C18.1105 10.8264 17.7704 10.7957 17.4301 10.802L17.1604 9.93566C17.0669 9.63507 16.7463 9.46671 16.4459 9.56021L15.0118 10.0067C14.7112 10.1002 14.543 10.4208 14.6366 10.7214L14.9063 11.5879C14.6226 11.7758 14.36 11.9941 14.1236 12.2398L13.3201 11.8178C13.0502 11.6761 12.6913 11.7879 12.5496 12.0577L11.8511 13.3873C11.7047 13.6659 11.8124 14.0116 12.091 14.158L12.8943 14.58C12.8265 14.9143 12.7957 15.2542 12.802 15.5944L11.9357 15.8641C11.6351 15.9577 11.4667 16.2782 11.5602 16.5787L12.0066 18.0126C12.1002 18.3132 12.4207 18.4814 12.7213 18.3878L13.5878 18.1181C13.7756 18.4017 13.994 18.6641 14.2396 18.9007L13.8178 19.704C13.748 19.8369 13.7334 19.9956 13.7781 20.1392C13.8235 20.2849 13.9228 20.4043 14.0577 20.4751L15.3872 21.1732C15.6466 21.3095 16.0217 21.1933 16.158 20.9333L16.58 20.1298C16.914 20.1977 17.2541 20.2287 17.5944 20.2222L17.8642 21.0887C17.9577 21.3893 18.2783 21.5577 18.5788 21.4641L20.0128 21.0177C20.3134 20.9241 20.4815 20.6036 20.3879 20.303L20.1182 19.4366C20.4019 19.2487 20.6645 19.0304 20.9008 18.7847L21.7042 19.2067C21.9743 19.3484 22.333 19.2367 22.4748 18.9668L23.1732 17.6373C23.3195 17.3587 23.2119 17.013 22.9333 16.8666L22.13 16.4445C22.1979 16.1103 22.2287 15.7703 22.2222 15.4302L23.0887 15.1605C23.3893 15.0669 23.5577 14.7463 23.4642 14.446L23.0179 13.0118ZM19.4971 14.8944C19.8378 15.9889 19.2246 17.1564 18.1301 17.4971C17.0357 17.8378 15.8682 17.2246 15.5275 16.1302C15.1867 15.0357 15.7999 13.8682 16.8944 13.5275C17.9889 13.1867 19.1564 13.8 19.4971 14.8944Z" fill="white" stroke="#FFECCE" stroke-linejoin="round"/>
<path d="M43.8037 18.1807H38.851L43.6729 4H27.7102L25 27.1143H30.3889L28.0169 43.8541C27.9512 44.3194 28.1882 44.7716 28.5878 44.944C28.988 45.1158 29.4425 44.9613 29.6834 44.5722L46 18.1808H43.8037V18.1807ZM31.286 37.4278L33.1086 24.5621H27.6489L29.7611 6.55229H40.3183L35.4965 20.733H41.608L31.286 37.4278Z" fill="white" stroke="#FFECCE" stroke-linejoin="round"/>
</svg>
