<svg width="48" height="48" viewBox="0 0 48 48" fill="none" xmlns="http://www.w3.org/2000/svg">
<path d="M43 32.7484C43 32.2237 42.5733 31.7972 42.0486 31.7972H40.5358C40.3775 31.2528 40.1602 30.7275 39.8866 30.2291L40.9557 29.1596C41.1324 28.9827 41.2344 28.7375 41.2344 28.4866C41.2344 28.2321 41.1356 27.9934 40.9557 27.8137L39.1861 26.0439C38.8411 25.6984 38.1865 25.6978 37.8406 26.0439L36.7711 27.1134C36.2734 26.8396 35.7474 26.6222 35.2028 26.4637V24.9514C35.2028 24.4267 34.776 24 34.2518 24H31.7484C31.2237 24 30.7972 24.4267 30.7972 24.9514V26.464C30.2526 26.6225 29.7266 26.8398 29.2287 27.1136L28.1591 26.0441C27.7998 25.6849 27.1733 25.6849 26.8141 26.0441L25.0439 27.8139C24.6729 28.1848 24.6729 28.7882 25.0439 29.1591L26.1132 30.2287C25.8396 30.7271 25.6222 31.2528 25.4637 31.7972H23.9514C23.4267 31.7972 23 32.224 23 32.7484V35.2513C23 35.776 23.4267 36.2026 23.9514 36.2026H25.464C25.6222 36.747 25.8398 37.2727 26.1134 37.7709L25.0443 38.8402C24.8674 39.0171 24.7656 39.2625 24.7656 39.5132C24.7656 39.7675 24.8644 40.0066 25.0441 40.1861L26.8139 41.9557C27.1591 42.3012 27.8137 42.302 28.1594 41.9557L29.2289 40.8862C29.7268 41.1598 30.2526 41.3775 30.7974 41.5358V43.0483C30.7974 43.573 31.2242 43.9998 31.7487 43.9998H34.2518C34.7765 43.9998 35.2028 43.573 35.2028 43.0483V41.5358C35.7474 41.3775 36.2734 41.1602 36.7711 40.8862L37.8406 41.9557C38.2002 42.3151 38.8263 42.3151 39.1857 41.9557L40.9557 40.1861C41.3266 39.8152 41.3266 39.2118 40.9557 38.8409L39.8866 37.7711C40.1602 37.2729 40.3775 36.7472 40.5358 36.2028H42.0483C42.573 36.2028 42.9998 35.776 42.9998 35.2518L43 32.7484ZM36.4646 34C36.4646 35.9106 34.9104 37.4646 33 37.4646C31.0896 37.4646 29.5354 35.9104 29.5354 34C29.5354 32.0896 31.0896 30.5354 33 30.5354C34.9106 30.5354 36.4646 32.0896 36.4646 34Z" fill="white" stroke="#FFECCE" stroke-linejoin="round"/>
<path d="M44 16.2491C44 15.9342 43.744 15.6783 43.4291 15.6783H42.5215C42.4265 15.3517 42.2961 15.0365 42.132 14.7375L42.7734 14.0957C42.8794 13.9896 42.9407 13.8425 42.9407 13.692C42.9407 13.5393 42.8814 13.396 42.7734 13.2882L41.7117 12.2263C41.5046 12.019 41.1119 12.0187 40.9044 12.2263L40.2627 12.868C39.964 12.7037 39.6484 12.5733 39.3217 12.4782V11.5709C39.3217 11.256 39.0656 11 38.7511 11H37.2491C36.9342 11 36.6783 11.256 36.6783 11.5709V12.4784C36.3516 12.5735 36.036 12.7039 35.7372 12.8681L35.0955 12.2264C34.8799 12.011 34.504 12.011 34.2885 12.2264L33.2263 13.2883C33.0038 13.5109 33.0038 13.8729 33.2263 14.0955L33.8679 14.7372C33.7037 15.0362 33.5733 15.3517 33.4782 15.6783H32.5709C32.256 15.6783 32 15.9344 32 16.2491V17.7508C32 18.0656 32.256 18.3215 32.5709 18.3215H33.4784C33.5733 18.6482 33.7039 18.9636 33.868 19.2625L33.2266 19.9041C33.1204 20.0103 33.0593 20.1575 33.0593 20.3079C33.0593 20.4605 33.1186 20.604 33.2264 20.7117L34.2883 21.7734C34.4955 21.9807 34.8882 21.9812 35.0956 21.7734L35.7373 21.1317C36.0361 21.2959 36.3516 21.4265 36.6785 21.5215V22.429C36.6785 22.7438 36.9345 22.9999 37.2492 22.9999H38.7511C39.0659 22.9999 39.3217 22.7438 39.3217 22.429V21.5215C39.6484 21.4265 39.964 21.2961 40.2627 21.1317L40.9044 21.7734C41.1201 21.989 41.4958 21.989 41.7114 21.7734L42.7734 20.7117C42.996 20.4891 42.996 20.1271 42.7734 19.9045L42.132 19.2627C42.2961 18.9638 42.4265 18.6483 42.5215 18.3217H43.429C43.7438 18.3217 43.9999 18.0656 43.9999 17.7511L44 16.2491ZM40.0788 17C40.0788 18.1464 39.1462 19.0788 38 19.0788C36.8538 19.0788 35.9212 18.1462 35.9212 17C35.9212 15.8538 36.8538 14.9212 38 14.9212C39.1464 14.9212 40.0788 15.8538 40.0788 17Z" fill="white" stroke="#FFECCE" stroke-linejoin="round"/>
<path d="M24.4899 17.1807H18.8297L24.3404 3H6.09742L3 26.1143H9.15873L6.4479 42.8541C6.37276 43.3194 6.64367 43.7716 7.1003 43.944C7.5577 44.1158 8.07711 43.9613 8.35245 43.5722L27 17.1808H24.4899V17.1807ZM10.184 36.4278L12.267 23.5621H6.02729L8.44122 5.55229H20.5066L14.996 19.733H21.9806L10.184 36.4278Z" fill="white" stroke="#FFECCE" stroke-linejoin="round"/>
</svg>
