<svg width="48" height="48" viewBox="0 0 48 48" fill="none" xmlns="http://www.w3.org/2000/svg">
<g clip-path="url(#clip0_39_68)">
<path d="M24.8633 32.4717C24.8079 31.8436 24.2521 31.3781 23.624 31.4336L21.8133 31.5933C21.5664 30.9584 21.2507 30.3526 20.8706 29.7849L22.0373 28.3918C22.2301 28.1614 22.3264 27.8572 22.2999 27.5569C22.273 27.2522 22.1295 26.9769 21.8952 26.7808L19.5901 24.8493C19.1406 24.4722 18.3571 24.5406 17.9796 24.9914L16.8124 26.3845C16.1877 26.1093 15.5351 25.9048 14.8665 25.7726L14.7068 23.9624C14.6514 23.3343 14.0955 22.8686 13.468 22.924L10.4716 23.1884C9.84356 23.2438 9.37809 23.7996 9.43351 24.4277L9.59325 26.2381C8.95812 26.4853 8.35148 26.801 7.78434 27.1813L6.39121 26.0141C5.92314 25.6222 5.17321 25.6884 4.78126 26.1562L2.84922 28.4616C2.44443 28.9447 2.50815 29.667 2.99129 30.0718L4.38417 31.239C4.10934 31.8645 3.90473 32.5168 3.77251 33.1851L1.96233 33.3448C1.33427 33.4003 0.868552 33.9561 0.923945 34.5839L1.18828 37.5798C1.2437 38.2079 1.79953 38.6733 2.42759 38.6179L4.23802 38.4582C4.48498 39.0931 4.8009 39.6994 5.18098 40.2668L4.01425 41.6597C3.82119 41.8901 3.72523 42.1945 3.7517 42.4946C3.77856 42.799 3.92211 43.0748 4.15613 43.2707L6.46147 45.2019C6.91119 45.579 7.69476 45.5109 8.07193 45.0598L9.23916 43.6667C9.86411 43.9416 10.5164 44.1467 11.1853 44.2786L11.345 46.0891C11.4004 46.7171 11.9563 47.1828 12.5841 47.1274L15.5802 46.8631C16.2083 46.8077 16.6735 46.2519 16.6181 45.6238L16.4583 43.8134C17.0935 43.5664 17.7001 43.2507 18.267 42.8701L19.6601 44.0374C20.1285 44.4295 20.8779 44.3634 21.2701 43.8953L23.2019 41.5902C23.6067 41.1071 23.5429 40.3848 23.0598 39.98L21.6672 38.8125C21.942 38.1873 22.1466 37.535 22.2786 36.8666L24.089 36.7069C24.7171 36.6515 25.1828 36.0956 25.1274 35.4681L24.8633 32.4717ZM17.1728 34.66C17.3746 36.9469 15.6784 38.9711 13.3917 39.1729C11.1051 39.3746 9.08055 37.6784 8.87879 35.3918C8.67703 33.1051 10.3732 31.0806 12.6599 30.8788C14.9468 30.6771 16.9711 32.3733 17.1728 34.66Z" fill="white" stroke="#FFECCE" stroke-linejoin="round"/>
<path d="M22.0179 13.0118C21.9243 12.7112 21.6038 12.543 21.3032 12.6366L20.4365 12.9064C20.2488 12.6227 20.0306 12.3605 19.785 12.1238L20.2067 11.3204C20.2764 11.1876 20.2911 11.0289 20.2463 10.8852C20.2009 10.7394 20.1018 10.6202 19.9667 10.5494L18.6372 9.85108C18.378 9.71471 18.0029 9.83108 17.8664 10.091L17.4445 10.8945C17.1105 10.8264 16.7704 10.7957 16.4301 10.802L16.1604 9.93566C16.0669 9.63507 15.7463 9.46671 15.4459 9.56021L14.0118 10.0067C13.7112 10.1002 13.543 10.4208 13.6366 10.7214L13.9063 11.5879C13.6226 11.7758 13.36 11.9941 13.1236 12.2398L12.3201 11.8178C12.0502 11.6761 11.6913 11.7879 11.5496 12.0577L10.8511 13.3873C10.7047 13.6659 10.8124 14.0116 11.091 14.158L11.8943 14.58C11.8265 14.9143 11.7957 15.2542 11.802 15.5944L10.9357 15.8641C10.6351 15.9577 10.4667 16.2782 10.5602 16.5787L11.0066 18.0126C11.1002 18.3132 11.4207 18.4814 11.7213 18.3878L12.5878 18.1181C12.7756 18.4017 12.994 18.6641 13.2396 18.9007L12.8178 19.704C12.748 19.8369 12.7334 19.9956 12.7781 20.1392C12.8235 20.2849 12.9228 20.4043 13.0577 20.4751L14.3872 21.1732C14.6466 21.3095 15.0217 21.1933 15.158 20.9333L15.58 20.1298C15.914 20.1977 16.2541 20.2287 16.5944 20.2222L16.8642 21.0887C16.9577 21.3893 17.2783 21.5577 17.5788 21.4641L19.0128 21.0177C19.3134 20.9241 19.4815 20.6036 19.3879 20.303L19.1182 19.4366C19.4019 19.2487 19.6645 19.0304 19.9008 18.7847L20.7042 19.2067C20.9743 19.3484 21.333 19.2367 21.4748 18.9668L22.1732 17.6373C22.3195 17.3587 22.2119 17.013 21.9333 16.8666L21.13 16.4445C21.1979 16.1103 21.2287 15.7703 21.2222 15.4302L22.0887 15.1605C22.3893 15.0669 22.5577 14.7463 22.4642 14.446L22.0179 13.0118ZM18.4971 14.8944C18.8378 15.9889 18.2246 17.1564 17.1301 17.4971C16.0357 17.8378 14.8682 17.2246 14.5275 16.1302C14.1867 15.0357 14.7999 13.8682 15.8944 13.5275C16.9889 13.1867 18.1564 13.8 18.4971 14.8944Z" fill="white" stroke="#FFECCE" stroke-linejoin="round"/>
<path d="M43.8037 18.1807H38.851L43.6729 4H27.7102L25 27.1143H30.3889L28.0169 43.8541C27.9512 44.3194 28.1882 44.7716 28.5878 44.944C28.988 45.1158 29.4425 44.9613 29.6834 44.5722L46 18.1808H43.8037V18.1807ZM31.286 37.4278L33.1086 24.5621H27.6489L29.7611 6.55229H40.3183L35.4965 20.733H41.608L31.286 37.4278Z" fill="white" stroke="#FFECCE" stroke-linejoin="round"/>
</g>
<defs>
<clipPath id="clip0_39_68">
<rect width="48" height="48" fill="white"/>
</clipPath>
</defs>
</svg>
