<svg width="48" height="48" viewBox="0 0 48 48" fill="none" xmlns="http://www.w3.org/2000/svg">
<path d="M39 33.9988C39 33.579 38.6586 33.2378 38.2388 33.2378H37.0287C36.902 32.8023 36.7282 32.382 36.5093 31.9833L37.3646 31.1277C37.5059 30.9861 37.5876 30.79 37.5876 30.5893C37.5876 30.3857 37.5085 30.1947 37.3646 30.051L35.9489 28.6351C35.6729 28.3587 35.1492 28.3582 34.8725 28.6351L34.0169 29.4907C33.6187 29.2717 33.1979 29.0978 32.7622 28.971V27.7612C32.7622 27.3414 32.4208 27 32.0014 27H29.9988C29.579 27 29.2378 27.3414 29.2378 27.7612V28.9712C28.8021 29.098 28.3813 29.2718 27.9829 29.4909L27.1273 28.6353C26.8398 28.3479 26.3386 28.3479 26.0513 28.6353L24.6351 30.0511C24.3384 30.3479 24.3384 30.8306 24.6351 31.1273L25.4905 31.9829C25.2717 32.3816 25.0978 32.8023 24.971 33.2378H23.7612C23.3414 33.2378 23 33.5792 23 33.9988V36.0011C23 36.4208 23.3414 36.7621 23.7612 36.7621H24.9712C25.0978 37.1976 25.2718 37.6182 25.4907 38.0167L24.6354 38.8722C24.4939 39.0137 24.4124 39.21 24.4124 39.4105C24.4124 39.614 24.4915 39.8053 24.6353 39.9489L26.0511 41.3646C26.3273 41.6409 26.851 41.6416 27.1275 41.3646L27.9831 40.509C28.3815 40.7278 28.8021 40.902 29.2379 41.0287V42.2387C29.2379 42.6584 29.5793 42.9998 29.9989 42.9998H32.0014C32.4212 42.9998 32.7622 42.6584 32.7622 42.2387V41.0287C33.1979 40.902 33.6187 40.7282 34.0169 40.509L34.8725 41.3646C35.1602 41.6521 35.661 41.6521 35.9485 41.3646L37.3646 39.9489C37.6613 39.6522 37.6613 39.1694 37.3646 38.8727L36.5093 38.0169C36.7282 37.6184 36.902 37.1977 37.0287 36.7622H38.2387C38.6584 36.7622 38.9998 36.4208 38.9998 36.0014L39 33.9988ZM33.7717 35C33.7717 36.5285 32.5283 37.7717 31 37.7717C29.4717 37.7717 28.2283 36.5283 28.2283 35C28.2283 33.4717 29.4717 32.2283 31 32.2283C32.5285 32.2283 33.7717 33.4717 33.7717 35Z" fill="white" stroke="#FFECCE" stroke-linejoin="round"/>
<path d="M24.4899 17.1807H18.8297L24.3404 3H6.09742L3 26.1143H9.15873L6.4479 42.8541C6.37276 43.3194 6.64367 43.7716 7.1003 43.944C7.5577 44.1158 8.07711 43.9613 8.35245 43.5722L27 17.1808H24.4899V17.1807ZM10.184 36.4278L12.267 23.5621H6.02729L8.44122 5.55229H20.5066L14.996 19.733H21.9806L10.184 36.4278Z" fill="white" stroke="#FFECCE" stroke-linejoin="round"/>
</svg>
