<svg width="48" height="48" viewBox="0 0 48 48" fill="none" xmlns="http://www.w3.org/2000/svg">
<path d="M43.9152 27.6166C45.1422 28.7381 45.0655 30.7416 43.8864 31.9206L33.7579 42.0491C33.0376 42.7695 32.0604 43.1742 31.0416 43.1742H13.1355C11.435 43.1742 10.5743 44.0859 9.2987 45.4061C8.87513 45.8446 8.26213 46.0635 7.65775 45.9839C3.89896 45.4895 1 42.2756 1 38.3814V34.3826C1 33.874 1.20202 33.3865 1.5616 33.0269L4.66773 29.9208C5.38809 29.2004 6.36524 28.7957 7.38408 28.7957H12.8288C15.9633 28.7957 15.7428 31.6714 18.8869 31.6714H25.9228C27.4278 31.6714 28.7985 32.8888 28.7985 34.5471C28.7985 36.1191 27.5428 37.4228 25.9228 37.4228H13.4614C13.4614 38.4772 14.3241 39.3399 15.3786 39.3399H26.7502C27.7671 39.3399 28.7423 38.9359 29.4614 38.2168L39.9562 27.7221C40.5121 27.1661 41.2502 26.8785 41.9883 26.8785C42.6786 26.8785 43.3688 27.1278 43.9152 27.6166ZM12.0811 14.8005C9.2437 11.9248 8.75483 7.3141 11.2184 4.11248C14.1899 0.239857 19.7305 -0.0189579 23.0471 3.33604C26.3638 -0.0189579 31.9043 0.239857 34.8759 4.11248C35.8293 5.35275 36.3365 6.81265 36.4377 8.294C39.3303 7.02701 42.7124 7.88014 44.6655 10.4205C46.7661 13.1553 46.4525 17.1408 43.9363 19.6912L43.9353 19.6921L38.0977 25.597C37.2759 26.4255 36.1862 26.8809 35.0292 26.8809C33.8722 26.8809 32.7826 26.4255 31.9616 25.5985L27.6467 21.2337L26.2294 22.6704C24.4753 24.4438 21.6187 24.4438 19.8645 22.6704L12.0811 14.8005ZM27.4871 18.345L33.3237 24.2489C34.2373 25.1701 35.8203 25.1714 36.7359 24.2475L42.5725 18.3439C44.4184 16.4717 44.6656 13.5675 43.1453 11.588C41.6598 9.65589 39.0321 9.06937 36.8959 10.1936C36.4682 10.436 36.0599 10.7446 35.7071 11.0975C35.5273 11.2772 35.284 11.3783 35.0294 11.3783H35.0266C34.771 11.3774 34.5267 11.2749 34.3479 11.0937C33.4166 10.1516 32.1536 9.62546 30.8459 9.62546C30.7457 9.62546 30.6446 9.62869 30.5436 9.6348C29.103 9.72419 27.813 10.4183 26.9134 11.589C25.393 13.5676 25.6402 16.4723 27.4871 18.345ZM4.14794 21.7963C4.52418 22.182 5.14426 22.182 5.5205 21.7963L7.91117 19.3448C8.75196 18.4825 8.91611 17.0982 8.16328 16.1582C7.30715 15.0892 5.76433 15.0316 4.83416 15.9854C3.90399 15.0317 2.36105 15.0893 1.50505 16.1582C0.752209 17.0982 0.916365 18.4825 1.75715 19.3448L4.14794 21.7963Z" fill="white" stroke="#FFECCE"/>
</svg>
