<svg width="205" height="33" viewBox="0 0 205 33" fill="none" xmlns="http://www.w3.org/2000/svg">
<g filter="url(#filter0_i_8_29)">
<path d="M7.58 25.33C6.56 25.33 5.66 25.24 4.88 25.06C4.1 24.88 3.2 24.63 2.18 24.31C1.5 24.09 1.09 23.97 0.95 23.95L1.19 18.61H2.75L3.2 22.54C3.58 22.9 4.18 23.21 5 23.47C5.84 23.73 6.75 23.86 7.73 23.86C9.35 23.86 10.59 23.49 11.45 22.75C12.31 22.01 12.74 20.99 12.74 19.69C12.74 18.85 12.51 18.14 12.05 17.56C11.61 16.98 11.03 16.49 10.31 16.09C9.61 15.69 8.63 15.22 7.37 14.68C6.19 14.18 5.18 13.68 4.34 13.18C3.52 12.68 2.8 12.01 2.18 11.17C1.56 10.31 1.25 9.29 1.25 8.11C1.25 7.01 1.55 6.03 2.15 5.17C2.75 4.31 3.58 3.65 4.64 3.19C5.72 2.71 6.95 2.47 8.33 2.47C9.17 2.47 9.91 2.54 10.55 2.68C11.21 2.8 12.04 3 13.04 3.28C13.58 3.44 13.9 3.53 14 3.55L13.82 8.47H12.32L11.78 4.75C11.54 4.55 11.07 4.36 10.37 4.18C9.69 3.98 8.96 3.88 8.18 3.88C6.7 3.88 5.57 4.19 4.79 4.81C4.01 5.41 3.62 6.31 3.62 7.51C3.62 8.33 3.83 9.02 4.25 9.58C4.67 10.12 5.21 10.58 5.87 10.96C6.53 11.34 7.55 11.85 8.93 12.49C10.37 13.17 11.49 13.76 12.29 14.26C13.11 14.74 13.82 15.38 14.42 16.18C15.04 16.96 15.35 17.91 15.35 19.03C15.35 20.09 15.04 21.11 14.42 22.09C13.8 23.05 12.9 23.83 11.72 24.43C10.54 25.03 9.16 25.33 7.58 25.33ZM21.4967 5.2C20.4167 5.2 19.8767 4.63 19.8767 3.49C19.8767 2.91 20.0467 2.44 20.3867 2.08C20.7267 1.7 21.1867 1.51 21.7667 1.51C22.3667 1.51 22.7967 1.68 23.0567 2.02C23.3167 2.34 23.4467 2.74 23.4467 3.22C23.4467 3.84 23.2767 4.33 22.9367 4.69C22.6167 5.03 22.1467 5.2 21.5267 5.2H21.4967ZM20.5367 10.33L18.1967 9.82V8.47L22.3067 7.99H22.3667L22.9667 8.47V23.5L25.5767 23.71V25H17.8967V23.71L20.5367 23.47V10.33ZM27.6833 23.71L29.6033 23.47V10.33L27.2933 9.82V8.47L31.1033 7.99L31.7633 8.47V9.79L31.7333 10.54C32.4733 9.9 33.4433 9.31 34.6433 8.77C35.8433 8.23 36.9333 7.96 37.9133 7.96C38.9933 7.96 39.8533 8.14 40.4933 8.5C41.1533 8.86 41.6533 9.42 41.9933 10.18C42.6133 9.66 43.5133 9.16 44.6933 8.68C45.8933 8.2 46.9933 7.96 47.9933 7.96C49.2533 7.96 50.2233 8.2 50.9033 8.68C51.6033 9.16 52.0933 9.9 52.3733 10.9C52.6533 11.9 52.7933 13.25 52.7933 14.95V23.47L55.0733 23.71V25H48.3533V23.71L50.3933 23.47V15.04C50.3933 13.78 50.3033 12.78 50.1233 12.04C49.9433 11.3 49.5933 10.74 49.0733 10.36C48.5533 9.98 47.7933 9.79 46.7933 9.79C46.0533 9.79 45.2733 9.96 44.4533 10.3C43.6533 10.62 42.9633 10.99 42.3833 11.41C42.5833 12.33 42.6833 13.53 42.6833 15.01V23.47L44.9633 23.71V25H38.0933V23.71L40.2533 23.47V14.98C40.2533 13.7 40.1733 12.7 40.0133 11.98C39.8733 11.26 39.5633 10.72 39.0833 10.36C38.6033 10 37.8933 9.82 36.9533 9.82C36.1733 9.82 35.3233 10.02 34.4033 10.42C33.5033 10.8 32.7133 11.26 32.0333 11.8V23.47L34.1633 23.71V25H27.6833V23.71ZM73.2345 16.06C73.2345 17.78 72.8845 19.35 72.1845 20.77C71.4845 22.17 70.4845 23.28 69.1845 24.1C67.9045 24.92 66.4345 25.33 64.7745 25.33C64.2145 25.33 63.6245 25.28 63.0045 25.18C62.3845 25.1 61.8745 24.99 61.4745 24.85L61.5345 27.4V30.64L64.8645 30.94V32.26H56.8245V30.94L59.1345 30.64V10.33L56.7945 9.82V8.47L60.6345 7.99H60.6945L61.2345 8.47V10.3C61.8745 9.64 62.6545 9.08 63.5745 8.62C64.4945 8.14 65.5245 7.9 66.6645 7.9C67.8245 7.9 68.9045 8.19 69.9045 8.77C70.9045 9.35 71.7045 10.25 72.3045 11.47C72.9245 12.69 73.2345 14.22 73.2345 16.06ZM65.6745 9.73C64.8145 9.73 64.0145 9.91 63.2745 10.27C62.5345 10.63 61.9545 11.03 61.5345 11.47V22.9C61.6945 23.16 62.0945 23.4 62.7345 23.62C63.3945 23.82 64.1145 23.92 64.8945 23.92C66.6145 23.92 67.9945 23.29 69.0345 22.03C70.0945 20.75 70.6245 18.87 70.6245 16.39C70.6245 14.17 70.1545 12.51 69.2145 11.41C68.2945 10.29 67.1145 9.73 65.6745 9.73ZM78.4252 2.32L75.8752 2.05V0.939999L80.2552 0.429998H80.2852L80.8552 0.819998V23.5L83.6752 23.71V25H75.7852V23.71L78.4252 23.47V2.32ZM88.0883 32.47C87.8083 32.47 87.5183 32.45 87.2183 32.41C86.9383 32.37 86.7383 32.32 86.6183 32.26V30.04C86.8583 30.16 87.3683 30.22 88.1483 30.22C88.7683 30.22 89.3283 30.09 89.8283 29.83C90.3483 29.59 90.8783 29.09 91.4183 28.33C91.9583 27.57 92.4883 26.46 93.0083 25H91.6883L85.9583 9.97L84.5483 9.58V8.35H91.1783V9.58L88.7483 9.94L91.8983 19.12L93.4583 24.01L94.9583 19.09L97.7783 9.94L95.6783 9.58V8.35H101.438V9.58L99.8783 9.94C98.3783 14.54 97.1883 18.14 96.3083 20.74C95.4483 23.32 94.8983 24.9 94.6583 25.48C93.9583 27.24 93.3383 28.59 92.7983 29.53C92.2583 30.49 91.6183 31.22 90.8783 31.72C90.1383 32.22 89.2083 32.47 88.0883 32.47ZM117.355 25.33C116.335 25.33 115.435 25.24 114.655 25.06C113.875 24.88 112.975 24.63 111.955 24.31C111.275 24.09 110.865 23.97 110.725 23.95L110.965 18.61H112.525L112.975 22.54C113.355 22.9 113.955 23.21 114.775 23.47C115.615 23.73 116.525 23.86 117.505 23.86C119.125 23.86 120.365 23.49 121.225 22.75C122.085 22.01 122.515 20.99 122.515 19.69C122.515 18.85 122.285 18.14 121.825 17.56C121.385 16.98 120.805 16.49 120.085 16.09C119.385 15.69 118.405 15.22 117.145 14.68C115.965 14.18 114.955 13.68 114.115 13.18C113.295 12.68 112.575 12.01 111.955 11.17C111.335 10.31 111.025 9.29 111.025 8.11C111.025 7.01 111.325 6.03 111.925 5.17C112.525 4.31 113.355 3.65 114.415 3.19C115.495 2.71 116.725 2.47 118.105 2.47C118.945 2.47 119.685 2.54 120.325 2.68C120.985 2.8 121.815 3 122.815 3.28C123.355 3.44 123.675 3.53 123.775 3.55L123.595 8.47H122.095L121.555 4.75C121.315 4.55 120.845 4.36 120.145 4.18C119.465 3.98 118.735 3.88 117.955 3.88C116.475 3.88 115.345 4.19 114.565 4.81C113.785 5.41 113.395 6.31 113.395 7.51C113.395 8.33 113.605 9.02 114.025 9.58C114.445 10.12 114.985 10.58 115.645 10.96C116.305 11.34 117.325 11.85 118.705 12.49C120.145 13.17 121.265 13.76 122.065 14.26C122.885 14.74 123.595 15.38 124.195 16.18C124.815 16.96 125.125 17.91 125.125 19.03C125.125 20.09 124.815 21.11 124.195 22.09C123.575 23.05 122.675 23.83 121.495 24.43C120.315 25.03 118.935 25.33 117.355 25.33ZM132.952 25.33C131.892 25.33 131.092 25.09 130.552 24.61C130.012 24.11 129.742 23.23 129.742 21.97V10.12H127.462V8.95C128.462 8.73 129.042 8.57 129.202 8.47C129.502 8.31 129.722 8 129.862 7.54C129.982 7.24 130.142 6.7 130.342 5.92C130.542 5.14 130.692 4.53 130.792 4.09H132.172V8.35H137.482V10.12H132.172V19.84C132.172 21 132.212 21.82 132.292 22.3C132.372 22.76 132.532 23.06 132.772 23.2C133.012 23.34 133.432 23.41 134.032 23.41C134.612 23.41 135.262 23.33 135.982 23.17C136.702 23.01 137.242 22.84 137.602 22.66L137.992 23.8C137.532 24.16 136.772 24.51 135.712 24.85C134.652 25.17 133.732 25.33 132.952 25.33ZM147.24 25.33C144.92 25.33 143.13 24.54 141.87 22.96C140.63 21.36 140.01 19.24 140.01 16.6C140.01 14.9 140.34 13.39 141 12.07C141.66 10.75 142.57 9.73 143.73 9.01C144.91 8.27 146.23 7.9 147.69 7.9C149.47 7.9 150.85 8.41 151.83 9.43C152.83 10.45 153.37 11.92 153.45 13.84C153.45 15.08 153.39 15.96 153.27 16.48H142.59C142.59 18.58 143.06 20.3 144 21.64C144.96 22.96 146.3 23.62 148.02 23.62C148.86 23.62 149.72 23.47 150.6 23.17C151.48 22.87 152.16 22.51 152.64 22.09L153.12 23.2C152.54 23.8 151.69 24.31 150.57 24.73C149.47 25.13 148.36 25.33 147.24 25.33ZM150.75 15.07C150.81 14.65 150.84 14.21 150.84 13.75C150.82 12.43 150.5 11.38 149.88 10.6C149.28 9.82 148.35 9.43 147.09 9.43C144.35 9.43 142.86 11.31 142.62 15.07H150.75ZM158.611 2.32L156.061 2.05V0.939999L160.441 0.429998H160.471L161.041 0.819998V23.5L163.861 23.71V25H155.971V23.71L158.611 23.47V2.32ZM168.484 2.32L165.934 2.05V0.939999L170.314 0.429998H170.344L170.914 0.819998V23.5L173.734 23.71V25H165.844V23.71L168.484 23.47V2.32ZM176.077 20.62C176.077 18.68 177.037 17.28 178.957 16.42C180.877 15.54 183.267 15.07 186.127 15.01V14.08C186.127 13.06 186.017 12.26 185.797 11.68C185.597 11.08 185.237 10.65 184.717 10.39C184.197 10.11 183.467 9.97 182.527 9.97C181.507 9.97 180.577 10.13 179.737 10.45C178.917 10.75 178.117 11.12 177.337 11.56L176.677 10.24C176.897 10.04 177.357 9.76 178.057 9.4C178.757 9.04 179.557 8.72 180.457 8.44C181.357 8.16 182.227 8.02 183.067 8.02C184.427 8.02 185.497 8.21 186.277 8.59C187.077 8.97 187.647 9.58 187.987 10.42C188.347 11.26 188.527 12.39 188.527 13.81V23.71H190.387V24.82C189.287 25.12 188.357 25.27 187.597 25.27C187.117 25.27 186.787 25.19 186.607 25.03C186.427 24.89 186.337 24.55 186.337 24.01V22.9C185.617 23.54 184.827 24.11 183.967 24.61C183.127 25.09 182.167 25.33 181.087 25.33C179.647 25.33 178.447 24.93 177.487 24.13C176.547 23.33 176.077 22.16 176.077 20.62ZM181.987 23.56C182.547 23.56 183.217 23.38 183.997 23.02C184.777 22.66 185.487 22.23 186.127 21.73V16.42C183.707 16.44 181.867 16.8 180.607 17.5C179.367 18.2 178.747 19.14 178.747 20.32C178.747 21.46 179.037 22.29 179.617 22.81C180.197 23.31 180.987 23.56 181.987 23.56ZM192.716 23.74L195.116 23.56V10.33L192.806 9.82V8.47L196.616 7.99H196.676L197.246 8.47V8.95L197.186 11.23H197.246C197.286 11.19 197.546 10.89 198.026 10.33C198.526 9.75 199.256 9.2 200.216 8.68C201.196 8.16 202.176 7.9 203.156 7.9C203.476 7.9 203.776 7.94 204.056 8.02V10.66C203.976 10.6 203.796 10.54 203.516 10.48C203.256 10.42 202.976 10.39 202.676 10.39C201.536 10.39 200.566 10.56 199.766 10.9C198.966 11.24 198.226 11.66 197.546 12.16V23.53L201.536 23.77V25H192.716V23.74Z" fill="white"/>
</g>
<defs>
<filter id="filter0_i_8_29" x="0.949951" y="0.430054" width="203.106" height="34.0399" filterUnits="userSpaceOnUse" color-interpolation-filters="sRGB">
<feFlood flood-opacity="0" result="BackgroundImageFix"/>
<feBlend mode="normal" in="SourceGraphic" in2="BackgroundImageFix" result="shape"/>
<feColorMatrix in="SourceAlpha" type="matrix" values="0 0 0 0 0 0 0 0 0 0 0 0 0 0 0 0 0 0 127 0" result="hardAlpha"/>
<feOffset dy="2"/>
<feGaussianBlur stdDeviation="2"/>
<feComposite in2="hardAlpha" operator="arithmetic" k2="-1" k3="1"/>
<feColorMatrix type="matrix" values="0 0 0 0 0 0 0 0 0 0 0 0 0 0 0 0 0 0 0.3 0"/>
<feBlend mode="normal" in2="shape" result="effect1_innerShadow_8_29"/>
</filter>
</defs>
</svg>
