<svg width="48" height="48" viewBox="0 0 48 48" fill="none" xmlns="http://www.w3.org/2000/svg">
<path d="M28.9015 15H15.7371L8 28.0902H13.6988L9.31525 46L29 23.2419H23.2061L28.9015 15Z" stroke="#FFECCE"/>
<path d="M41.8837 9.87387C41.6713 9.41539 41.2022 9.12053 40.6855 9.12053H37.2333L41.6576 3.01672C41.9406 2.62626 41.9765 2.11478 41.7506 1.69045C41.5246 1.26639 41.0745 1 40.5835 1H26.978C26.5174 1 26.0905 1.23449 25.8524 1.6183L18.239 13.8981H15.3106C14.8501 13.8981 14.4231 14.1326 14.185 14.5164L6.18896 27.4138C5.94405 27.8089 5.93675 28.3017 6.16975 28.7037C6.40276 29.1056 6.84023 29.3541 7.31436 29.3541H11.5208L7.39837 45.4106C7.25149 45.9828 7.52557 46.5785 8.06192 46.853C8.25569 46.9522 8.46524 47 8.67313 47C9.04082 47 9.40279 46.8498 9.65896 46.5675L30.0034 24.1448C30.3455 23.7678 30.4288 23.2307 30.2162 22.7721C30.0037 22.3136 29.5347 22.0188 29.018 22.0188H25.5659L29.9902 15.915C30.273 15.5245 30.3089 15.013 30.083 14.5889C29.857 14.1647 29.4069 13.8983 28.9159 13.8983H21.3094L27.7199 3.55866H38.0475L33.6232 9.66246C33.3402 10.0529 33.3044 10.5644 33.5302 10.9887C33.7562 11.413 34.2063 11.6793 34.6973 11.6793H37.7711L33.6929 16.1741C33.2125 16.7037 33.264 17.5121 33.8082 17.9798C34.0582 18.1947 34.3686 18.3001 34.6777 18.3001C35.0417 18.3001 35.4037 18.1539 35.6635 17.8676L41.6707 11.2468C42.0129 10.8695 42.0963 10.3323 41.8837 9.87387ZM21.956 22.5605C21.6731 22.951 21.6372 23.4625 21.8632 23.8866C22.0892 24.3108 22.5392 24.5772 23.0302 24.5772H26.104L11.2554 40.9426L14.4796 28.3849C14.5777 28.0028 14.4893 27.5979 14.2403 27.2874C13.9911 26.9769 13.609 26.7954 13.2043 26.7954H9.6428L16.0527 16.4567H26.3802L21.956 22.5605Z" fill="white" stroke="#FFECCE" stroke-linejoin="round"/>
</svg>
