<svg width="51" height="50" viewBox="0 0 51 50" fill="none" xmlns="http://www.w3.org/2000/svg">
<path d="M25.2936 12.3203C17.9672 12.3203 12.0068 18.008 12.0068 24.9993C12.0068 31.9905 17.9672 37.6783 25.2936 37.6783C32.6199 37.6783 38.5803 31.9905 38.5803 24.9993C38.5803 18.0081 32.6199 12.3203 25.2936 12.3203Z" fill="#FABF67"/>
<path d="M45.0875 24.9999L49.953 18.7603C50.2856 18.3339 50.3808 17.7801 50.2087 17.2745C50.0365 16.769 49.6183 16.3744 49.0866 16.2159L41.307 13.897L41.4 6.11999C41.4064 5.58842 41.1423 5.08691 40.6917 4.77444C40.2409 4.46196 39.6595 4.37723 39.1318 4.54735L31.4097 7.03499L26.6947 0.691199C26.3724 0.257587 25.85 0 25.2929 0C24.7359 0 24.2134 0.257587 23.8911 0.691199L19.176 7.0351L11.4539 4.54746C10.926 4.37745 10.3446 4.46207 9.89397 4.77455C9.44335 5.08702 9.17927 5.58853 9.18568 6.1201L9.27871 13.8971L1.49914 16.216C0.967415 16.3745 0.549226 16.7691 0.377138 17.2746C0.204936 17.7802 0.30026 18.3339 0.632864 18.7605L5.4984 25.0001L0.632864 31.2397C0.30026 31.666 0.205051 32.2199 0.377138 32.7255C0.549226 33.231 0.967529 33.6256 1.49914 33.7841L9.27871 36.1029L9.18568 43.8799C9.17927 44.4115 9.44335 44.913 9.89397 45.2255C10.3447 45.5378 10.9259 45.6225 11.4539 45.4525L19.176 42.9649L23.8911 49.3088C24.2134 49.7424 24.7359 50 25.2929 50C25.85 50 26.3724 49.7424 26.6947 49.3088L31.4098 42.9649L39.1319 45.4525C39.6596 45.6225 40.2411 45.5379 40.6918 45.2255C41.1424 44.913 41.4065 44.4115 41.4001 43.88L41.3072 36.1029L49.0867 33.7841C49.6185 33.6256 50.0366 33.231 50.2088 32.7255C50.3809 32.2199 50.2857 31.6662 49.9531 31.2397L45.0875 24.9999ZM25.2929 40.9589C16.0714 40.9589 8.56905 33.7997 8.56905 24.9998C8.56905 16.2 16.0714 9.04091 25.2929 9.04091C34.5145 9.04091 42.0168 16.2 42.0168 24.9998C42.0168 33.7997 34.5145 40.9589 25.2929 40.9589Z" fill="#F4A42D"/>
</svg>
