<svg width="512" height="512" viewBox="0 0 512 512" fill="none" xmlns="http://www.w3.org/2000/svg">
<path d="M403.469 395.031C274.266 395.031 169.531 290.281 169.531 161.078C169.531 98.64 194.031 41.953 233.906 0C109.313 17.953 13.563 125.094 13.563 254.656C13.563 396.781 128.781 512 270.906 512C369.594 512 455.265 456.422 498.437 374.875C469.406 387.781 437.297 395.031 403.469 395.031Z" fill="white"/>
<path d="M349.641 179.328C350.688 180.344 351.157 181.812 350.907 183.25L342.344 233.188C342.063 234.86 342.75 236.532 344.11 237.532C345.469 238.516 347.266 238.641 348.766 237.86L393.625 214.282C394.906 213.594 396.438 213.594 397.734 214.282L442.593 237.86C444.077 238.641 445.89 238.516 447.249 237.532C448.608 236.532 449.28 234.86 448.999 233.188L440.436 183.25C440.186 181.812 440.655 180.344 441.702 179.328L478 143.969C479.203 142.797 479.641 141.031 479.125 139.438C478.594 137.844 477.219 136.657 475.547 136.422L425.406 129.125C423.968 128.922 422.718 128.016 422.062 126.719L399.64 81.266C398.906 79.75 397.359 78.813 395.671 78.813C393.999 78.813 392.452 79.751 391.718 81.266L369.28 126.719C368.639 128.016 367.389 128.922 365.952 129.125L315.811 136.422C314.139 136.656 312.748 137.844 312.233 139.438C311.718 141.032 312.155 142.797 313.358 143.969L349.641 179.328Z" fill="white"/>
</svg>
