<svg width="767" height="766" viewBox="0 0 767 766" fill="none" xmlns="http://www.w3.org/2000/svg">
<path d="M732.508 509.896C734.541 505.281 729.923 500.6 725.177 502.311C593.711 549.771 442.536 521.764 343.339 422.647C244.603 323.994 216.522 173.845 263.157 42.8825C265.081 37.478 259.744 32.2286 254.507 34.5745C254.153 34.7328 253.8 34.8918 253.447 35.0508C180.907 67.7963 116.356 123.032 78.4448 192.62C37.9173 267.011 24.5509 353.17 40.6364 436.332C56.7218 519.49 101.257 594.469 166.609 648.412C231.961 702.355 314.057 731.91 398.827 732C471.721 732.004 542.949 710.21 603.344 669.424C659.102 631.773 703.272 574.734 731.116 513.015C731.585 511.979 732.046 510.936 732.508 509.896Z" stroke="white" stroke-width="66.6667" stroke-linecap="round" stroke-linejoin="round"/>
</svg>
