<svg width="48" height="48" viewBox="0 0 48 48" fill="none" xmlns="http://www.w3.org/2000/svg">
<g clip-path="url(#clip0_39_45)">
<path d="M17.95 44.605C16.0433 44.605 14.3383 44.44 12.835 44.11C11.3317 43.78 9.68167 43.34 7.885 42.79C6.785 42.3867 5.96 42.1667 5.41 42.13L5.85 32.175H9.37L10.305 39.325C10.9283 39.9117 11.9367 40.4433 13.33 40.92C14.76 41.36 16.3183 41.58 18.005 41.58C20.7917 41.58 22.9 40.9567 24.33 39.71C25.7967 38.4633 26.53 36.74 26.53 34.54C26.53 33.11 26.1267 31.8817 25.32 30.855C24.55 29.8283 23.505 28.9483 22.185 28.215C20.9017 27.4817 19.1233 26.62 16.85 25.63C14.7967 24.7133 13 23.7783 11.46 22.825C9.95667 21.8717 8.63667 20.6067 7.5 19.03C6.4 17.4167 5.85 15.4917 5.85 13.255C5.85 11.2383 6.38167 9.44167 7.445 7.865C8.545 6.25167 10.1033 4.98667 12.12 4.07C14.1733 3.15333 16.5567 2.695 19.27 2.695C20.9567 2.695 22.4417 2.82333 23.725 3.08C25.045 3.33666 26.53 3.685 28.18 4.125C28.9133 4.38166 29.5367 4.54666 30.05 4.62L29.72 13.86H26.365L25.265 7.095C24.8983 6.72833 24.1283 6.38 22.955 6.05C21.8183 5.72 20.5717 5.555 19.215 5.555C16.685 5.555 14.76 6.08666 13.44 7.15C12.1567 8.21333 11.515 9.75333 11.515 11.77C11.515 13.2367 11.9 14.465 12.67 15.455C13.4767 16.445 14.4667 17.2883 15.64 17.985C16.8133 18.6817 18.6833 19.635 21.25 20.845C23.6333 21.9817 25.5767 23.0083 27.08 23.925C28.5833 24.8417 29.8667 26.0517 30.93 27.555C32.03 29.0217 32.58 30.7817 32.58 32.835C32.58 34.7783 32.03 36.6483 30.93 38.445C29.8667 40.2417 28.2167 41.7267 25.98 42.9C23.78 44.0367 21.1033 44.605 17.95 44.605Z" fill="white"/>
<path d="M12.835 44.11L12.9422 43.6216L12.9422 43.6216L12.835 44.11ZM7.885 42.79L7.71287 43.2594L7.72564 43.2641L7.73864 43.2681L7.885 42.79ZM5.41 42.13L4.91049 42.1079L4.8889 42.5964L5.37674 42.6289L5.41 42.13ZM5.85 32.175V31.675H5.37161L5.35049 32.1529L5.85 32.175ZM9.37 32.175L9.86578 32.1102L9.80887 31.675H9.37V32.175ZM10.305 39.325L9.80922 39.3898L9.83236 39.5668L9.96232 39.6891L10.305 39.325ZM13.33 40.92L13.1682 41.3931L13.1755 41.3956L13.183 41.3979L13.33 40.92ZM24.33 39.71L24.0062 39.329L24.0014 39.3331L24.33 39.71ZM25.32 30.855L24.9199 31.1551L24.9268 31.1639L25.32 30.855ZM22.185 28.215L21.9369 28.6492L21.9422 28.6521L22.185 28.215ZM16.85 25.63L16.6462 26.0866L16.6504 26.0884L16.85 25.63ZM11.46 22.825L11.1922 23.2473L11.1968 23.2501L11.46 22.825ZM7.5 19.03L7.08674 19.3118L7.09441 19.3224L7.5 19.03ZM7.445 7.865L7.03188 7.58333L7.03046 7.58543L7.445 7.865ZM12.12 4.07L11.9162 3.61342L11.9131 3.61482L12.12 4.07ZM23.725 3.08L23.6269 3.5703L23.6296 3.57081L23.725 3.08ZM28.18 4.125L28.3452 3.65307L28.3272 3.64678L28.3088 3.64188L28.18 4.125ZM30.05 4.62L30.5497 4.63784L30.5657 4.1886L30.1207 4.12502L30.05 4.62ZM29.72 13.86V14.36H30.2025L30.2197 13.8778L29.72 13.86ZM26.365 13.86L25.8715 13.9402L25.9397 14.36H26.365V13.86ZM25.265 7.095L25.7585 7.01475L25.7326 6.85552L25.6186 6.74145L25.265 7.095ZM22.955 6.05L22.8156 6.53019L22.8196 6.53132L22.955 6.05ZM13.44 7.15L13.1263 6.76059L13.121 6.76499L13.44 7.15ZM12.67 15.455L12.2752 15.762L12.2824 15.7708L12.67 15.455ZM15.64 17.985L15.8953 17.5551L15.8953 17.5551L15.64 17.985ZM21.25 20.845L21.4652 20.3937L21.4632 20.3927L21.25 20.845ZM27.08 23.925L27.3403 23.4981L27.3403 23.4981L27.08 23.925ZM30.93 27.555L30.5216 27.8438L30.53 27.855L30.93 27.555ZM30.93 38.445L30.5035 38.1839L30.4997 38.1903L30.93 38.445ZM25.98 42.9L26.2095 43.3442L26.2123 43.3428L25.98 42.9ZM17.95 44.105C16.0712 44.105 14.4032 43.9423 12.9422 43.6216L12.7278 44.5984C14.2735 44.9377 16.0155 45.105 17.95 45.105V44.105ZM12.9422 43.6216C11.4545 43.2951 9.81781 42.8588 8.03136 42.3119L7.73864 43.2681C9.54552 43.8212 11.2088 44.2649 12.7278 44.5984L12.9422 43.6216ZM8.05713 42.3206C6.95095 41.915 6.06914 41.6728 5.44326 41.6311L5.37674 42.6289C5.85087 42.6605 6.61905 42.8584 7.71287 43.2594L8.05713 42.3206ZM5.90951 42.1521L6.34951 32.1971L5.35049 32.1529L4.91049 42.1079L5.90951 42.1521ZM5.85 32.675H9.37V31.675H5.85V32.675ZM8.87422 32.2398L9.80922 39.3898L10.8008 39.2602L9.86578 32.1102L8.87422 32.2398ZM9.96232 39.6891C10.6621 40.3477 11.7492 40.9076 13.1682 41.3931L13.4918 40.4469C12.1241 39.979 11.1946 39.4756 10.6477 38.9609L9.96232 39.6891ZM13.183 41.3979C14.6662 41.8543 16.2747 42.08 18.005 42.08V41.08C16.3619 41.08 14.8538 40.8657 13.477 40.4421L13.183 41.3979ZM18.005 42.08C20.8571 42.08 23.103 41.443 24.6586 40.0869L24.0014 39.3331C22.697 40.4703 20.7262 41.08 18.005 41.08V42.08ZM24.6538 40.091C26.2489 38.7351 27.03 36.8633 27.03 34.54H26.03C26.03 36.6167 25.3444 38.1915 24.0062 39.329L24.6538 40.091ZM27.03 34.54C27.03 33.0093 26.5957 31.6694 25.7132 30.5461L24.9268 31.1639C25.6576 32.094 26.03 33.2107 26.03 34.54H27.03ZM25.72 30.555C24.901 29.463 23.7985 28.5394 22.4278 27.7779L21.9422 28.6521C23.2115 29.3572 24.199 30.1936 24.92 31.155L25.72 30.555ZM22.4331 27.7809C21.1271 27.0346 19.3301 26.1647 17.0496 25.1716L16.6504 26.0884C18.9166 27.0753 20.6762 27.9287 21.9369 28.6491L22.4331 27.7809ZM17.0538 25.1734C15.0163 24.2638 13.2402 23.339 11.7232 22.3999L11.1968 23.2501C12.7598 24.2177 14.577 25.1628 16.6462 26.0866L17.0538 25.1734ZM11.7278 22.4027C10.283 21.4865 9.00844 20.2674 7.90559 18.7376L7.09441 19.3224C8.26489 20.946 9.63036 22.2568 11.1922 23.2473L11.7278 22.4027ZM7.91311 18.7483C6.87766 17.2297 6.35 15.4063 6.35 13.255H5.35C5.35 15.5771 5.92234 17.6037 7.08689 19.3117L7.91311 18.7483ZM6.35 13.255C6.35 11.3316 6.85535 9.63354 7.85954 8.14457L7.03046 7.58543C5.90798 9.2498 5.35 11.1451 5.35 13.255H6.35ZM7.85811 8.14667C8.8999 6.61872 10.3821 5.40918 12.3269 4.52518L11.9131 3.61482C9.82457 4.56415 8.19011 5.88461 7.03189 7.58333L7.85811 8.14667ZM12.3238 4.52657C14.3012 3.64382 16.6127 3.195 19.27 3.195V2.195C16.5007 2.195 14.0455 2.66285 11.9162 3.61343L12.3238 4.52657ZM19.27 3.195C20.9326 3.195 22.3836 3.32162 23.6269 3.57029L23.8231 2.58971C22.4998 2.32505 20.9807 2.195 19.27 2.195V3.195ZM23.6296 3.57081C24.9358 3.8248 26.4094 4.17032 28.0512 4.60812L28.3088 3.64188C26.6506 3.19968 25.1542 2.84853 23.8204 2.58919L23.6296 3.57081ZM28.0148 4.59693C28.7653 4.85958 29.4222 5.03538 29.9793 5.11497L30.1207 4.12502C29.6512 4.05795 29.0614 3.90374 28.3452 3.65307L28.0148 4.59693ZM29.5503 4.60215L29.2203 13.8422L30.2197 13.8778L30.5497 4.63784L29.5503 4.60215ZM29.72 13.36H26.365V14.36H29.72V13.36ZM26.8585 13.7798L25.7585 7.01475L24.7715 7.17525L25.8715 13.9402L26.8585 13.7798ZM25.6186 6.74145C25.3742 6.49711 25.0283 6.28856 24.6186 6.10319C24.2031 5.91525 23.6916 5.73778 23.0904 5.56867L22.8196 6.53132C23.3917 6.69222 23.8519 6.85391 24.2064 7.0143C24.5667 7.17727 24.7891 7.32622 24.9114 7.44855L25.6186 6.74145ZM23.0944 5.56982C21.9064 5.22491 20.6121 5.055 19.215 5.055V6.055C20.5312 6.055 21.7303 6.21508 22.8156 6.53017L23.0944 5.56982ZM19.215 5.055C16.6249 5.055 14.5697 5.59791 13.1263 6.76062L13.7537 7.53938C14.9503 6.57542 16.7451 6.055 19.215 6.055V5.055ZM13.121 6.76499C11.6989 7.94329 11.015 9.63889 11.015 11.77H12.015C12.015 9.86777 12.6144 8.48337 13.759 7.53501L13.121 6.76499ZM11.015 11.77C11.015 13.3282 11.4259 14.6699 12.2753 15.762L13.0647 15.148C12.3741 14.2601 12.015 13.1451 12.015 11.77H11.015ZM12.2824 15.7708C13.1286 16.8094 14.1644 17.6904 15.3847 18.4149L15.8953 17.5551C14.7689 16.8863 13.8247 16.0806 13.0576 15.1392L12.2824 15.7708ZM15.3847 18.4149C16.5796 19.1244 18.4676 20.0861 21.0368 21.2973L21.4632 20.3927C18.8991 19.1839 17.047 18.2389 15.8953 17.5551L15.3847 18.4149ZM21.0348 21.2963C23.4095 22.4289 25.3362 23.4473 26.8197 24.3519L27.3403 23.4981C25.8171 22.5693 23.8572 21.5345 21.4652 20.3937L21.0348 21.2963ZM26.8197 24.3519C28.2622 25.2315 29.496 26.3935 30.5218 27.8437L31.3382 27.2663C30.2373 25.7099 28.9045 24.4519 27.3403 23.4981L26.8197 24.3519ZM30.53 27.855C31.5574 29.2248 32.08 30.8762 32.08 32.835H33.08C33.08 30.6871 32.5026 28.8185 31.33 27.255L30.53 27.855ZM32.08 32.835C32.08 34.6785 31.5597 36.459 30.5036 38.1839L31.3564 38.7061C32.5003 36.8377 33.08 34.8782 33.08 32.835H32.08ZM30.4997 38.1903C29.4927 39.8918 27.9195 41.3179 25.7477 42.4572L26.2123 43.3428C28.5138 42.1354 30.2406 40.5915 31.3603 38.6997L30.4997 38.1903ZM25.7505 42.4558C23.6382 43.5471 21.0447 44.105 17.95 44.105V45.105C21.1619 45.105 23.9218 44.5262 26.2095 43.3442L25.7505 42.4558Z" fill="#FFECCE"/>
<path d="M38.9 4.96L38.84 3.26V1.06H40.38V3.26L40.28 4.96L41.8 4.86H44.12V6.38H41.8L40.28 6.32L40.38 7.98V10.32H38.84V7.98L38.9 6.32L37.16 6.38H35.1V4.86H37.16L38.9 4.96Z" fill="white"/>
<path d="M38.9 4.96L38.8713 5.45918L39.419 5.49065L39.3997 4.94236L38.9 4.96ZM38.84 3.26H38.34V3.26882L38.3403 3.27764L38.84 3.26ZM38.84 1.06V0.559999H38.34V1.06H38.84ZM40.38 1.06H40.88V0.559999H40.38V1.06ZM40.38 3.26L40.8791 3.28936L40.88 3.27469V3.26H40.38ZM40.28 4.96L39.7809 4.93064L39.7476 5.49611L40.3128 5.45892L40.28 4.96ZM41.8 4.86V4.36H41.7836L41.7672 4.36108L41.8 4.86ZM44.12 4.86H44.62V4.36H44.12V4.86ZM44.12 6.38V6.88H44.62V6.38H44.12ZM41.8 6.38L41.7803 6.87961L41.7901 6.88H41.8V6.38ZM40.28 6.32L40.2997 5.82039L39.7477 5.7986L39.7809 6.35007L40.28 6.32ZM40.38 7.98H40.88V7.96495L40.8791 7.94993L40.38 7.98ZM40.38 10.32V10.82H40.88V10.32H40.38ZM38.84 10.32H38.34V10.82H38.84V10.32ZM38.84 7.98L38.3403 7.96194L38.34 7.97097V7.98H38.84ZM38.9 6.32L39.3997 6.33806L39.4191 5.8018L38.8828 5.8203L38.9 6.32ZM37.16 6.38V6.88H37.1686L37.1772 6.8797L37.16 6.38ZM35.1 6.38H34.6V6.88H35.1V6.38ZM35.1 4.86V4.36H34.6V4.86H35.1ZM37.16 4.86L37.1887 4.36082L37.1744 4.36H37.16V4.86ZM39.3997 4.94236L39.3397 3.24236L38.3403 3.27764L38.4003 4.97764L39.3997 4.94236ZM39.34 3.26V1.06H38.34V3.26H39.34ZM38.84 1.56H40.38V0.559999H38.84V1.56ZM39.88 1.06V3.26H40.88V1.06H39.88ZM39.8809 3.23064L39.7809 4.93064L40.7791 4.98936L40.8791 3.28936L39.8809 3.23064ZM40.3128 5.45892L41.8328 5.35892L41.7672 4.36108L40.2472 4.46108L40.3128 5.45892ZM41.8 5.36H44.12V4.36H41.8V5.36ZM43.62 4.86V6.38H44.62V4.86H43.62ZM44.12 5.88H41.8V6.88H44.12V5.88ZM41.8197 5.88039L40.2997 5.82039L40.2603 6.81961L41.7803 6.87961L41.8197 5.88039ZM39.7809 6.35007L39.8809 8.01007L40.8791 7.94993L40.7791 6.28993L39.7809 6.35007ZM39.88 7.98V10.32H40.88V7.98H39.88ZM40.38 9.82H38.84V10.82H40.38V9.82ZM39.34 10.32V7.98H38.34V10.32H39.34ZM39.3397 7.99806L39.3997 6.33806L38.4003 6.30194L38.3403 7.96194L39.3397 7.99806ZM38.8828 5.8203L37.1428 5.8803L37.1772 6.8797L38.9172 6.8197L38.8828 5.8203ZM37.16 5.88H35.1V6.88H37.16V5.88ZM35.6 6.38V4.86H34.6V6.38H35.6ZM35.1 5.36H37.16V4.36H35.1V5.36ZM37.1313 5.35918L38.8713 5.45918L38.9287 4.46082L37.1887 4.36082L37.1313 5.35918Z" fill="#FFECCE"/>
</g>
<defs>
<clipPath id="clip0_39_45">
<rect width="48" height="48" fill="white"/>
</clipPath>
</defs>
</svg>
