<svg width="48" height="48" viewBox="0 0 48 48" fill="none" xmlns="http://www.w3.org/2000/svg">
<g clip-path="url(#clip0_39_45)">
<path d="M19.95 44.605C18.0433 44.605 16.3383 44.44 14.835 44.11C13.3317 43.78 11.6817 43.34 9.885 42.79C8.785 42.3867 7.96 42.1667 7.41 42.13L7.85 32.175H11.37L12.305 39.325C12.9283 39.9117 13.9367 40.4433 15.33 40.92C16.76 41.36 18.3183 41.58 20.005 41.58C22.7917 41.58 24.9 40.9567 26.33 39.71C27.7967 38.4633 28.53 36.74 28.53 34.54C28.53 33.11 28.1267 31.8817 27.32 30.855C26.55 29.8283 25.505 28.9483 24.185 28.215C22.9017 27.4817 21.1233 26.62 18.85 25.63C16.7967 24.7133 15 23.7783 13.46 22.825C11.9567 21.8717 10.6367 20.6067 9.5 19.03C8.4 17.4167 7.85 15.4917 7.85 13.255C7.85 11.2383 8.38167 9.44167 9.445 7.865C10.545 6.25167 12.1033 4.98667 14.12 4.07C16.1733 3.15333 18.5567 2.695 21.27 2.695C22.9567 2.695 24.4417 2.82333 25.725 3.08C27.045 3.33666 28.53 3.685 30.18 4.125C30.9133 4.38166 31.5367 4.54666 32.05 4.62L31.72 13.86H28.365L27.265 7.095C26.8983 6.72833 26.1283 6.38 24.955 6.05C23.8183 5.72 22.5717 5.555 21.215 5.555C18.685 5.555 16.76 6.08666 15.44 7.15C14.1567 8.21333 13.515 9.75333 13.515 11.77C13.515 13.2367 13.9 14.465 14.67 15.455C15.4767 16.445 16.4667 17.2883 17.64 17.985C18.8133 18.6817 20.6833 19.635 23.25 20.845C25.6333 21.9817 27.5767 23.0083 29.08 23.925C30.5833 24.8417 31.8667 26.0517 32.93 27.555C34.03 29.0217 34.58 30.7817 34.58 32.835C34.58 34.7783 34.03 36.6483 32.93 38.445C31.8667 40.2417 30.2167 41.7267 27.98 42.9C25.78 44.0367 23.1033 44.605 19.95 44.605Z" fill="white"/>
<path d="M14.835 44.11L14.9422 43.6216L14.9422 43.6216L14.835 44.11ZM9.885 42.79L9.71287 43.2594L9.72564 43.2641L9.73864 43.2681L9.885 42.79ZM7.41 42.13L6.91049 42.1079L6.8889 42.5964L7.37674 42.6289L7.41 42.13ZM7.85 32.175V31.675H7.37161L7.35049 32.1529L7.85 32.175ZM11.37 32.175L11.8658 32.1102L11.8089 31.675H11.37V32.175ZM12.305 39.325L11.8092 39.3898L11.8324 39.5668L11.9623 39.6891L12.305 39.325ZM15.33 40.92L15.1682 41.3931L15.1755 41.3956L15.183 41.3979L15.33 40.92ZM26.33 39.71L26.0062 39.329L26.0014 39.3331L26.33 39.71ZM27.32 30.855L26.9199 31.1551L26.9268 31.1639L27.32 30.855ZM24.185 28.215L23.9369 28.6492L23.9422 28.6521L24.185 28.215ZM18.85 25.63L18.6462 26.0866L18.6504 26.0884L18.85 25.63ZM13.46 22.825L13.1922 23.2473L13.1968 23.2501L13.46 22.825ZM9.5 19.03L9.08674 19.3118L9.09441 19.3224L9.5 19.03ZM9.445 7.865L9.03188 7.58333L9.03046 7.58543L9.445 7.865ZM14.12 4.07L13.9162 3.61342L13.9131 3.61482L14.12 4.07ZM25.725 3.08L25.6269 3.5703L25.6296 3.57081L25.725 3.08ZM30.18 4.125L30.3452 3.65307L30.3272 3.64678L30.3088 3.64188L30.18 4.125ZM32.05 4.62L32.5497 4.63784L32.5657 4.1886L32.1207 4.12502L32.05 4.62ZM31.72 13.86V14.36H32.2025L32.2197 13.8778L31.72 13.86ZM28.365 13.86L27.8715 13.9402L27.9397 14.36H28.365V13.86ZM27.265 7.095L27.7585 7.01475L27.7326 6.85552L27.6186 6.74145L27.265 7.095ZM24.955 6.05L24.8156 6.53019L24.8196 6.53132L24.955 6.05ZM15.44 7.15L15.1263 6.76059L15.121 6.76499L15.44 7.15ZM14.67 15.455L14.2752 15.762L14.2824 15.7708L14.67 15.455ZM17.64 17.985L17.8953 17.5551L17.8953 17.5551L17.64 17.985ZM23.25 20.845L23.4652 20.3937L23.4632 20.3927L23.25 20.845ZM29.08 23.925L29.3403 23.4981L29.3403 23.4981L29.08 23.925ZM32.93 27.555L32.5216 27.8438L32.53 27.855L32.93 27.555ZM32.93 38.445L32.5035 38.1839L32.4997 38.1903L32.93 38.445ZM27.98 42.9L28.2095 43.3442L28.2123 43.3428L27.98 42.9ZM19.95 44.105C18.0712 44.105 16.4032 43.9423 14.9422 43.6216L14.7278 44.5984C16.2735 44.9377 18.0155 45.105 19.95 45.105V44.105ZM14.9422 43.6216C13.4545 43.2951 11.8178 42.8588 10.0314 42.3119L9.73864 43.2681C11.5455 43.8212 13.2088 44.2649 14.7278 44.5984L14.9422 43.6216ZM10.0571 42.3206C8.95095 41.915 8.06914 41.6728 7.44326 41.6311L7.37674 42.6289C7.85087 42.6605 8.61905 42.8584 9.71287 43.2594L10.0571 42.3206ZM7.90951 42.1521L8.34951 32.1971L7.35049 32.1529L6.91049 42.1079L7.90951 42.1521ZM7.85 32.675H11.37V31.675H7.85V32.675ZM10.8742 32.2398L11.8092 39.3898L12.8008 39.2602L11.8658 32.1102L10.8742 32.2398ZM11.9623 39.6891C12.6621 40.3477 13.7492 40.9076 15.1682 41.3931L15.4918 40.4469C14.1241 39.979 13.1946 39.4756 12.6477 38.9609L11.9623 39.6891ZM15.183 41.3979C16.6662 41.8543 18.2747 42.08 20.005 42.08V41.08C18.3619 41.08 16.8538 40.8657 15.477 40.4421L15.183 41.3979ZM20.005 42.08C22.8571 42.08 25.103 41.443 26.6586 40.0869L26.0014 39.3331C24.697 40.4703 22.7262 41.08 20.005 41.08V42.08ZM26.6538 40.091C28.2489 38.7351 29.03 36.8633 29.03 34.54H28.03C28.03 36.6167 27.3444 38.1915 26.0062 39.329L26.6538 40.091ZM29.03 34.54C29.03 33.0093 28.5957 31.6694 27.7132 30.5461L26.9268 31.1639C27.6576 32.094 28.03 33.2107 28.03 34.54H29.03ZM27.72 30.555C26.901 29.463 25.7985 28.5394 24.4278 27.7779L23.9422 28.6521C25.2115 29.3572 26.199 30.1936 26.92 31.155L27.72 30.555ZM24.4331 27.7809C23.1271 27.0346 21.3301 26.1647 19.0496 25.1716L18.6504 26.0884C20.9166 27.0753 22.6762 27.9287 23.9369 28.6491L24.4331 27.7809ZM19.0538 25.1734C17.0163 24.2638 15.2402 23.339 13.7232 22.3999L13.1968 23.2501C14.7598 24.2177 16.577 25.1628 18.6462 26.0866L19.0538 25.1734ZM13.7278 22.4027C12.283 21.4865 11.0084 20.2674 9.90559 18.7376L9.09441 19.3224C10.2649 20.946 11.6304 22.2568 13.1922 23.2473L13.7278 22.4027ZM9.91311 18.7483C8.87766 17.2297 8.35 15.4063 8.35 13.255H7.35C7.35 15.5771 7.92234 17.6037 9.08689 19.3117L9.91311 18.7483ZM8.35 13.255C8.35 11.3316 8.85535 9.63354 9.85954 8.14457L9.03046 7.58543C7.90798 9.2498 7.35 11.1451 7.35 13.255H8.35ZM9.85811 8.14667C10.8999 6.61872 12.3821 5.40918 14.3269 4.52518L13.9131 3.61482C11.8246 4.56415 10.1901 5.88461 9.03189 7.58333L9.85811 8.14667ZM14.3238 4.52657C16.3012 3.64382 18.6127 3.195 21.27 3.195V2.195C18.5007 2.195 16.0455 2.66285 13.9162 3.61343L14.3238 4.52657ZM21.27 3.195C22.9326 3.195 24.3836 3.32162 25.6269 3.57029L25.8231 2.58971C24.4998 2.32505 22.9807 2.195 21.27 2.195V3.195ZM25.6296 3.57081C26.9358 3.8248 28.4094 4.17032 30.0512 4.60812L30.3088 3.64188C28.6506 3.19968 27.1542 2.84853 25.8204 2.58919L25.6296 3.57081ZM30.0148 4.59693C30.7653 4.85958 31.4222 5.03538 31.9793 5.11497L32.1207 4.12502C31.6512 4.05795 31.0614 3.90374 30.3452 3.65307L30.0148 4.59693ZM31.5503 4.60215L31.2203 13.8422L32.2197 13.8778L32.5497 4.63784L31.5503 4.60215ZM31.72 13.36H28.365V14.36H31.72V13.36ZM28.8585 13.7798L27.7585 7.01475L26.7715 7.17525L27.8715 13.9402L28.8585 13.7798ZM27.6186 6.74145C27.3742 6.49711 27.0283 6.28856 26.6186 6.10319C26.2031 5.91525 25.6916 5.73778 25.0904 5.56867L24.8196 6.53132C25.3917 6.69222 25.8519 6.85391 26.2064 7.0143C26.5667 7.17727 26.7891 7.32622 26.9114 7.44855L27.6186 6.74145ZM25.0944 5.56982C23.9064 5.22491 22.6121 5.055 21.215 5.055V6.055C22.5312 6.055 23.7303 6.21508 24.8156 6.53017L25.0944 5.56982ZM21.215 5.055C18.6249 5.055 16.5697 5.59791 15.1263 6.76062L15.7537 7.53938C16.9503 6.57542 18.7451 6.055 21.215 6.055V5.055ZM15.121 6.76499C13.6989 7.94329 13.015 9.63889 13.015 11.77H14.015C14.015 9.86777 14.6144 8.48337 15.759 7.53501L15.121 6.76499ZM13.015 11.77C13.015 13.3282 13.4259 14.6699 14.2753 15.762L15.0647 15.148C14.3741 14.2601 14.015 13.1451 14.015 11.77H13.015ZM14.2824 15.7708C15.1286 16.8094 16.1644 17.6904 17.3847 18.4149L17.8953 17.5551C16.7689 16.8863 15.8247 16.0806 15.0576 15.1392L14.2824 15.7708ZM17.3847 18.4149C18.5796 19.1244 20.4676 20.0861 23.0368 21.2973L23.4632 20.3927C20.8991 19.1839 19.047 18.2389 17.8953 17.5551L17.3847 18.4149ZM23.0348 21.2963C25.4095 22.4289 27.3362 23.4473 28.8197 24.3519L29.3403 23.4981C27.8171 22.5693 25.8572 21.5345 23.4652 20.3937L23.0348 21.2963ZM28.8197 24.3519C30.2622 25.2315 31.496 26.3935 32.5218 27.8437L33.3382 27.2663C32.2373 25.7099 30.9045 24.4519 29.3403 23.4981L28.8197 24.3519ZM32.53 27.855C33.5574 29.2248 34.08 30.8762 34.08 32.835H35.08C35.08 30.6871 34.5026 28.8185 33.33 27.255L32.53 27.855ZM34.08 32.835C34.08 34.6785 33.5597 36.459 32.5036 38.1839L33.3564 38.7061C34.5003 36.8377 35.08 34.8782 35.08 32.835H34.08ZM32.4997 38.1903C31.4927 39.8918 29.9195 41.3179 27.7477 42.4572L28.2123 43.3428C30.5138 42.1354 32.2406 40.5915 33.3603 38.6997L32.4997 38.1903ZM27.7505 42.4558C25.6382 43.5471 23.0447 44.105 19.95 44.105V45.105C23.1619 45.105 25.9218 44.5262 28.2095 43.3442L27.7505 42.4558Z" fill="#FFECCE"/>
<path d="M40.9 4.96L40.84 3.26V1.06H42.38V3.26L42.28 4.96L43.8 4.86H46.12V6.38H43.8L42.28 6.32L42.38 7.98V10.32H40.84V7.98L40.9 6.32L39.16 6.38H37.1V4.86H39.16L40.9 4.96Z" fill="white"/>
<path d="M40.9 4.96L40.8713 5.45918L41.419 5.49065L41.3997 4.94236L40.9 4.96ZM40.84 3.26H40.34V3.26882L40.3403 3.27764L40.84 3.26ZM40.84 1.06V0.559999H40.34V1.06H40.84ZM42.38 1.06H42.88V0.559999H42.38V1.06ZM42.38 3.26L42.8791 3.28936L42.88 3.27469V3.26H42.38ZM42.28 4.96L41.7809 4.93064L41.7476 5.49611L42.3128 5.45892L42.28 4.96ZM43.8 4.86V4.36H43.7836L43.7672 4.36108L43.8 4.86ZM46.12 4.86H46.62V4.36H46.12V4.86ZM46.12 6.38V6.88H46.62V6.38H46.12ZM43.8 6.38L43.7803 6.87961L43.7901 6.88H43.8V6.38ZM42.28 6.32L42.2997 5.82039L41.7477 5.7986L41.7809 6.35007L42.28 6.32ZM42.38 7.98H42.88V7.96495L42.8791 7.94993L42.38 7.98ZM42.38 10.32V10.82H42.88V10.32H42.38ZM40.84 10.32H40.34V10.82H40.84V10.32ZM40.84 7.98L40.3403 7.96194L40.34 7.97097V7.98H40.84ZM40.9 6.32L41.3997 6.33806L41.4191 5.8018L40.8828 5.8203L40.9 6.32ZM39.16 6.38V6.88H39.1686L39.1772 6.8797L39.16 6.38ZM37.1 6.38H36.6V6.88H37.1V6.38ZM37.1 4.86V4.36H36.6V4.86H37.1ZM39.16 4.86L39.1887 4.36082L39.1744 4.36H39.16V4.86ZM41.3997 4.94236L41.3397 3.24236L40.3403 3.27764L40.4003 4.97764L41.3997 4.94236ZM41.34 3.26V1.06H40.34V3.26H41.34ZM40.84 1.56H42.38V0.559999H40.84V1.56ZM41.88 1.06V3.26H42.88V1.06H41.88ZM41.8809 3.23064L41.7809 4.93064L42.7791 4.98936L42.8791 3.28936L41.8809 3.23064ZM42.3128 5.45892L43.8328 5.35892L43.7672 4.36108L42.2472 4.46108L42.3128 5.45892ZM43.8 5.36H46.12V4.36H43.8V5.36ZM45.62 4.86V6.38H46.62V4.86H45.62ZM46.12 5.88H43.8V6.88H46.12V5.88ZM43.8197 5.88039L42.2997 5.82039L42.2603 6.81961L43.7803 6.87961L43.8197 5.88039ZM41.7809 6.35007L41.8809 8.01007L42.8791 7.94993L42.7791 6.28993L41.7809 6.35007ZM41.88 7.98V10.32H42.88V7.98H41.88ZM42.38 9.82H40.84V10.82H42.38V9.82ZM41.34 10.32V7.98H40.34V10.32H41.34ZM41.3397 7.99806L41.3997 6.33806L40.4003 6.30194L40.3403 7.96194L41.3397 7.99806ZM40.8828 5.8203L39.1428 5.8803L39.1772 6.8797L40.9172 6.8197L40.8828 5.8203ZM39.16 5.88H37.1V6.88H39.16V5.88ZM37.6 6.38V4.86H36.6V6.38H37.6ZM37.1 5.36H39.16V4.36H37.1V5.36ZM39.1313 5.35918L40.8713 5.45918L40.9287 4.46082L39.1887 4.36082L39.1313 5.35918Z" fill="#FFECCE"/>
</g>
<defs>
<clipPath id="clip0_39_45">
<rect width="48" height="48" fill="white"/>
</clipPath>
</defs>
</svg>
