<svg width="15" height="15" viewBox="0 0 15 15" fill="none" xmlns="http://www.w3.org/2000/svg">
<path d="M14.5 5.5675C14.5 5.25425 14.2457 5 13.9325 5H9.5L8.034 0.877C7.9535 0.651 7.7397 0.5 7.5 0.5C7.2603 0.5 7.0465 0.651 6.966 0.877L5.5 5H1.0675C0.754197 5 0.5 5.25425 0.5 5.5675C0.5 5.736 0.574702 5.89575 0.704002 6.0035L4 8.75L2.5227 13.7823C2.5077 13.8335 2.5 13.8865 2.5 13.94C2.5 14.2492 2.751 14.5 3.0605 14.5C3.1832 14.5 3.303 14.4595 3.4005 14.3848L7.5 11.25L11.5992 14.3848C11.697 14.4595 11.8167 14.5 11.9395 14.5C12.249 14.5 12.5 14.2492 12.5 13.94C12.5 13.8865 12.4923 13.8335 12.4773 13.7823L11 8.75L14.296 6.0035C14.4252 5.89575 14.5 5.73575 14.5 5.5675Z" fill="#F47D4E"/>
</svg>
