<svg width="512" height="512" viewBox="0 0 512 512" fill="none" xmlns="http://www.w3.org/2000/svg">
<path d="M149.64 167.8C110.8 217.72 111.48 306.4 161.12 350.36C217.48 400.24 296.8 399.72 346.68 353.84C406.48 298.8 403.04 207.2 350.16 155.32C297 103.16 202 100.44 149.64 167.8Z" fill="#FCC11A"/>
<path d="M212 150.68C196.64 143.88 179.84 162.4 172.52 175.04C165.2 187.72 158.4 212.56 174 218.92C189.6 225.24 200.8 214.52 212.04 196C223.2 177.48 229.56 158.48 212 150.68Z" fill="#FEE269"/>
<path d="M252 81.0798C248.28 88.0398 249.52 93.3998 256.92 95.1598C264.32 96.9198 310.36 104.4 314.24 104.64C319.88 105 321.96 100.76 321.28 95.8398C320.56 90.9198 309.32 21.9998 308.28 15.6798C307.24 9.35978 300.56 3.03977 294.2 11.4798C287.84 19.9198 254.8 75.8398 252 81.0798Z" fill="#FFA722"/>
<path d="M371.2 128.92C363.96 131.16 364.16 135.6 368.04 141.24C371.92 146.88 398.64 187.64 401.08 190.48C403.56 193.28 407.76 194 411.28 189.76C414.8 185.56 458.72 123.96 461.92 120.12C467.2 113.8 464.04 107.12 455.96 109.2C449.8 110.84 375.76 127.52 371.2 128.92Z" fill="#FFA722"/>
<path d="M426.4 247.44C421.2 244.48 414.44 245.32 412.68 252C410.92 258.68 403.2 307.2 402.48 311.44C401.76 315.68 404.96 319.88 410.2 318.84C415.44 317.8 488 307.04 492.84 305.84C501.28 303.72 504.08 295.28 495.32 288.96C489.64 284.84 431.32 250.24 426.4 247.44Z" fill="#FFA722"/>
<path d="M368.36 362.4C373.96 359.4 378.92 361.68 380.32 368.04C381.72 374.36 397.2 439.08 399.68 451.04C400.92 457.04 394.04 461.96 388.44 458.44C382.8 454.92 321.68 412.32 317.76 408.84C312.12 403.92 316.04 398.8 318.8 396.2C324.4 390.88 363.08 365.24 368.36 362.4Z" fill="#FFA722"/>
<path d="M198.16 397.92C191.08 397.24 189 403.56 190.08 409.16C191.12 414.8 201.68 486.12 202.4 491.44C203.44 499.16 211.56 502.36 216.8 494.6C222.04 486.84 258.2 429 261.12 423.56C266.4 413.72 262.52 411.6 257.24 409.16C252 406.72 205.56 398.64 198.16 397.92Z" fill="#FFA722"/>
<path d="M96.92 316C101.84 307.92 108.16 310.04 112.76 317.76C115.88 323.04 142.28 358.56 144.76 362.4C147.24 366.28 148.28 373.64 140.56 375.4C132.76 377.2 69.84 393.72 60 395.48C50.16 397.24 44.52 389.52 50.84 381.08C54.52 376.12 94.12 320.6 96.92 316Z" fill="#FFA722"/>
<path d="M83.56 254.8C92.56 258.8 96.8 257.36 98.68 250.92C101.16 242.48 108.52 203.8 108.88 195C109.12 189.28 106.76 183.76 97.96 185.16C89.16 186.56 25.88 195.4 17.8 198.2C8.40001 201.48 9.08001 211.8 15.32 215.08C22.72 218.96 77.2 252 83.56 254.8Z" fill="#FFA722"/>
<path d="M192.92 107.12C198 103.08 196.44 97.2802 191.88 94.1202C187.32 90.9602 130.84 50.1202 123.68 44.5202C117.36 39.6002 109.6 41.3602 111.72 52.6002C113.24 60.6802 131.24 131.4 132.48 136.28C133.88 141.92 138.12 144.72 143.04 141.2C147.88 137.72 187.64 111.36 192.92 107.12Z" fill="#FFA722"/>
</svg>
