<svg width="512" height="512" viewBox="0 0 512 512" fill="none" xmlns="http://www.w3.org/2000/svg">
<g clip-path="url(#clip0_43_101)">
<path d="M145.662 167.141C105.323 219.02 106.029 311.179 157.585 356.864C216.12 408.701 298.502 408.161 350.307 360.48C412.415 303.281 408.842 208.087 353.921 154.172C298.71 99.965 200.043 97.1383 145.662 167.141Z" fill="#FCC11A"/>
<path d="M210.403 149.507C194.086 142.471 176.239 161.634 168.463 174.712C160.687 187.832 153.463 213.534 170.035 220.115C186.607 226.654 198.505 215.562 210.445 196.4C222.3 177.237 229.056 157.578 210.403 149.507Z" fill="#FEE269"/>
<path d="M251.163 77.2675C247.205 84.5672 248.525 90.1889 256.397 92.0348C264.27 93.8807 313.25 101.726 317.378 101.978C323.378 102.355 325.591 97.9082 324.868 92.748C324.102 87.5878 312.144 15.3034 311.038 8.67485C309.931 2.04633 302.825 -4.58219 296.058 4.26982C289.292 13.1218 254.142 71.7717 251.163 77.2675Z" fill="#FFA722"/>
<path d="M377.052 126.838C369.53 129.16 369.738 133.761 373.769 139.607C377.8 145.452 405.559 187.694 408.094 190.637C410.671 193.539 415.034 194.285 418.691 189.891C422.348 185.538 467.977 121.698 471.302 117.718C476.787 111.169 473.504 104.246 465.11 106.401C458.71 108.101 381.789 125.388 377.052 126.838Z" fill="#FFA722"/>
<path d="M433.414 249.687C427.912 246.613 420.76 247.485 418.898 254.422C417.036 261.359 408.868 311.746 408.107 316.149C407.345 320.552 410.73 324.914 416.274 323.834C421.818 322.754 498.585 311.58 503.706 310.333C512.635 308.132 515.598 299.367 506.33 292.804C500.321 288.526 438.619 252.595 433.414 249.687Z" fill="#FFA722"/>
<path d="M373.401 369.367C379.203 366.23 384.341 368.614 385.792 375.263C387.242 381.87 403.279 449.528 405.848 462.031C407.133 468.304 400.005 473.447 394.204 469.767C388.361 466.088 325.042 421.553 320.981 417.915C315.138 412.772 319.199 407.419 322.058 404.701C327.86 399.14 367.931 372.336 373.401 369.367Z" fill="#FFA722"/>
<path d="M195.708 407.052C188.323 406.347 186.153 412.904 187.28 418.715C188.365 424.567 199.379 498.57 200.13 504.09C201.215 512.1 209.684 515.421 215.15 507.369C220.615 499.317 258.332 439.301 261.378 433.657C266.885 423.447 262.838 421.247 257.331 418.715C251.865 416.183 203.426 407.799 195.708 407.052Z" fill="#FFA722"/>
<path d="M90.0237 322.262C95.1731 313.979 101.788 316.153 106.602 324.067C109.868 329.479 137.499 365.893 140.095 369.829C142.69 373.807 143.779 381.352 135.699 383.156C127.535 385.001 61.6808 401.937 51.3819 403.741C41.0831 405.545 35.18 397.631 41.7948 388.979C45.6464 383.894 87.0931 326.978 90.0237 322.262Z" fill="#FFA722"/>
<path d="M76.4309 257.713C85.8689 261.819 90.3152 260.341 92.2866 253.73C94.8873 245.066 102.605 205.36 102.983 196.327C103.235 190.455 100.76 184.789 91.5316 186.226C82.3034 187.663 15.9444 196.737 7.47119 199.612C-2.38619 202.979 -1.6731 213.572 4.87052 216.939C12.6306 220.922 69.7615 254.838 76.4309 257.713Z" fill="#FFA722"/>
<path d="M189.755 104.536C194.972 100.289 193.37 94.1914 188.687 90.8693C184.004 87.5472 126.002 44.6122 118.649 38.725C112.158 33.5526 104.189 35.4029 106.366 47.2195C107.927 55.7139 126.412 130.062 127.686 135.192C129.124 141.121 133.478 144.065 138.531 140.364C143.501 136.706 184.333 108.994 189.755 104.536Z" fill="#FFA722"/>
</g>
<defs>
<clipPath id="clip0_43_101">
<rect width="512" height="512" fill="white"/>
</clipPath>
</defs>
</svg>
