<svg width="800" height="800" viewBox="0 0 800 800" fill="none" xmlns="http://www.w3.org/2000/svg">
<g clip-path="url(#clip0_73_22)">
<path d="M400 200.25C289.575 200.25 200.075 289.775 200.075 400.2C200.075 510.575 289.575 600.1 400 600.1C510.425 600.1 599.925 510.6 599.925 400.2C599.925 289.8 510.425 200.25 400 200.25ZM400 573.45C304.475 573.45 226.725 495.725 226.725 400.2C226.725 304.65 304.45 226.9 400 226.9C495.55 226.9 573.275 304.65 573.275 400.2C573.275 495.725 495.55 573.45 400 573.45Z" fill="white"/>
<path d="M386.775 0.149902H413.425V160.275H386.775V0.149902Z" fill="white"/>
<path d="M386.775 640.1H413.425V799.85H386.775V640.1Z" fill="white"/>
<path d="M0.150002 386.675H160.075V413.325H0.150002V386.675Z" fill="white"/>
<path d="M639.9 386.675H799.85V413.325H639.9V386.675Z" fill="white"/>
<path d="M673.4 107L692.25 125.85L580.8 237.3L561.95 218.45L673.4 107Z" fill="white"/>
<path d="M126.8 691.325L107.95 672.475L219.4 561.025L238.25 579.875L126.8 691.325Z" fill="white"/>
<path d="M126.825 107.025L238.275 218.475L219.425 237.325L107.975 125.875L126.825 107.025Z" fill="white"/>
<path d="M673.425 691.35L561.975 579.9L580.825 561.05L692.275 672.5L673.425 691.35Z" fill="white"/>
</g>
<defs>
<clipPath id="clip0_73_22">
<rect width="800" height="800" fill="white"/>
</clipPath>
</defs>
</svg>
