<svg width="457" height="80" viewBox="0 0 457 80" fill="none" xmlns="http://www.w3.org/2000/svg">
<path d="M109.4 37.94C118.22 36.68 122.96 32.84 122.96 27.32C122.96 22.04 118.52 18.5 106.58 18.5H87.92V18.86L91.16 21.98V55.52L87.92 58.64V59H105.44C118.7 59 125.06 52.7 125.06 46.94C125.06 41.72 121.34 37.16 109.34 38.36L109.4 37.94ZM104.66 19.52C110.66 19.52 111.2 23.96 111.2 28.64C111.2 34.52 109.94 37.58 104.54 37.64H102.74V19.52H104.66ZM104.66 57.98C103.34 58.04 103.22 57.98 102.74 57.92V38.72H104.72C109.7 38.72 112.52 41 112.52 48.14C112.52 54.92 109.94 57.8 104.66 57.98ZM157.693 52.28V27.08H144.253V27.44L147.073 29.96V50.54C146.233 51.68 145.093 52.52 143.593 52.52C141.793 52.52 140.293 51.62 140.293 48.62V27.08H126.913V27.44L129.673 29.96L129.733 49.34C129.733 55.1 132.133 59.84 138.853 59.84C140.773 59.84 143.893 56.72 147.913 51.2C147.373 58.1 149.593 59.9 152.473 59.9C156.193 59.9 158.773 55.52 162.373 50.36L162.133 50.06L157.693 52.28ZM174.238 33.98C171.718 32.3 170.398 31.04 170.398 29.66C170.398 28.4 171.238 28.04 172.378 28.04C175.438 28.04 181.978 31.94 187.798 41.24H188.218V25.82H187.858L185.038 28.16C182.698 26.84 179.698 26.12 176.638 26.12C169.618 26.12 164.758 30.08 164.758 36.08C164.758 40.04 167.038 42.74 171.358 45.56L178.378 50.24C183.058 53.24 184.198 54.56 184.198 55.88C184.198 57.2 183.298 57.74 182.278 57.74C177.777 57.74 168.658 51.44 163.738 41.9H163.378L164.638 58.64C168.958 57.92 171.418 59.78 176.998 59.78C186.958 59.78 189.778 53.84 189.778 49.64C189.778 44.84 186.118 42.38 181.858 39.44L174.238 33.98ZM200.239 23.42C203.299 23.42 205.339 21.44 205.339 18.5C205.339 15.62 203.299 13.7 200.239 13.7C197.059 13.7 194.899 15.62 194.899 18.5C194.899 21.44 197.059 23.42 200.239 23.42ZM195.019 56.3L192.199 58.64V59H208.339V58.64L205.579 56.3L205.699 29.96V27.08H192.319V27.44L195.079 29.96L195.019 56.3ZM241.803 36.74C241.803 30.98 239.283 26.24 232.623 26.24C230.703 26.24 227.583 29.36 223.563 34.88H223.503C224.043 28.04 221.823 26.3 218.943 26.3C215.283 26.3 212.703 30.68 209.043 35.78L209.283 36.08L213.783 33.86V56.3L210.963 58.64V59H227.103V58.64L224.343 56.3V35.6C225.183 34.4 226.323 33.56 227.883 33.56C229.683 33.56 231.123 34.46 231.123 37.46V56.3L228.363 58.64V59H244.503V58.64L241.683 56.3L241.803 36.74ZM274.002 50.18C271.602 51.44 270.042 51.86 268.362 51.86C262.182 51.86 257.922 47.3 255.702 42.26H263.382C265.902 42.26 273.882 38.6 273.882 36.92C273.402 30.92 269.802 26.18 262.242 26.18C258.882 26.18 245.802 29.3 245.802 43.52C245.802 53.66 253.242 59.9 262.842 59.9C264.882 59.9 269.202 56.06 274.302 50.48L274.002 50.18ZM257.142 28.94C260.442 28.94 263.022 34.22 263.142 41.18H255.282C254.382 38.78 253.902 36.38 253.902 34.28C253.902 30.68 255.402 28.94 257.142 28.94ZM287.03 33.98C284.51 32.3 283.19 31.04 283.19 29.66C283.19 28.4 284.03 28.04 285.17 28.04C288.23 28.04 294.77 31.94 300.59 41.24H301.01V25.82H300.65L297.83 28.16C295.49 26.84 292.49 26.12 289.43 26.12C282.41 26.12 277.55 30.08 277.55 36.08C277.55 40.04 279.83 42.74 284.15 45.56L291.17 50.24C295.85 53.24 296.99 54.56 296.99 55.88C296.99 57.2 296.09 57.74 295.07 57.74C290.57 57.74 281.45 51.44 276.53 41.9H276.17L277.43 58.64C281.75 57.92 284.21 59.78 289.79 59.78C299.75 59.78 302.57 53.84 302.57 49.64C302.57 44.84 298.91 42.38 294.65 39.44L287.03 33.98ZM316.327 33.98C313.807 32.3 312.487 31.04 312.487 29.66C312.487 28.4 313.327 28.04 314.467 28.04C317.527 28.04 324.067 31.94 329.887 41.24H330.307V25.82H329.947L327.127 28.16C324.787 26.84 321.787 26.12 318.727 26.12C311.707 26.12 306.847 30.08 306.847 36.08C306.847 40.04 309.127 42.74 313.447 45.56L320.467 50.24C325.147 53.24 326.287 54.56 326.287 55.88C326.287 57.2 325.387 57.74 324.367 57.74C319.867 57.74 310.747 51.44 305.827 41.9H305.467L306.727 58.64C311.047 57.92 313.507 59.78 319.087 59.78C329.047 59.78 331.867 53.84 331.867 49.64C331.867 44.84 328.207 42.38 323.947 39.44L316.327 33.98ZM374.327 46.58V59H347.027V58.64L352.007 56.66L351.947 20.66L346.727 18.86V18.5H360.767V18.86L355.547 20.66V57.92H366.827C368.307 57.92 369.327 57.8 369.887 57.56C370.447 57.28 370.907 56.68 371.267 55.76C371.667 54.8 372.267 52.86 373.067 49.94C373.267 49.14 373.567 48.02 373.967 46.58H374.327ZM389.359 59.6C387.199 59.6 385.199 59.06 383.359 57.98C381.559 56.9 380.099 55.26 378.979 53.06C377.899 50.82 377.359 48.08 377.359 44.84C377.359 40.76 378.039 37.4 379.399 34.76C380.799 32.08 382.399 30.14 384.199 28.94C385.999 27.74 387.499 27.14 388.699 27.14C390.859 27.14 392.839 27.68 394.639 28.76C396.479 29.84 397.939 31.5 399.019 33.74C400.139 35.94 400.699 38.66 400.699 41.9C400.699 45.98 399.999 49.36 398.599 52.04C397.239 54.68 395.659 56.6 393.859 57.8C392.059 59 390.559 59.6 389.359 59.6ZM390.859 56.84C391.979 56.84 393.099 56.52 394.219 55.88C395.379 55.2 396.359 54.02 397.159 52.34C397.959 50.62 398.359 48.32 398.359 45.44C398.359 42.44 397.879 39.76 396.919 37.4C395.999 35.04 394.679 33.2 392.959 31.88C391.279 30.56 389.359 29.9 387.199 29.9C386.079 29.9 384.939 30.24 383.779 30.92C382.659 31.56 381.699 32.74 380.899 34.46C380.099 36.14 379.699 38.42 379.699 41.3C379.699 44.3 380.159 46.98 381.079 49.34C382.039 51.7 383.359 53.54 385.039 54.86C386.759 56.18 388.699 56.84 390.859 56.84ZM433.316 29.54C432.076 29.54 430.356 29.42 428.156 29.18C425.996 28.9 424.076 28.6 422.396 28.28L422.336 28.4C425.296 30.28 426.776 33.02 426.776 36.62C426.776 38.78 426.176 40.78 424.976 42.62C423.816 44.42 422.416 45.84 420.776 46.88C419.176 47.92 417.856 48.44 416.816 48.44C414.336 48.44 412.236 47.94 410.516 46.94C410.276 47.18 409.816 47.66 409.136 48.38C408.456 49.1 407.936 49.76 407.576 50.36C407.256 50.92 407.096 51.46 407.096 51.98C407.096 53.02 407.476 53.88 408.236 54.56C408.996 55.2 410.156 55.6 411.716 55.76L421.736 56.66C421.976 56.7 422.956 56.8 424.676 56.96C426.396 57.08 427.796 57.62 428.876 58.58C429.996 59.5 430.556 60.8 430.556 62.48C430.556 63.6 430.256 65.04 429.656 66.8C429.056 68.6 427.656 70.32 425.456 71.96C423.256 73.6 420.036 74.42 415.796 74.42C413.476 74.42 411.296 74.1 409.256 73.46C407.256 72.86 405.636 71.98 404.396 70.82C403.196 69.7 402.596 68.38 402.596 66.86C402.596 66.62 402.836 66.26 403.316 65.78C403.836 65.3 405.236 64.08 407.516 62.12C409.316 60.52 410.556 59.44 411.236 58.88C408.996 58.68 407.116 58.12 405.596 57.2C404.116 56.28 403.376 54.96 403.376 53.24C403.376 53.12 403.616 52.82 404.096 52.34C404.616 51.82 404.976 51.46 405.176 51.26C407.336 49.1 408.856 47.5 409.736 46.46C407.336 44.7 406.136 42.08 406.136 38.6C406.136 36.44 406.736 34.46 407.936 32.66C409.136 30.86 410.536 29.44 412.136 28.4C413.736 27.36 415.076 26.84 416.156 26.84C416.196 26.84 416.976 26.92 418.496 27.08C422.296 27.48 425.096 27.68 426.896 27.68H433.316V29.54ZM424.136 38.72C424.136 36.92 423.736 35.32 422.936 33.92C422.176 32.48 421.116 31.36 419.756 30.56C418.396 29.76 416.856 29.36 415.136 29.36C413.336 29.36 411.816 29.96 410.576 31.16C409.336 32.32 408.716 34.16 408.716 36.68C408.716 38.44 409.096 40.04 409.856 41.48C410.616 42.88 411.636 43.98 412.916 44.78C414.236 45.58 415.676 45.98 417.236 45.98C419.276 45.98 420.936 45.4 422.216 44.24C423.496 43.08 424.136 41.24 424.136 38.72ZM429.296 64.94C429.296 63.06 428.276 61.74 426.236 60.98C424.236 60.26 421.616 59.76 418.376 59.48L412.436 59C408.556 61.8 406.616 64.06 406.616 65.78C406.616 66.82 407.076 67.8 407.996 68.72C408.956 69.64 410.316 70.36 412.076 70.88C413.876 71.44 415.936 71.72 418.256 71.72C420.496 71.72 422.436 71.4 424.076 70.76C425.756 70.12 427.036 69.28 427.916 68.24C428.836 67.24 429.296 66.14 429.296 64.94ZM444.261 59.6C442.101 59.6 440.101 59.06 438.261 57.98C436.461 56.9 435.001 55.26 433.881 53.06C432.801 50.82 432.261 48.08 432.261 44.84C432.261 40.76 432.941 37.4 434.301 34.76C435.701 32.08 437.301 30.14 439.101 28.94C440.901 27.74 442.401 27.14 443.601 27.14C445.761 27.14 447.741 27.68 449.541 28.76C451.381 29.84 452.841 31.5 453.921 33.74C455.041 35.94 455.601 38.66 455.601 41.9C455.601 45.98 454.901 49.36 453.501 52.04C452.141 54.68 450.561 56.6 448.761 57.8C446.961 59 445.461 59.6 444.261 59.6ZM445.761 56.84C446.881 56.84 448.001 56.52 449.121 55.88C450.281 55.2 451.261 54.02 452.061 52.34C452.861 50.62 453.261 48.32 453.261 45.44C453.261 42.44 452.781 39.76 451.821 37.4C450.901 35.04 449.581 33.2 447.861 31.88C446.181 30.56 444.261 29.9 442.101 29.9C440.981 29.9 439.841 30.24 438.681 30.92C437.561 31.56 436.601 32.74 435.801 34.46C435.001 36.14 434.601 38.42 434.601 41.3C434.601 44.3 435.061 46.98 435.981 49.34C436.941 51.7 438.261 53.54 439.941 54.86C441.661 56.18 443.601 56.84 445.761 56.84Z" fill="black"/>
<path d="M67.5 58.5H4.5C2.01263 58.5 0 60.5126 0 63C0 65.4874 2.01263 67.5 4.5 67.5H67.5C69.9874 67.5 72 65.4874 72 63C72 60.5126 69.9874 58.5 67.5 58.5Z" fill="#D71212"/>
<path d="M67.5 9C67.5 6.51263 65.4874 4.5 63 4.5H9C6.51263 4.5 4.5 6.51263 4.5 9V54H67.5V9Z" fill="#D71212"/>
</svg>
